<svg id="Logo" xmlns="http://www.w3.org/2000/svg" viewBox="0 0 253.07 253.07"><defs><style>.cls-1{fill:#1c1c1c;}.cls-2{fill:#fff;}.cls-3{fill:#262626;}</style></defs><title>address-card-icon</title><circle class="cls-1" cx="126.53" cy="126.53" r="126.53"/><g id="PnZ6y0.tif"><path class="cls-2" d="M4818.66,6017.14V6015c0.09-.4.22-0.8,0.28-1.21,0.48-3.2.68-6.47,1.46-9.6a44,44,0,0,1,11.41-20,45.11,45.11,0,0,1,14-9.81,47.45,47.45,0,0,1,15.5-4,48.51,48.51,0,0,1,30.68,8,44.54,44.54,0,0,1,9.84,9.12,48,48,0,0,1,7.48,13.24,39.06,39.06,0,0,1,2.47,13.34,60,60,0,0,1-.32,7.92,32.5,32.5,0,0,1-3.18,10.93c-2.48,4.84-4.81,9.78-7.55,14.47-3.1,5.3-6.58,10.39-9.92,15.56a210.44,210.44,0,0,0-16.31,29.23,137.91,137.91,0,0,0-8.18,24.49l-0.71,3a0.92,0.92,0,0,1-.36-0.58,148.26,148.26,0,0,0-6-20.07,150.16,150.16,0,0,0-10.73-22.46c-3.9-6.68-8.1-13.2-12.3-19.69a201.78,201.78,0,0,1-13.65-23.68,36.59,36.59,0,0,1-3.35-12.09C4819.07,6019.76,4818.84,6018.45,4818.66,6017.14Z" transform="translate(-4738.69 -5912.44)"/></g><circle class="cls-3" cx="126.53" cy="105.7" r="18.46"/></svg>