<svg id="Logo" xmlns="http://www.w3.org/2000/svg" viewBox="0 0 117.23 117.23"><defs><style>.cls-1{fill:#fff;}</style></defs><title>and-more</title><path class="cls-1" d="M9760.46,3168.65v-95.25a14.31,14.31,0,0,1,11-11h95.25c8.77,3.31,11,6.56,11,16.11q0,43.26,0,86.51c0,9.31-5.3,14.6-14.62,14.6h-55.16q-16.82,0-33.64,0c-5.69,0-10-2.41-12.53-7.59A35.18,35.18,0,0,1,9760.46,3168.65Zm52.11-54h-25.89v12.91h26v25.83h13v-25.92h25.85v-13h-26v-25.87h-12.91v26Z" transform="translate(-9760.46 -3062.42)"/></svg>