<svg id="Logo" xmlns="http://www.w3.org/2000/svg" viewBox="0 0 118.57 140"><defs><style>.cls-1{fill:#39b54a;}</style></defs><title>android-phone-selection</title><g id="_6s3rJG.tif" data-name="6s3rJG.tif"><path class="cls-1" d="M8911.37,7842.49c0,0.71,0,1.24,0,1.77,0,5.77,0,11.55,0,17.32a8.72,8.72,0,0,1-17.44.19c-0.08-5.82,0-11.65,0-17.47,0-.54,0-1.07,0-1.71h-11.36c0,0.53,0,1,0,1.57,0,5.77,0,11.55,0,17.32a8.75,8.75,0,0,1-17.27,2,8.89,8.89,0,0,1-.18-2.05q0-8.59,0-17.18c0-.53,0-1.07,0-1.79h-5.85c-5.76,0-9.67-3.84-9.68-9.63,0-11.7,0-23.4,0-35.09q0-9.85,0-19.69c0-.24,0-0.48.06-0.84h77.31c0,0.68,0,1.35,0,2q0,24.5,0,49c0,1.63,0,3.26,0,4.89a9.14,9.14,0,0,1-9.5,9.35h-6Z" transform="translate(-8828.92 -7730.29)"/><path class="cls-1" d="M8927,7774h-75.84c-1.89,0-1.94,0-1.79-1.86,1-12.24,7.16-21.24,17.4-27.68,0.71-.44,1.43-0.85,2.25-1.34l-5-9.23a4.84,4.84,0,0,1-.79-1.57,2.28,2.28,0,0,1,.46-1.75c0.68-.56,1.38-0.15,1.8.62l3.28,6,2.65,4.82a42.79,42.79,0,0,1,33.64,0c0.39-.67.76-1.29,1.11-1.93,1.43-2.59,2.82-5.2,4.29-7.77,0.52-.91.88-2.52,2.37-1.72s0.35,2.08-.14,3c-1.42,2.71-2.94,5.36-4.41,8-0.26.47-.5,1-0.78,1.51,7.44,4.07,13.22,9.68,16.75,17.42C8926.15,7764.86,8927.31,7770.35,8927,7774Zm-18-17.1a3.13,3.13,0,0,0-3.08-3.13,3.16,3.16,0,0,0-.08,6.32A3.11,3.11,0,0,0,8909,7756.87Zm-41.59,0a3.16,3.16,0,0,0,3,3.2,3.19,3.19,0,0,0,3.25-3.12,3.15,3.15,0,0,0-3-3.18A3.1,3.1,0,0,0,8867.41,7756.87Z" transform="translate(-8828.92 -7730.29)"/><path class="cls-1" d="M8846.4,7802.47q0,9,0,18.05a8.71,8.71,0,0,1-17.4.46c-0.15-4.48-.06-9-0.06-13.47,0-7.74,0-15.49,0-23.23a8.25,8.25,0,0,1,5.09-8,8.41,8.41,0,0,1,9.29,1.24,8.09,8.09,0,0,1,3.06,6.45Q8846.42,7793.22,8846.4,7802.47Z" transform="translate(-8828.92 -7730.29)"/><path class="cls-1" d="M8947.46,7802.46c0,6,.09,12,0,18.06a8.68,8.68,0,0,1-13.23,7.32A8.53,8.53,0,0,1,8930,7820q0-10.73,0-21.46c0-4.69,0-9.38,0-14.06,0-5.18,3.67-9,8.61-9a8.56,8.56,0,0,1,8.85,8.87C8947.49,7790.42,8947.46,7796.44,8947.46,7802.46Z" transform="translate(-8828.92 -7730.29)"/></g></svg>