<svg id="Logo" xmlns="http://www.w3.org/2000/svg" viewBox="0 0 120.39 140"><title>apple-iPhone-icon</title><g id="EihhGH.tif"><path d="M8604.21,7786.94c-23,13.5-19.72,45.88,4.28,56.24-5.49,12.13-11.89,23.59-22.13,32.43-6.29,5.43-13.43,6.2-20.82,2.48-9.8-4.93-19.52-4.83-29.29-.09-8,3.9-16,3.38-22.15-2.9-20-20.3-30-44.37-24.49-73.16a36.22,36.22,0,0,1,31.07-28.72,32.32,32.32,0,0,1,15,2c9.89,4,19,3.94,29.05,0C8579.68,7769.35,8594.25,7774.22,8604.21,7786.94Z" transform="translate(-8488.1 -7740.47)"/><path d="M8574.56,7740.53c2.91,14.63-10.9,32.34-25.94,33.4-2.5.18-2.8-1-2.77-2.95,0.18-10.86,5.21-19.11,13.86-25.29C8565.15,7741.81,8570.41,7740.12,8574.56,7740.53Z" transform="translate(-8488.1 -7740.47)"/></g></svg>