<svg id="Logo" xmlns="http://www.w3.org/2000/svg" viewBox="0 0 167.32 139.69"><defs><style>.cls-1{fill:#fff;stroke:#fff;stroke-miterlimit:10;stroke-width:2px;}</style></defs><title>backup-and-restore</title><path class="cls-1" d="M8618.84,4253.92c2.13-5.22,3.62-10.85,6.6-15.54,2.62-4.14,6.76-7.37,10.51-10.71,1.38-1.23,2.23-2.19,2.38-4.12a24.54,24.54,0,0,1,33.81-21.38c2.23,0.87,3-.08,4.2-1.44,9.66-11.09,21.95-16.81,36.58-17,19.77-.24,38.26,13.59,44.14,32.7a41.82,41.82,0,0,1,1.89,8.8c0.2,2.47,1.2,3.44,3.42,4.24,16.89,6,26,25.56,19.94,42.41a33.62,33.62,0,0,1-30.84,22.06c-3.44.06-6.89,0-10.33,0-1.94,0-3.55-.53-3.57-2.77s1.73-2.71,3.59-2.75c4.09-.1,8.18,0,12.26-0.29,11.44-.76,20.79-8.55,24.24-20,3.07-10.2-1-22.51-9.57-29.25-6.18-4.89-13.21-6.43-20.88-5.9-1.18.08-2.36,0.19-3.54,0.26-1.85.11-3.52-.54-3.25-2.54a4.12,4.12,0,0,1,2.72-2.74c3.37-.54,6.83-0.53,10.25-0.74,0-15.06-12.37-30.8-28.24-36-16.24-5.33-35.61.89-45.54,14.34,2.32,4,4.75,7.76,6.67,11.75,0.94,2,1,4.36,1.34,6.57,0.34,2-.18,3.6-2.4,3.76s-2.91-1.4-3-3.35a19,19,0,0,0-7.78-14.58c-5.71-4.36-12.06-5-18.59-2.44s-11,7.59-11.61,14.64c-0.42,5.21-2.09,8.24-6.51,11.4-15.4,11-17.6,31.38-5.44,45.26,6.11,7,14.14,9.86,23.3,9.87,3.87,0,7.75,0,11.62,0,1.95,0,3.92.32,3.92,2.77s-1.9,2.83-3.9,2.75c-6.87-.27-13.88.24-20.57-1-14.06-2.62-24.58-14.07-27.18-28.2a13.51,13.51,0,0,0-.6-1.81v-9Z" transform="translate(-8617.84 -4182.75)"/><path class="cls-1" d="M8726.3,4270.43c0-4.15,0-7.57,0-11,0-2,.38-3.94,2.77-3.94s2.82,1.86,2.81,3.89q0,9.84,0,19.69c0,2.7-1.22,3.92-3.93,3.9-6.56,0-13.13,0-19.69,0-2.05,0-3.9-.5-3.86-2.84s2-2.74,4-2.74h15.92c-1-1.37-1.63-2.3-2.36-3.1a24.3,24.3,0,0,0-35.17-.6c-9.94,9.93-9.58,26.64.86,35.76,7.65,6.68,16.44,8.43,25.84,4.63,9.08-3.68,14.3-10.67,15.33-20.57a4.56,4.56,0,0,1,.39-2.19,24.48,24.48,0,0,1,2.93-2.71c0.79,1.08,2.27,2.16,2.26,3.23a28.35,28.35,0,0,1-9,21,30.29,30.29,0,0,1-50.69-15.36c-2.71-11.61,3-25.4,13.15-31.7,11.19-7,24.89-6.39,34.71,1.44C8723.59,4268.11,8724.62,4269,8726.3,4270.43Z" transform="translate(-8617.84 -4182.75)"/></svg>