<svg id="Logo" xmlns="http://www.w3.org/2000/svg" viewBox="0 0 94.07 182.43"><defs><style>.cls-1,.cls-2{fill:#fff;}.cls-2{stroke:#fff;stroke-miterlimit:10;}</style></defs><title>battery-repair-icon</title><path class="cls-1" d="M8165.58,2186.24a21,21,0,0,1,1.13,4.55c0.14,5.68.05,11.36,0.05,17.31,1,0.09,1.82.22,2.65,0.23,5.29,0,10.59-.06,15.88,0,6.86,0.12,11.31,5.48,11.7,13.95,0,0.95,0,1.9,0,2.85q0,63.4,0,126.8a35.17,35.17,0,0,1-.41,6.37c-1.12,6-5.51,10.26-10.82,10.28q-35.79.12-71.59,0c-6.23,0-10.62-5.42-11.15-13.09,0-.59-0.08-1.18-0.08-1.78q0-65.18,0-130.36c0-9.52,4.6-15,12.28-15,4.91,0,9.81,0,14.72,0h3.23c0-5.89-.09-11.54.05-17.19a24.41,24.41,0,0,1,1.13-4.91h31.18Zm-58.2,102.08q0,31.7,0,63.4c0,8.54,2.26,11.35,9.12,11.35h67c6.86,0,9.12-2.8,9.12-11.35q0-63.22,0-126.44c0-8.54-2.26-11.35-9.12-11.35h-67c-6.86,0-9.12,2.81-9.12,11.35Q8107.38,2256.8,8107.39,2288.32Zm30.46-80.2h24.23v-16h-24.23v16Z" transform="translate(-8102.95 -2186.24)"/><path class="cls-2" d="M8164.41,2244.28l-35.91,39.05s-4.23,4.25,2,6.06,13.34,3.83,13.34,3.83l-12.93,36.89,40.64-40.27s4.39-4.65,0-6.06-15-4.5-15-4.5Z" transform="translate(-8102.95 -2186.24)"/></svg>