<svg id="Logo" xmlns="http://www.w3.org/2000/svg" viewBox="0 0 126.84 191.04"><defs><style>.cls-1{fill:#fff;}</style></defs><title>camera</title><path class="cls-1" d="M9233.34,3134q0-28.33,0-56.65c0-11.76,5.56-18,16-18q25.76,0,51.51,0c10.3,0,16,6.22,16.06,17.67q0.09,57,0,114.07c0,11.43-5.8,17.62-16.1,17.63q-25.76,0-51.51,0c-10.31,0-16-6.26-16-17.67Q9233.3,3162.47,9233.34,3134Zm21.28-46.11a48,48,0,0,0,6.78-.7c3.68-.89,6.16-4.54,6.19-8.55s-2.55-8.17-6.41-8.63a56.93,56.93,0,0,0-13.27,0c-3.79.45-6.2,4.17-6.31,8.29s2.3,8,6.16,8.9A48.71,48.71,0,0,0,9254.62,3087.84Z" transform="translate(-9190.16 -3017.63)"/><path class="cls-1" d="M9215.17,3087.31l11.68-1.73v6l-25.48,4.19,17.86-23.94-22.54-17.61c6.28-.85,11.76-1.61,17.24-2.34,3.85-.51,7.7-1.19,11.58-1.39,2.68-.14,3.45-1.32,3.67-3.75,0.82-9,1.8-18,2.73-27,0-.44.14-0.87,0.35-2.08l20,27.2L9275,3032.7l-3.89,12.27c-0.31,1-.64,2-1,2.93-1.63,5-1.63,5-7.47,4.35l1.85-7.12-14,7.41-14.08-19.08c-0.65,6.45-1.4,11.86-1.67,17.28-0.17,3.46-1.24,5-4.95,5.2-5.77.36-11.5,1.4-18.22,2.28l15.86,12.4Z" transform="translate(-9190.16 -3017.63)"/><circle class="cls-1" cx="59.92" cy="61.07" r="4.52"/><circle class="cls-1" cx="70.14" cy="61.62" r="2.26"/><polyline class="cls-1" points="55.39 18.04 66.36 1.2 62.14 27.2"/><polyline class="cls-1" points="17.1 44.78 0 61.62 26.26 51.94"/><polygon class="cls-1" points="38.08 32.48 23.78 34.2 13.13 6.72 39.86 20.46 40.47 29.34 38.08 32.48"/></svg>