<svg id="Logo" xmlns="http://www.w3.org/2000/svg" viewBox="0 0 173.26 208.87"><defs><style>.cls-1{fill:#fff;}.cls-2{fill:none;stroke:#fff;stroke-miterlimit:10;stroke-width:6px;}</style></defs><title>carrier-unlock</title><path class="cls-1" d="M8668.55,5042.42l5.77-6a11.64,11.64,0,0,0,1.45-.84c19.36-15.1,48.31-8.51,59.18,13.47,9.43,19.09,2.68,41.32-16,52.22a3.68,3.68,0,0,0-2.12,3.83q0.37,12.45.44,24.92a5.53,5.53,0,0,1-1.32,3.37c-2.57,2.91-5.35,5.64-8.26,8.67l10.08,9.71-9.65,10,10,9.6L8702,5188.1l-16.9-16.29a7.28,7.28,0,0,0,.17-1.18q-0.6-32.83-1.27-65.65a4.73,4.73,0,0,0-1.51-2.68,11.12,11.12,0,0,0-2.5-1.48,39.26,39.26,0,0,1-13.75-54.68C8667,5044.89,8667.78,5043.66,8668.55,5042.42Zm40.84,17.65a13.86,13.86,0,1,0-19.61.21A13.61,13.61,0,0,0,8709.39,5060.07Z" transform="translate(-8613.15 -4979.22)"/><path class="cls-1" d="M8783.41,5065.85a83.3,83.3,0,0,1-22.63,57.18l-11.85-14.13a65.34,65.34,0,1,0-95.42,3.11l-10.4,15.33A83.62,83.62,0,1,1,8783.41,5065.85Z" transform="translate(-8613.15 -4979.22)"/><path class="cls-2" d="M8634.42,5065.85a65.36,65.36,0,1,1,114.51,43l11.85,14.13a83.62,83.62,0,1,0-117.67,4.3l10.4-15.33A65.18,65.18,0,0,1,8634.42,5065.85Z" transform="translate(-8613.15 -4979.22)"/></svg>