<svg id="Logo" xmlns="http://www.w3.org/2000/svg" viewBox="0 0 153.74 180.12"><defs><style>.cls-1{fill:#fff;}</style></defs><title>clean-up-services</title><path class="cls-1" d="M9188.11,6817.14c3.21-1.66,6.46-3.25,9.63-5,12.39-6.78,22.37-15.75,26.61-29.79,0.53-1.75.72-3.61,1.11-5.64l-5.43-.34v-17h25.78V6637h17.59q0,45.72-.1,91.44c0,10.07,0,20.15,0,30.69h25.83V6776a1.69,1.69,0,0,1-.58.4c-5.15.53-4.71,0.6-5.63,5.77a113.12,113.12,0,0,1-4.93,19.62c-2.77,7.44-8.75,12.24-16,15.38h-73.88Zm69.09-58V6643h-5.34v116.17h5.34Zm-46.73,53.39c16.09,2.27,35.57-19.45,33.67-35.71H9231.3C9229.69,6791.34,9221.95,6803.51,9210.48,6812.52Zm67.05-35.77h-11.39c-0.86,13-6.41,26.89-17,36.1,8.62,1,15.22-2,19.43-7.09C9275.48,6797.42,9277.32,6787.45,9277.53,6776.75Zm-17.67-.21a45.16,45.16,0,0,1-5.71,0c-3.13-.41-3.9,1-4.18,3.89a37.86,37.86,0,0,1-12.17,24.93c-2.07,1.92-6.17,5.65-8.48,7.71C9244.22,6815.64,9260.53,6798,9259.87,6776.55Zm-34.17-6.05h57.64v-5.19H9225.7v5.19Z" transform="translate(-9188.11 -6637.02)"/><rect class="cls-1" x="119.33" y="139.68" width="5.36" height="5.48"/><rect class="cls-1" x="107.82" y="139.77" width="5.38" height="5.42"/><rect class="cls-1" x="130.95" y="139.73" width="5.39" height="5.5"/><rect class="cls-1" x="148.3" y="151.39" width="5.44" height="5.36"/><rect class="cls-1" x="102.01" y="162.9" width="5.41" height="5.45"/><rect class="cls-1" x="113.51" y="162.88" width="5.25" height="5.46"/><rect class="cls-1" x="125.19" y="162.91" width="5.38" height="5.42"/><rect class="cls-1" x="101.97" y="151.47" width="5.36" height="5.19"/><rect class="cls-1" x="113.6" y="151.37" width="5.26" height="5.36"/><rect class="cls-1" x="125.17" y="151.4" width="5.53" height="5.23"/><rect class="cls-1" x="136.68" y="151.39" width="5.38" height="5.25"/></svg>