<svg id="Logo" xmlns="http://www.w3.org/2000/svg" viewBox="0 0 351.89 351.94"><defs><style>.cls-1{fill:#1c1c1c;}.cls-2{fill:none;stroke:#1c1c1c;stroke-miterlimit:10;stroke-width:5px;}</style></defs><title>contact-hero-logo</title><path class="cls-1" d="M5320.82,4871.85a15.32,15.32,0,0,1,3.65.48,27.55,27.55,0,0,1,21.15,23.86,25.13,25.13,0,0,1-1.16,11.5,1.63,1.63,0,0,0,.53,2q27.79,27.74,55.52,55.51a1.7,1.7,0,0,0,2,.48,27.75,27.75,0,0,1,36.09,29.82c-0.36,2.84-1.37,5.6-2.18,8.76-0.75-.7-1.14-1-1.5-1.41q-8.44-8.43-16.87-16.86c-3.88-3.85-9-4.23-13-1a9.16,9.16,0,0,0-1.61,12.42,18,18,0,0,0,1.81,2.08q8.21,8.24,16.46,16.45a12.24,12.24,0,0,0,1.51,1.07,26.32,26.32,0,0,1-12.77,2.92c-14.71-.5-25.86-11.22-27.17-25.94a26,26,0,0,1,1.27-10.44,1.6,1.6,0,0,0-.44-1.91q-27.83-27.79-55.62-55.64a1.69,1.69,0,0,0-2-.44c-14.57,4.94-32.32-3.91-35.83-21.1-1.14-5.6-.16-12.77,2.36-17.18,0.39,0.37.77,0.71,1.13,1.08q8.44,8.43,16.87,16.85c3.89,3.86,9,4.22,13,1a9.23,9.23,0,0,0,1.56-12.45,17.41,17.41,0,0,0-1.71-2q-8.21-8.24-16.45-16.45c-0.37-.37-0.85-0.3-1.48-0.76a19.93,19.93,0,0,1,10-2.69h4.95Z" transform="translate(-5183.44 -4774.76)"/><path class="cls-1" d="M5288,5004.69c0-4.54,4.37-7.74,7.49-10.84,14.1-14,28.61-28.08,42.66-42.14,0.37-.37.91-0.84,1.18-1.18,6.71,6.73,13.35,13.27,19.92,19.86-0.2.21-.46,0.56-0.8,0.9q-22,22.06-44.07,44.11c-4.14,4.14-9,5.77-14.7,4-5.19-1.66-9.23-5.36-10.43-10.64-0.08-.37-1.25-0.74-1.25-1.11v-2.91Z" transform="translate(-5183.44 -4774.76)"/><path class="cls-1" d="M5429.32,4871.85c2.67,2,5.34,5.12,8,7.83a18.1,18.1,0,0,0,1.66,1.2c-3.52,6.8-6.88,13.25-10.3,19.76a3.23,3.23,0,0,1-1.42,1.1c-5.79,3-11.61,6-17.39,9a10.73,10.73,0,0,0-2.54,1.86q-11,10.91-21.9,21.88c-0.37.37-.76,0.72-1,1l-9.8-9.75c0.24-.26.58-0.65,0.95-1q11-11,22-22a10.33,10.33,0,0,0,1.79-2.43c3-5.78,6-11.6,9.07-17.37a4,4,0,0,1,1.87-1.51c6.23-3.32,12.5-7.51,18.75-9.51h0.29Z" transform="translate(-5183.44 -4774.76)"/><circle class="cls-2" cx="175.93" cy="175.82" r="134.29"/><path class="cls-1" d="M5369.94,4778.43a4.49,4.49,0,0,0-3.93,1.68,8.69,8.69,0,0,0-1.61,5.13q-0.33,6.94,4.87,7.19a16.48,16.48,0,0,0,5.34-.84l-0.18,3.69a14.71,14.71,0,0,1-5.75.79q-4.52-.22-6.79-3.08t-2-8a12.88,12.88,0,0,1,1.45-5.61,8.52,8.52,0,0,1,3.56-3.57,10,10,0,0,1,5.23-1,14,14,0,0,1,6,1.75l-1.59,3.51a23.63,23.63,0,0,0-2.29-1.08A7,7,0,0,0,5369.94,4778.43Z" transform="translate(-5183.44 -4774.76)"/><path class="cls-1" d="M5390.05,4798.42l-11.81-1.86,3.23-20.51,11.81,1.86-0.56,3.56-7.46-1.18-0.71,4.5,6.94,1.09-0.56,3.56-6.94-1.09-0.83,5.29,7.46,1.18Z" transform="translate(-5183.44 -4774.76)"/><path class="cls-1" d="M5400.14,4792.67l-2.11,7.68-4.25-1.17,5.5-20,5.83,1.6q4.08,1.12,5.63,3.14a6.15,6.15,0,0,1-1.12,7.93,6.68,6.68,0,0,1-3.34,1.4q2.67,8,3.49,10.34l-4.71-1.29-2.67-9Zm0.95-3.45,1.37,0.38a5.43,5.43,0,0,0,3.16.14,2.48,2.48,0,0,0,1.54-1.85,2.27,2.27,0,0,0-.42-2.3,6.16,6.16,0,0,0-2.87-1.44l-1.29-.35Z" transform="translate(-5183.44 -4774.76)"/><path class="cls-1" d="M5419.09,4807.42l-4.09-1.64,6.36-15.87-5.23-2.1,1.36-3.4,14.55,5.83-1.36,3.4-5.23-2.1Z" transform="translate(-5183.44 -4774.76)"/><path class="cls-1" d="M5426.76,4810.87l9.3-18.56,3.94,2-9.3,18.56Z" transform="translate(-5183.44 -4774.76)"/><path class="cls-1" d="M5438.68,4817.31l-3.71-2.24,10.75-17.76,10.18,6.16-1.87,3.09-6.47-3.92-2.77,4.58,6,3.65-1.86,3.07-6-3.65Z" transform="translate(-5183.44 -4774.76)"/><path class="cls-1" d="M5448.15,4823.42l12.14-16.84,3.57,2.57L5451.72,4826Z" transform="translate(-5183.44 -4774.76)"/><path class="cls-1" d="M5464.7,4836.61l-9.11-7.75L5469,4813l9.11,7.75-2.34,2.75-5.75-4.9-3,3.47,5.35,4.56-2.34,2.75-5.35-4.56-3.47,4.08,5.75,4.9Z" transform="translate(-5183.44 -4774.76)"/><path class="cls-1" d="M5487,4844.55q-3.76,3.49-7.74,3.2t-7.73-4.32l-4-4.31,15.22-14.13,4.44,4.78q3.46,3.73,3.41,7.61A9.87,9.87,0,0,1,5487,4844.55Zm-3.19-3.27q4.9-4.55.88-8.88l-1.59-1.72-9.91,9.2,1.29,1.38Q5478.75,4845.93,5483.76,4841.28Z" transform="translate(-5183.44 -4774.76)"/><path class="cls-1" d="M5497.38,4867.68a5.37,5.37,0,0,1-4.81.76,8.8,8.8,0,0,1-4.46-3.8,13.23,13.23,0,0,1-2.2-5.59l3.41-2.26a24.2,24.2,0,0,0,.86,3.7,10.5,10.5,0,0,0,1.15,2.43,3.79,3.79,0,0,0,1.69,1.55,1.89,1.89,0,0,0,1.8-.26,1.81,1.81,0,0,0,.72-0.88,3.8,3.8,0,0,0,.21-1.34,25.77,25.77,0,0,0-.31-3,12.8,12.8,0,0,1-.14-3.33,6.45,6.45,0,0,1,.76-2.33,5.47,5.47,0,0,1,1.82-1.88,5.37,5.37,0,0,1,4.64-.83,7.76,7.76,0,0,1,4.16,3.44,12.2,12.2,0,0,1,1.38,2.79,21.34,21.34,0,0,1,.8,3.16l-3.64.7a20.81,20.81,0,0,0-.72-2.82,8.85,8.85,0,0,0-1-1.93,2.83,2.83,0,0,0-1.54-1.28,1.92,1.92,0,0,0-1.64.28,1.88,1.88,0,0,0-.7.79,3,3,0,0,0-.22,1.18,26.37,26.37,0,0,0,.33,3.13,11.11,11.11,0,0,1-.13,4.87A5.45,5.45,0,0,1,5497.38,4867.68Z" transform="translate(-5183.44 -4774.76)"/><path class="cls-1" d="M5498.16,4881.33l12.51-11.57-0.06-.11q-4.36,2.4-5.86,3.12l-8.7,4.19-1.71-3.54,18.71-9,2.6,5.4-12.17,11.31,0,0.08,16.57-2.19,2.6,5.4-18.71,9-1.78-3.7,8.86-4.26,1.46-.68q0.83-.37,4.43-1.92l-0.05-.12-17,2.23Z" transform="translate(-5183.44 -4774.76)"/><path class="cls-1" d="M5509.12,4909.87l4.28-2.9-2.23-7.23-5.17,0-1.4-4.53,22.08,0.86,1.59,5.14-17.75,13.18Zm7.5-5,6.57-4.49q0.76-.51,1.22-0.77-1.88.09-9.38,0.08Z" transform="translate(-5183.44 -4774.76)"/><path class="cls-1" d="M5519.42,4919.34l-7.84,1.39-0.77-4.33,20.44-3.63,1.06,6q0.74,4.17-.42,6.44a6.14,6.14,0,0,1-7.64,2.39,6.67,6.67,0,0,1-2.7-2.42q-6.07,5.84-7.84,7.59l-0.85-4.81,7-6.27Zm3.52-.63,0.25,1.4a5.43,5.43,0,0,0,1.22,2.91,2.49,2.49,0,0,0,2.33.6,2.27,2.27,0,0,0,1.89-1.37,6.16,6.16,0,0,0,.07-3.21l-0.23-1.31Z" transform="translate(-5183.44 -4774.76)"/><path class="cls-1" d="M5514.25,4942.82l-0.28-4.39,17.07-1.08-0.36-5.63,3.66-.23,1,15.65-3.66.23-0.36-5.63Z" transform="translate(-5183.44 -4774.76)"/><path class="cls-1" d="M5528.19,4966.08a6.35,6.35,0,0,1-5-2.32,9,9,0,0,1-1.51-6l0.08-1.89-7.38-.33,0.2-4.4,20.74,0.93-0.3,6.63a8.82,8.82,0,0,1-1.88,5.67A5.93,5.93,0,0,1,5528.19,4966.08Zm-2.85-10.08-0.06,1.45a4.83,4.83,0,0,0,.67,3.07,2.81,2.81,0,0,0,2.29,1.11,2.88,2.88,0,0,0,2.32-.74,4,4,0,0,0,.86-2.61l0.09-2Z" transform="translate(-5183.44 -4774.76)"/><path class="cls-1" d="M5510.71,4985.5l0.75-4.33,8.83,1.52,1.4-8.1-8.83-1.52,0.75-4.34,20.46,3.53-0.75,4.34-8-1.38-1.4,8.1,8,1.38-0.75,4.32Z" transform="translate(-5183.44 -4774.76)"/><path class="cls-1" d="M5513.75,5011.06q-4.9-1.59-6.75-4.88t-0.37-7.83q1.47-4.54,4.89-6.12t8.35,0q4.93,1.6,6.74,4.88t0.33,7.83q-1.48,4.55-4.88,6.12T5513.75,5011.06Zm4.67-14.42a8.68,8.68,0,0,0-5.39-.36,4.62,4.62,0,0,0-2.89,3.21q-1.62,5,5,7.17t8.29-2.82a4.65,4.65,0,0,0-.46-4.31A8.65,8.65,0,0,0,5518.42,4996.64Z" transform="translate(-5183.44 -4774.76)"/><path class="cls-1" d="M5494.25,5027.66l2.49-5,18.08-1.11,0.06-.11q-3.85-1.61-5.44-2.4l-8.75-4.34,1.75-3.52,18.6,9.23-2.47,5-17.94,1.17,0,0.09q3.72,1.61,5.22,2.35l8.8,4.37-1.76,3.55Z" transform="translate(-5183.44 -4774.76)"/><path class="cls-1" d="M5485.14,5041.51l6.61-10L5509,5043l-6.61,10-3-2,4.17-6.3-3.8-2.52-3.89,5.86-3-2,3.88-5.86-4.46-3-4.18,6.3Z" transform="translate(-5183.44 -4774.76)"/><path class="cls-1" d="M5481.21,5058.92l-5.87-5.39,3-3.24,15.29,14-4.09,4.46q-2.86,3.12-5.37,3.57a6.14,6.14,0,0,1-6.54-4.62,6.68,6.68,0,0,1,.28-3.62q-8.33-1.28-10.79-1.62l3.3-3.6,9.22,1.74Zm2.64,2.42-1,1a5.44,5.44,0,0,0-1.57,2.74,2.49,2.49,0,0,0,.94,2.21,2.27,2.27,0,0,0,2.24.67,6.16,6.16,0,0,0,2.59-1.89l0.9-1Z" transform="translate(-5183.44 -4774.76)"/><path class="cls-1" d="M5456.44,5071.66l9-7.86,13.65,15.64-9,7.86-2.37-2.72,5.69-5-3-3.43-5.3,4.62-2.37-2.72,5.3-4.62-3.52-4-5.69,5Z" transform="translate(-5183.44 -4774.76)"/><path class="cls-1" d="M5449.88,5093.94a6.35,6.35,0,0,1-1.22-5.4,9,9,0,0,1,3.87-4.87l1.55-1.08-4.23-6.05,3.61-2.52,11.9,17-5.44,3.8a8.82,8.82,0,0,1-5.64,2A5.93,5.93,0,0,1,5449.88,5093.94Zm6.26-8.4-1.19.83a4.83,4.83,0,0,0-2,2.4,2.81,2.81,0,0,0,.51,2.49,2.88,2.88,0,0,0,2,1.39,4,4,0,0,0,2.59-.91l1.64-1.15Z" transform="translate(-5183.44 -4774.76)"/><path class="cls-1" d="M5427.63,5089.94l3.66,3.65L5438,5090l-1-5.07,4.18-2.23,3.36,21.84-4.75,2.54-16.31-14.93Zm6.32,6.41,5.65,5.6q0.65,0.65,1,1-0.44-1.82-1.87-9.19Z" transform="translate(-5183.44 -4774.76)"/><path class="cls-1" d="M5421.34,5092.77l8,19.15-4.06,1.7-8-19.15Z" transform="translate(-5183.44 -4774.76)"/><path class="cls-1" d="M5411.08,5105.24l-2.4-7.6,4.2-1.33,6.27,19.79-5.77,1.83q-4,1.28-6.44.42a6.14,6.14,0,0,1-3.37-7.26,6.67,6.67,0,0,1,2-3q-6.58-5.26-8.55-6.78l4.66-1.47,7.13,6.1Zm1.08,3.41-1.35.43a5.43,5.43,0,0,0-2.73,1.59,2.48,2.48,0,0,0-.29,2.38,2.28,2.28,0,0,0,1.6,1.7,6.17,6.17,0,0,0,3.19-.35l1.27-.4Z" transform="translate(-5183.44 -4774.76)"/><path class="cls-1" d="M5390.66,5113.35a4.81,4.81,0,0,1-.49,3.47,4.5,4.5,0,0,1-6,1,5.75,5.75,0,0,1-1.08-6.59,4.44,4.44,0,0,1,5.94-1A4.83,4.83,0,0,1,5390.66,5113.35Z" transform="translate(-5183.44 -4774.76)"/><path class="cls-1" d="M5361.71,5123a4.49,4.49,0,0,0,3.8-2,8.69,8.69,0,0,0,1.23-5.24q-0.18-6.94-5.39-6.81a16.49,16.49,0,0,0-5.27,1.23l-0.09-3.69a14.72,14.72,0,0,1,5.68-1.21,8.71,8.71,0,0,1,7,2.57q2.47,2.69,2.6,7.83a12.89,12.89,0,0,1-1,5.7,8.51,8.51,0,0,1-3.29,3.82,10,10,0,0,1-5.14,1.43,14,14,0,0,1-6.11-1.31l1.33-3.61a23.9,23.9,0,0,0,2.37.91A7,7,0,0,0,5361.71,5123Z" transform="translate(-5183.44 -4774.76)"/><path class="cls-1" d="M5340.17,5104.59l11.92,1-1.69,20.69-11.92-1,0.29-3.6,7.53,0.62,0.37-4.54-7-.57,0.29-3.59,7,0.57,0.44-5.34-7.53-.62Z" transform="translate(-5183.44 -4774.76)"/><path class="cls-1" d="M5330.55,5111.08l1.52-7.82,4.32,0.84-4,20.38-5.94-1.16q-4.15-.81-5.85-2.71a6.14,6.14,0,0,1,.51-8,6.68,6.68,0,0,1,3.23-1.65q-3.26-7.77-4.26-10l4.79,0.93,3.34,8.77Zm-0.68,3.51-1.39-.27a5.43,5.43,0,0,0-3.16.09,2.48,2.48,0,0,0-1.39,2,2.27,2.27,0,0,0,.59,2.26,6.16,6.16,0,0,0,3,1.21l1.31,0.26Z" transform="translate(-5183.44 -4774.76)"/><path class="cls-1" d="M5310.53,5097.8l4.2,1.33-5.15,16.31,5.38,1.7-1.1,3.49-15-4.72,1.1-3.49,5.38,1.7Z" transform="translate(-5183.44 -4774.76)"/><path class="cls-1" d="M5278.73,5107.08l5.57-12.22a7.75,7.75,0,0,1,2.61-3.24,6.7,6.7,0,0,1,3.81-1.18,10.65,10.65,0,0,1,4.57,1.07,8.81,8.81,0,0,1,4.81,4.45,7.28,7.28,0,0,1-.31,6l-5.55,12.17-4-1.82,5.27-11.56a5.32,5.32,0,0,0,.58-3.61,4,4,0,0,0-2.44-2.35,3.93,3.93,0,0,0-3.32-.27,5.36,5.36,0,0,0-2.36,2.82l-5.26,11.54Z" transform="translate(-5183.44 -4774.76)"/><path class="cls-1" d="M5279.75,5083.66l3.7,2.25-10.79,17.74-10.17-6.19,1.88-3.08,6.47,3.94,2.78-4.57-6-3.66,1.87-3.07,6,3.66Z" transform="translate(-5183.44 -4774.76)"/><path class="cls-1" d="M5244.26,5083.75l8.29-10.57a7.74,7.74,0,0,1,3.3-2.54,6.7,6.7,0,0,1,4-.25,10.63,10.63,0,0,1,4.19,2.11,8.81,8.81,0,0,1,3.63,5.45,7.28,7.28,0,0,1-1.72,5.79l-8.25,10.53-3.45-2.71,7.84-10a5.32,5.32,0,0,0,1.41-3.37,4,4,0,0,0-1.82-2.85,3.92,3.92,0,0,0-3.16-1,5.36,5.36,0,0,0-3,2.19l-7.82,10Z" transform="translate(-5183.44 -4774.76)"/><path class="cls-1" d="M5245.34,5055.84l8.47,8.44-14.66,14.7-8.47-8.44,2.55-2.55,5.35,5.33,3.22-3.23-5-5,2.55-2.55,5,5,3.78-3.79-5.35-5.33Z" transform="translate(-5183.44 -4774.76)"/><path class="cls-1" d="M5223.78,5046.17q4-3.18,8-2.58t7.37,4.92l3.65,4.61L5226.48,5066l-4-5.11q-3.16-4-2.8-7.86A9.88,9.88,0,0,1,5223.78,5046.17Zm2.93,3.52q-5.25,4.15-1.58,8.78l1.45,1.84,10.6-8.39-1.17-1.48Q5232.06,5045.44,5226.71,5049.68Z" transform="translate(-5183.44 -4774.76)"/><path class="cls-1" d="M5215.22,5022.3a5.37,5.37,0,0,1,4.86-.37,8.79,8.79,0,0,1,4.14,4.14,13.23,13.23,0,0,1,1.75,5.75l-3.58,2a24.2,24.2,0,0,0-.57-3.75,10.51,10.51,0,0,0-1-2.52,3.78,3.78,0,0,0-1.56-1.68,1.89,1.89,0,0,0-1.82.12,1.82,1.82,0,0,0-.79.82,3.81,3.81,0,0,0-.32,1.32,25.84,25.84,0,0,0,.07,3,12.74,12.74,0,0,1-.12,3.33,6.45,6.45,0,0,1-.94,2.26,5.48,5.48,0,0,1-2,1.73,5.37,5.37,0,0,1-4.69.46,7.76,7.76,0,0,1-3.88-3.75,12.2,12.2,0,0,1-1.16-2.89,21.24,21.24,0,0,1-.54-3.21l3.68-.41a20.76,20.76,0,0,0,.5,2.87,8.86,8.86,0,0,0,.8,2,2.83,2.83,0,0,0,1.44,1.4,1.92,1.92,0,0,0,1.65-.15,1.88,1.88,0,0,0,.76-0.73,3,3,0,0,0,.32-1.16,26.45,26.45,0,0,0-.08-3.15,11.11,11.11,0,0,1,.51-4.84A5.45,5.45,0,0,1,5215.22,5022.3Z" transform="translate(-5183.44 -4774.76)"/><path class="cls-1" d="M5215.52,5008.62l-13.39,10.54,0,0.12q4.54-2,6.09-2.64l9-3.48,1.42,3.67-19.37,7.49-2.16-5.59,13-10.31,0-.08-16.69.86-2.16-5.59,19.37-7.49,1.48,3.83-9.17,3.54-1.5.56q-0.85.31-4.57,1.56l0,0.12,17.1-.87Z" transform="translate(-5183.44 -4774.76)"/><path class="cls-1" d="M5206.88,4979.32l-4.5,2.54,1.65,7.39,5.15,0.39,1,4.63-21.94-2.61-1.17-5.25,18.75-11.72Zm-7.87,4.37-6.9,3.95q-0.8.45-1.28,0.67,1.88,0.06,9.36.66Z" transform="translate(-5183.44 -4774.76)"/><path class="cls-1" d="M5197.36,4969l7.93-.77,0.42,4.38-20.67,2-0.58-6q-0.41-4.21.93-6.38a6.15,6.15,0,0,1,7.8-1.78,6.68,6.68,0,0,1,2.5,2.63q6.52-5.34,8.42-7l0.47,4.86-7.45,5.7Zm-3.56.34-0.14-1.41a5.44,5.44,0,0,0-1-3,2.48,2.48,0,0,0-2.27-.78,2.27,2.27,0,0,0-2,1.21,6.16,6.16,0,0,0-.32,3.19l0.13,1.33Z" transform="translate(-5183.44 -4774.76)"/><path class="cls-1" d="M5204.36,4946.06l-0.07,4.4-17.1-.28-0.09,5.64-3.66-.06,0.25-15.68,3.66,0.06-0.09,5.64Z" transform="translate(-5183.44 -4774.76)"/><path class="cls-1" d="M5192.29,4921.76a6.35,6.35,0,0,1,4.83,2.71,9,9,0,0,1,1,6.13l-0.23,1.87,7.33,0.91-0.54,4.37-20.61-2.56,0.82-6.58a8.83,8.83,0,0,1,2.32-5.5A5.93,5.93,0,0,1,5192.29,4921.76Zm2,10.27,0.18-1.44a4.82,4.82,0,0,0-.42-3.12,2.81,2.81,0,0,0-2.19-1.29,2.88,2.88,0,0,0-2.37.56,4,4,0,0,0-1.06,2.54l-0.25,2Z" transform="translate(-5183.44 -4774.76)"/><path class="cls-1" d="M5211.25,4903.79l-1.09,4.25-8.68-2.22-2,8,8.68,2.22-1.09,4.27-20.12-5.15,1.09-4.27,7.88,2,2-8-7.88-2,1.09-4.25Z" transform="translate(-5183.44 -4774.76)"/><path class="cls-1" d="M5210.27,4878.05q4.76,2,6.34,5.4t-0.25,7.83q-1.83,4.41-5.37,5.71t-8.33-.69q-4.79-2-6.33-5.4t0.29-7.84q1.83-4.42,5.35-5.71T5210.27,4878.05Zm-5.81,14a8.68,8.68,0,0,0,5.35.79,4.62,4.62,0,0,0,3.14-3q2-4.87-4.45-7.55t-8.49,2.15a4.65,4.65,0,0,0,.11,4.34A8.64,8.64,0,0,0,5204.46,4892.05Z" transform="translate(-5183.44 -4774.76)"/><path class="cls-1" d="M5231,4863.05l-2.88,4.8-18.12-.33-0.07.11q3.71,1.91,5.23,2.82l8.38,5-2,3.37-17.81-10.68,2.86-4.76,18,0.26,0.05-.09q-3.58-1.9-5-2.76l-8.43-5.05,2-3.4Z" transform="translate(-5183.44 -4774.76)"/><path class="cls-1" d="M5241.2,4850l-7.37,9.41-16.34-12.81,7.37-9.41,2.84,2.22-4.66,5.95,3.59,2.81,4.34-5.53,2.84,2.22-4.34,5.53,4.21,3.3,4.66-5.95Z" transform="translate(-5183.44 -4774.76)"/><path class="cls-1" d="M5246.49,4832.93l5.43,5.83-3.22,3-14.14-15.21,4.43-4.12q3.1-2.88,5.64-3.14a6.14,6.14,0,0,1,6.15,5.12,6.67,6.67,0,0,1-.57,3.58q8.2,1.94,10.63,2.47l-3.58,3.33-9.06-2.46Zm-2.44-2.62,1-1a5.44,5.44,0,0,0,1.78-2.61,2.48,2.48,0,0,0-.76-2.28,2.27,2.27,0,0,0-2.18-.85,6.15,6.15,0,0,0-2.73,1.68l-1,.91Z" transform="translate(-5183.44 -4774.76)"/><path class="cls-1" d="M5272.17,4822.18l-9.6,7.13-12.38-16.67,9.6-7.13,2.15,2.9-6.07,4.5,2.72,3.66,5.64-4.19,2.15,2.9-5.64,4.19,3.19,4.3,6.07-4.5Z" transform="translate(-5183.44 -4774.76)"/><path class="cls-1" d="M5280.49,4800.49a6.35,6.35,0,0,1,.79,5.48,9,9,0,0,1-4.24,4.55l-1.63,1,3.74,6.37-3.8,2.23-10.51-17.91,5.72-3.36a8.83,8.83,0,0,1,5.78-1.51A5.93,5.93,0,0,1,5280.49,4800.49Zm-6.9,7.88,1.25-.73a4.83,4.83,0,0,0,2.21-2.23,2.81,2.81,0,0,0-.31-2.52,2.88,2.88,0,0,0-1.89-1.54,4,4,0,0,0-2.66.7l-1.73,1Z" transform="translate(-5183.44 -4774.76)"/><path class="cls-1" d="M5302.34,4806.24l-3.35-3.93-6.94,3,0.59,5.13-4.35,1.89-1.61-22,4.93-2.15,15.07,16.18Zm-5.79-6.9-5.19-6q-0.59-.7-0.9-1.12,0.3,1.85,1.13,9.31Z" transform="translate(-5183.44 -4774.76)"/><path class="cls-1" d="M5308.84,4803.92l-6.48-19.73,4.18-1.37,6.48,19.73Z" transform="translate(-5183.44 -4774.76)"/><path class="cls-1" d="M5320.07,4792.3l1.79,7.76-4.29,1-4.67-20.23,5.9-1.36q4.12-1,6.45.09a6.14,6.14,0,0,1,2.78,7.51,6.68,6.68,0,0,1-2.28,2.82q6.14,5.77,8,7.44l-4.76,1.1-6.62-6.65Zm-0.8-3.49,1.38-.32a5.43,5.43,0,0,0,2.85-1.37,2.48,2.48,0,0,0,.48-2.35,2.27,2.27,0,0,0-1.46-1.82,6.16,6.16,0,0,0-3.21.1l-1.3.3Z" transform="translate(-5183.44 -4774.76)"/><path class="cls-1" d="M5341.06,4785.85a4.82,4.82,0,0,1,.76-3.42,4.5,4.5,0,0,1,6-.5,5.74,5.74,0,0,1,.56,6.65,4.43,4.43,0,0,1-6,.51A4.82,4.82,0,0,1,5341.06,4785.85Z" transform="translate(-5183.44 -4774.76)"/></svg>