<svg id="Logo" xmlns="http://www.w3.org/2000/svg" viewBox="0 0 678.33 342.61"><defs><style>.cls-1{opacity:0.08;}.cls-2{fill:#1c1c1c;}</style></defs><title>contact-card-background</title><g class="cls-1"><path class="cls-2" d="M315.16,97.85c1.13,0,2.28,1,3.4,1.3,10.69,2.85,15.81,12.46,13.4,24.37A32.74,32.74,0,0,1,327,135.28a1.63,1.63,0,0,0-.13,2.08q18.85,27.86,37.64,55.8a1.4,1.4,0,0,0,1.86.51c21.46-6.24,35.64,9.73,26.51,30-1.29,2.85-3.21,5.63-5.05,8.81-0.52-.71-0.8-1-1-1.41-3.81-5.64-7.61-11.3-11.44-16.93-2.64-3.87-7.69-4.25-12.7-1-4.72,3.05-7.25,8.57-5.67,12.48a11.45,11.45,0,0,0,1.14,2.09q5.56,8.28,11.16,16.52a7.65,7.65,0,0,0,1.16,1.07,32.23,32.23,0,0,1-13.78,2.93c-14.61-.5-22.31-11.26-18.82-26a33.49,33.49,0,0,1,4.69-10.48,1.51,1.51,0,0,0,.18-1.91Q323.83,181.81,305,153.85c-0.44-.66-1-0.73-1.9-0.44-16.24,5-31.18-3.93-29.09-21.19A35.14,35.14,0,0,1,282,115c0.27,0.37.54,0.72,0.78,1.08,3.81,5.64,7.61,11.3,11.45,16.93,2.65,3.88,7.68,4.24,12.7,1,4.67-3,7.21-8.63,5.63-12.5a11.11,11.11,0,0,0-1.08-2q-5.56-8.28-11.16-16.52a9.41,9.41,0,0,0-1.13-1.58c4-1.9,7.49-3.52,11-3.52h5Z"/><path class="cls-2" d="M240.62,232.9c2.11-4.56,5.92-7.78,10.06-10.89q28.09-21.1,56.09-42.32c0.5-.38.94-0.84,1.32-1.19l13.4,19.95c-0.27.21-.71,0.56-1.16,0.9l-58.68,44.3c-5.51,4.16-10.95,5.8-16.07,4-4.67-1.67-6.54-5.38-6-10.68,0-.37.06-0.74,0.09-1.12Z"/><path class="cls-2" d="M424.13,97.85c1.8,0,3.58,6,5.4,8.68a15.42,15.42,0,0,0,1.22,1.61c-5.75,6.83-11.26,13.51-16.82,20a5.36,5.36,0,0,1-1.8,1.21c-6.8,3-13.61,6.05-20.41,9.1a17,17,0,0,0-3.17,1.89q-14.59,11-29.14,22c-0.49.37-1,.73-1.35,1l-6.66-9.79c0.33-.26.8-0.66,1.29-1q14.63-11.05,29.25-22.12a16.75,16.75,0,0,0,2.59-2.44c4.94-5.8,9.82-11.65,14.78-17.45a9.35,9.35,0,0,1,2.48-2.34c7.34-3.34,14.7-10.37,22-10.37h0.29Z"/></g><g class="cls-1"><path class="cls-2" d="M89.06,34.32c7.39-12.75,17-23.89,31.24-29.37,7.4-2.84,15.5-4.73,22.54-4.74Q395-.17,647,0.05c25.94,0,37,17.07,28.52,43.2Q634,171.3,592.31,299.34c-8.57,26.35-30.78,43.2-57.18,43.23q-108.22.11-216.39,0-143,0-286,0c-17.79,0-29.49-6.69-32.36-23C-0.26,316,.12,312.06,0,308.29ZM61.43,311.85H513.37c31.1-97,62.05-189,93-290H154.44C123.38,122.85,92.47,214.85,61.43,311.85ZM600.66,151.56c-10.94-.05-22.65,8.59-26.36,19.46s2.17,19.84,13,20c11.17,0.17,23.19-8.68,26.77-19.73C617.56,160.48,611.54,151.61,600.66,151.56ZM73.34,171.15c-4.35,13.4-8.67,26.8-13.08,40.2-1.12,3.41-1.4,6.43,2.51,6.57s5.81-2.83,6.93-6.27q13-40.2,26.13-80.39c1.09-3.35,1.55-6.53-2.46-6.57-4.32,0-6,3.24-7.17,6.85C82,144.73,77.63,157.94,73.34,171.15Z"/></g></svg>