<svg id="Logo" xmlns="http://www.w3.org/2000/svg" viewBox="0 0 156.94 156.67"><defs><style>.cls-1{fill:#fff;}</style></defs><title>data-recovery</title><path class="cls-1" d="M9263.14,4174.29c2.78,0.59,5.59,1,8.33,1.79,24.77,6.73,40.31,22.67,45.89,47.62,3.66,16.38.28,31.88-8.93,46-0.5.77-1,1.52-1.54,2.29a1.39,1.39,0,0,0-.13.48l45.76,45.7L9339.68,4331l-45-45.09c-7.09,3.15-13.46,6.78-20.3,8.87-35.54,10.85-72.8-13.14-78.11-49.94-0.14-1-.45-2-0.68-2.95v-11.67c0.21-.87.47-1.73,0.61-2.61,4.05-24.24,17.54-40.87,40.48-49.6,4.71-1.8,9.85-2.48,14.79-3.68h11.67Zm-61.62,61.52a55.66,55.66,0,1,0,55.68-55.58A55.76,55.76,0,0,0,9201.53,4235.81Zm101.14,41.9-3.55,3.32,41.37,41.38,3.76-3.12Z" transform="translate(-9195.59 -4174.29)"/><rect class="cls-1" x="38.62" y="38.6" width="20.39" height="20.39"/><rect class="cls-1" x="38.62" y="64.22" width="20.39" height="20.39"/><rect class="cls-1" x="66.96" y="64.22" width="20.39" height="20.39"/></svg>