<svg id="Logo" xmlns="http://www.w3.org/2000/svg" viewBox="0 0 253.07 253.07"><defs><style>.cls-1{fill:#1c1c1c;}.cls-2,.cls-3{fill:#fff;stroke:#fff;stroke-miterlimit:10;}.cls-2{stroke-width:3px;}.cls-3{stroke-width:6px;}</style></defs><title>email-card-icon</title><circle class="cls-1" cx="126.53" cy="126.53" r="126.53"/><path class="cls-2" d="M5934.36,5999a11.16,11.16,0,0,1,3.47-6.2,10.53,10.53,0,0,1,7.05-2.39h101c4.26,0,7.61,1.65,9.48,5.55a11,11,0,0,1,1,4.58q0.1,33.26,0,66.51c0,6-4.32,10.13-10.44,10.13h-60.55c-13.47,0-26.94-.06-40.41,0-5.58,0-9.77-3.55-10.51-8.42a0.55,0.55,0,0,0-.13-0.19Q5934.36,6033.79,5934.36,5999Zm4.26-1.13c-0.13,1.21-.32,2.13-0.32,3q0,32.9,0,65.79c0,4.15,2.36,6.53,6.5,6.53q50.6,0,101.19,0c4.09,0,6.48-2.36,6.49-6.42q0-33,0-66a27.55,27.55,0,0,0-.33-2.9l-40.16,35c0.37,0.34-6.75,6-8.76,7.58a15.28,15.28,0,0,1-4.36,2.57,10.9,10.9,0,0,1-11.1-2.32C5985.77,6039,5952.17,6009.67,5938.62,5997.86Zm2.95-3.09-0.09.43c0.28,0.22.57,0.42,0.83,0.65q24,20.95,48,41.9a7.3,7.3,0,0,0,10.06,0q24-20.93,48-41.89c0.28-.24.54-0.51,0.81-0.76l-0.08-.37a35.82,35.82,0,0,0-3.73-.38q-37.66,0-75.31,0c-8.34,0-16.68,0-25,0A30.54,30.54,0,0,0,5941.57,5994.77Z" transform="translate(-5868.86 -5907.27)"/><line class="cls-3" x1="70.48" y1="163.42" x2="118.92" y2="133.46"/><line class="cls-3" x1="181.65" y1="163.42" x2="133.21" y2="133.46"/></svg>