<svg id="Logo" xmlns="http://www.w3.org/2000/svg" viewBox="0 0 169.83 110.14"><defs><style>.cls-1{fill:#fff;}</style></defs><title>iCloud-Unlock</title><path class="cls-1" d="M10443.83,4241.86a33.18,33.18,0,0,1,18.57,49.69c-6.28,10.08-15.72,15.57-27.61,15.64-33.93.21-67.87,0.14-101.82,0.05-17.44-.05-32.5-13.54-34.84-30.88-0.07-.54-0.23-1.07-0.35-1.59v-6.64c0.64-2.72,1.07-5.51,2-8.15a34.82,34.82,0,0,1,18.18-20.73,2.44,2.44,0,0,0,1.5-2.09c2.42-15.45,19.63-24.49,33.71-17.73,0.53,0.26,1.09.5,1.51,0.7,2.21-2.83,4.11-5.76,6.49-8.26,11-11.53,24.42-16.45,40.18-14.08a44.83,44.83,0,0,1,38.2,38.94C10439.9,4239.85,10440.84,4240.94,10443.83,4241.86Zm13.76,40.58c3.57-9.81,1.48-18.75-5.7-26.33a23.57,23.57,0,0,0-15.21-7.29c-3.88-.38-5.05-1.77-5.05-5.67a39.35,39.35,0,0,0-.25-4.79,37.06,37.06,0,0,0-31.1-32.34c-16-2.59-32.19,5.65-38.94,20.2-2.22,4.79-5.1,5.82-9.41,2.25-5-4.16-13.26-3.76-18.34.3a15.78,15.78,0,0,0-6.16,12.31,4.75,4.75,0,0,1-3.51,4.66,27.63,27.63,0,0,0-8.81,5.45c-10,9-11.91,24.9-4.09,35.89,5.63,7.91,13.43,11.78,23.07,11.82,16.58,0.07,33.16,0,49.74,0q24.37,0,48.75,0a32.91,32.91,0,0,0,4.29-.22C10447,4297.36,10454.11,4292,10457.59,4282.45Z" transform="translate(-10297.77 -4197.19)"/><path class="cls-1" d="M10451.89,4256.12c7.18,7.57,9.27,16.51,5.7,26.33-3.48,9.55-10.64,14.91-20.73,16.25a32.91,32.91,0,0,1-4.29.22q-24.37,0-48.75,0c-16.58,0-33.16.05-49.74,0-9.64,0-17.44-3.91-23.07-11.82-7.82-11-5.95-26.92,4.09-35.89a27.63,27.63,0,0,1,8.81-5.45,4.75,4.75,0,0,0,3.51-4.66,15.78,15.78,0,0,1,6.16-12.31c5.09-4.05,13.33-4.45,18.34-.3,4.32,3.57,7.19,2.54,9.41-2.25,6.74-14.55,23-22.79,38.94-20.2a37.06,37.06,0,0,1,31.1,32.34,39.35,39.35,0,0,1,.25,4.79c0,3.89,1.18,5.28,5.05,5.67A23.57,23.57,0,0,1,10451.89,4256.12Z" transform="translate(-10297.77 -4197.19)"/><path class="cls-1" d="M10305,4254s8.75-11.31,13.5-11.56,6.5-12.28,6.5-12.28l8.25-8.52,13.5-2.51,5.25,3.25,6.5-3.25,6.75-8.25,10-8,9-3.25,11.5-1.25,17.25,5,14.25,9.5,8,13.25,3.25,13.75s1.18,5.49,3.25,3.75l9,3.25,5.75,5.4,6.5,9.85,3.25,11.25-3.25,14.5-6,9-9.75,6.88-18,2.13H10327s-13.5-3.25-16-11C10311,4294.85,10292,4282.6,10305,4254Z" transform="translate(-10297.77 -4197.19)"/></svg>