<svg id="Logo" xmlns="http://www.w3.org/2000/svg" xmlns:xlink="http://www.w3.org/1999/xlink" viewBox="0 0 216 239"><defs><style>.cls-1,.cls-4{fill:none;}.cls-2{clip-path:url(#clip-path);}.cls-3{fill:#fff;}.cls-4{stroke:#fff;stroke-miterlimit:10;}.cls-5{fill:#8c8c8c;}.cls-6{fill:#9d9d9d;}.cls-7{fill:#787878;}.cls-8{fill:#909090;}.cls-9{fill:#a1a1a1;}.cls-10{fill:#969696;}.cls-11{fill:#8f8f8f;}.cls-12{fill:#959595;}.cls-13{fill:#8e8e8e;}.cls-14{fill:#989898;}.cls-15{fill:#848484;}.cls-16{fill:#7f7f7f;}.cls-17{fill:#737373;}.cls-18{fill:#696969;}.cls-19{fill:#828282;}.cls-20{fill:#707070;}.cls-21{fill:#7c7c7c;}.cls-22{fill:#676767;}.cls-23{fill:#868686;}.cls-24{fill:#16171f;}.cls-25{fill:#131219;}.cls-26{fill:#1e1d23;}.cls-27{fill:#2d2d2d;}.cls-28{fill:#181818;}.cls-29{fill:#171616;}.cls-30{fill:#282828;}.cls-31{fill:#303030;}.cls-32{fill:#14121a;}.cls-33{fill:#111116;}.cls-34{fill:#9c9ba2;}.cls-35{fill:#222127;}.cls-36{fill:#46454c;}.cls-37{fill:#8b8a91;}.cls-38{fill:#282930;}.cls-39{fill:#a2a0a8;}.cls-40{fill:#302f36;}.cls-41{fill:#a4a2ac;}.cls-42{fill:#0f0e16;}.cls-43{fill:#a6a5ac;}.cls-44{fill:#2c2a32;}.cls-45{fill:#aaa9b0;}.cls-46{fill:#69686f;}.cls-47{fill:#1b1b21;}.cls-48{fill:#1e2c54;}.cls-49{fill:#1b2337;}.cls-50{fill:#08080e;}.cls-51{fill:#3d3c42;}.cls-52{fill:#212026;}.cls-53{fill:#14131b;}.cls-54{fill:#28282f;}</style><clipPath id="clip-path"><rect class="cls-1" width="216" height="239"/></clipPath></defs><title>iPhone-6-icon</title><g class="cls-2"><path class="cls-3" d="M210.66,106.84a1.87,1.87,0,0,1-.54,2.08,0.48,0.48,0,0,0-.06-0.23,3.76,3.76,0,0,1,0-.49,11.11,11.11,0,0,0,0-2.61,7,7,0,0,1,0-3.54C210.25,103.65,210.37,105.26,210.66,106.84Z"/><path class="cls-3" d="M210,81.86c0.87,1.32.31,2.63,0,3.95h-0.26a0.69,0.69,0,0,0,0-.09C210.13,84.44,209.84,83.13,210,81.86Z"/><path class="cls-3" d="M209.88,81.12L210,81.86c-1.05,1.2-.27,2.62-0.47,3.93,0.12,1-.38,2.08.41,3L210.05,102c-0.81,1.06-.24,2.29-0.39,3.43l0,3.25-0.39,0-0.09.08c-0.74-.72-0.58-1.67-0.59-2.55q-0.09-11.07-.12-22.14c0-.9-0.18-1.87.61-2.59C209.36,81.66,209.61,81.55,209.88,81.12Z"/><path class="cls-3" d="M210,85.81l0,3a7.17,7.17,0,0,1-.2-2.84A0.3,0.3,0,0,0,210,85.81Z"/><path class="cls-3" d="M209.77,85.8H210a0.3,0.3,0,0,1-.25.13S209.78,85.84,209.77,85.8Z"/><path class="cls-3" d="M209.91,108.81l0.21,0.11q0.3,57.81.6,115.61L211.52,376c0,0.85,0,1.71-.05,2.56l-0.8,0-0.15,0a1.12,1.12,0,0,1-.15-0.2,7.18,7.18,0,0,1-.3-2.95Q209.36,243.68,208.66,112a9.25,9.25,0,0,1,.15-2.55,1.37,1.37,0,0,1,.41-0.6l0,0,0.44,0,0.19-.05h0Z"/><path class="cls-3" d="M210,81.86c-0.2,1.27.1,2.58-.27,3.84a0.69,0.69,0,0,1,0,.09h-0.21C209.77,84.48,209,83.06,210,81.86Z"/><path class="cls-3" d="M209.64,30.87c0.11,1.91,0,3.84,0,5.76a1,1,0,0,0-.37-0.13c-0.18-1.79.46-3.65-.42-5.39,0,1.55,0,3.11,0,4.67-0.47-1.46.13-3.07-.41-4.51a32,32,0,0,0-.82-5.43,20.68,20.68,0,0,0-2.45-6.09c-1.87-4.2-5.21-7.14-8.65-10a3.11,3.11,0,0,0-.68-0.66,4.26,4.26,0,0,0,.91.28,2.36,2.36,0,0,0-2.24-1.26,3.78,3.78,0,0,0,.72.65,4,4,0,0,0-.83-0.25,2.33,2.33,0,0,1-1-.58,1.58,1.58,0,0,0,.35-0.18c0.16-.4-1-0.52-0.21-1.05C203.75,11.51,209,19.67,209.64,30.87Z"/><path class="cls-3" d="M210.05,105.59a11.11,11.11,0,0,1,0,2.61c0-.92.25-1.87-0.37-2.71v0c0.14-1.14-.43-2.37.39-3.43A7,7,0,0,0,210.05,105.59Z"/><path class="cls-3" d="M209.67,105.49c0.62,0.84.39,1.79,0.37,2.71a1.68,1.68,0,0,1-.08.23C209.68,107.47,210.17,106.42,209.67,105.49Z"/><path class="cls-3" d="M210,108.2a3.76,3.76,0,0,0,0,.49,1.92,1.92,0,0,1-.1-0.26A1.68,1.68,0,0,0,210,108.2Z"/><path class="cls-3" d="M209.64,36.63q0.11,22.25.23,44.49l-0.74.42h0A1.14,1.14,0,0,1,208.7,81a6.24,6.24,0,0,1-.22-2.1q-0.11-19.9-.21-39.79a7.29,7.29,0,0,1,.14-1.9,1.6,1.6,0,0,1,.44-0.69v0.11l0.44,0h0.36Z"/><path class="cls-3" d="M209.64,36.63h-0.36s0-.1,0-0.15A1,1,0,0,1,209.64,36.63Z"/><path class="cls-3" d="M209.13,81.54l0.74-.42c-0.27.42-.52,0.54-0.75,0.42h0Z"/><path class="cls-3" d="M210.06,108.69a0.66,0.66,0,0,1-.15.12h0l-0.11-.06a2,2,0,0,0,.17-0.31A1.92,1.92,0,0,0,210.06,108.69Z"/><path class="cls-3" d="M209.78,85.94a7.17,7.17,0,0,0,.2,2.84c-0.79-.91-0.29-2-0.41-3A0.29,0.29,0,0,0,209.78,85.94Z"/><path class="cls-3" d="M209.79,108.74l0.11,0.06-0.19.05Z"/><path class="cls-3" d="M209.77,85.8s0,0.09,0,.14a0.29,0.29,0,0,1-.21-0.15h0.21Z"/><path class="cls-3" d="M209.67,105.49c0.5,0.93,0,2,.29,2.94a2,2,0,0,1-.17.31l-0.05,0h0l0-3.25v0Z"/><path class="cls-3" d="M209.79,108.74l-0.08.12v-0.14h0Z"/><path class="cls-3" d="M209.71,108.72v0.14l-0.44,0,0,0,0.09-.08Z"/><path class="cls-3" d="M209.27,36.49s0,0.1,0,.15l-0.1-.15h0.09Z"/><path class="cls-3" d="M209.28,36.64l-0.44,0V36.55h0a0.9,0.9,0,0,1,.33-0.06Z"/><path class="cls-3" d="M209.27,36.49h-0.09a3.06,3.06,0,0,1-.33-0.71c0-1.56,0-3.12,0-4.67C209.73,32.84,209.08,34.7,209.27,36.49Z"/><path class="cls-3" d="M209.18,36.49a0.9,0.9,0,0,0-.33.06h0c0-.26,0-0.52,0-0.77A3.06,3.06,0,0,0,209.18,36.49Z"/><path class="cls-3" d="M208.85,35.77c0,0.26,0,.52,0,0.77a1.6,1.6,0,0,0-.44.69,7.29,7.29,0,0,0-.14,1.9q0.1,19.9.21,39.79a6.24,6.24,0,0,0,.22,2.1,1.14,1.14,0,0,0,.43.52c-0.79.73-.61,1.69-0.61,2.59q0,11.07.12,22.14c0,0.88-.15,1.83.59,2.55a1.37,1.37,0,0,0-.41.6,9.25,9.25,0,0,0-.15,2.55q0.69,131.7,1.41,263.41a7.18,7.18,0,0,0,.3,2.95,1.12,1.12,0,0,0,.15.2,0.56,0.56,0,0,0-.38.05c-0.77.62-.33,1.36-0.21,2.06a9.39,9.39,0,0,1,.05,1.9c0,0.19.07,0.38,0.11,0.57a19.38,19.38,0,0,1-.17,5.31,4.85,4.85,0,0,0-.11,1.34c0,0.07,0,.14,0,0.21-1.19,1-1.22,2.38-.89,3.86-0.71.12-.86,0.84-1.17,1.35a47.38,47.38,0,0,1-2.8,4.62,19.79,19.79,0,0,1-6.1,6.07c-0.77.53-1.89,0.78-1.9,2l0.17,0.25a1.53,1.53,0,0,0-1.76-.27c-2.67,1.28-5.62,1.68-8.38,2.68a0.58,0.58,0,0,0-.14.16h0c-0.74-.69-1.68-0.53-2.56-0.53q-73.25.37-146.5,0.79a3.36,3.36,0,0,0-2.55.55l0-.09a2.4,2.4,0,0,0-1.07-.63,26.83,26.83,0,0,1-19.2-13.92c-1.41-1.85-1.66-4.23-2.78-6.22a2.3,2.3,0,0,0,.21-0.59c-0.39-2.46-.07-5-0.43-7.43-0.06-.27-0.11-0.54-0.15-0.82a7.08,7.08,0,0,0-.05-3.66,13.89,13.89,0,0,1,.28-1.54,22.25,22.25,0,0,0,.06-2.56q-0.62-117-1.26-233.94-0.06-11.3-.13-22.59,0-5.26-.06-10.51L10.52,84.52a7,7,0,0,0-.31-2.95,0.85,0.85,0,0,0-.29-0.31,1,1,0,0,0,.19-0.66c0.05-3.71-.45-7.43.23-11.12Q10.51,53.72,10.18,38c-0.07-.21-0.12-0.42-0.16-0.63l0.07-.08c1-1.56.72-3.18,0.23-4.81a0.66,0.66,0,0,0-.5-0.3V32.08h0c0.61-1,.18-2.22.6-3.27a27.82,27.82,0,0,1,3.45-9.71c0.39-.7,1.05-1.35.83-2.28a0.68,0.68,0,0,0,.39.09,2.32,2.32,0,0,0,1.16-1,20.71,20.71,0,0,1,6.51-5.7,3.84,3.84,0,0,0,.5-0.32,21.32,21.32,0,0,1,8.08-3.18,7,7,0,0,0,2.1-.65L33.5,6c0.8,0.75,1.82.54,2.77,0.54,4.84,0,9.68,0,14.52-.07q64.71-.35,129.43-0.71c1.22,0,2.55.35,3.63-.59a0.64,0.64,0,0,0,.11.14,9.82,9.82,0,0,0,2.14.63,21.26,21.26,0,0,1,5.42,1.66,2.67,2.67,0,0,0,1.84.33,2.33,2.33,0,0,0,1,.58,4,4,0,0,1,.83.25,3.8,3.8,0,0,0,.6.33h0a3.11,3.11,0,0,1,.68.66c3.44,2.84,6.78,5.77,8.65,10a20.68,20.68,0,0,1,2.45,6.09,32,32,0,0,1,.82,5.43C209,32.7,208.38,34.32,208.85,35.77Z"/><path class="cls-3" d="M196.74,9.39a4.26,4.26,0,0,1-.91-0.28h0a3,3,0,0,0-.6-0.33,3.78,3.78,0,0,1-.72-0.65A2.36,2.36,0,0,1,196.74,9.39Z"/><path class="cls-3" d="M195.22,8.77a3,3,0,0,1,.6.33A3.8,3.8,0,0,1,195.22,8.77Z"/><path class="cls-3" d="M193.49,6.71c-0.8.53,0.38,0.65,0.21,1.05a1.58,1.58,0,0,1-.35.18l0,0C193.07,7.48,192.26,7,193.49,6.71Z"/><path class="cls-3" d="M193.33,7.92l0,0a2.67,2.67,0,0,1-1.84-.33,21.26,21.26,0,0,0-5.42-1.66A9.82,9.82,0,0,1,184,5.31a0.64,0.64,0,0,1-.11-0.14l0.05,0V5a0.71,0.71,0,0,0,.42-0.72c3.15,0.44,6.38.62,9.18,2.41C192.26,7,193.07,7.48,193.33,7.92Z"/><path class="cls-3" d="M184.31,4.3a0.71,0.71,0,0,1-.42.72V4.74Z"/><path class="cls-3" d="M184.31,4.3l-0.42.43h-2.78L33.46,5.5a0.52,0.52,0,0,1,0-.08c0-.09,0-0.18,0-0.27,1.21,0,2.41-.1,3.62-0.11l146-.8C183.46,4.24,183.89,4.29,184.31,4.3Z"/><path class="cls-3" d="M183.9,5v0.1l-0.05,0a0.32,0.32,0,0,1,0-.1Z"/><path class="cls-3" d="M183.9,4.74V5l-0.09,0A0.43,0.43,0,0,1,183.9,4.74Z"/><path class="cls-3" d="M183.81,5.07a0.32,0.32,0,0,0,0,.1c-1.08.94-2.41,0.58-3.63,0.59q-64.71.37-129.43,0.71c-4.84,0-9.69.06-14.52,0.07-0.95,0-2,.21-2.77-0.54a0.35,0.35,0,0,0,0-.38,0.73,0.73,0,0,0,.26.23A8,8,0,0,0,37,6.11l143.82-.77a12.27,12.27,0,0,0,2.77-.16Z"/><path class="cls-3" d="M183.9,4.74a0.43,0.43,0,0,0-.08.33l-0.27.11a12.27,12.27,0,0,1-2.77.16L37,6.11a8,8,0,0,1-3.17-.26,0.73,0.73,0,0,1-.26-0.23,0.22,0.22,0,0,0,0-.07l0-.05,147.65-.77h2.78Z"/><path class="cls-3" d="M33.52,5.62a0.35,0.35,0,0,1,0,.38l-0.06-.06c0-.15,0-0.29,0-0.44l0,0.05A0.22,0.22,0,0,1,33.52,5.62Z"/><path class="cls-3" d="M33.44,5.94L33.5,6l-0.05.08a7,7,0,0,1-2.1.65,21.32,21.32,0,0,0-8.08,3.18,3.84,3.84,0,0,1-.5.32,20.71,20.71,0,0,0-6.51,5.7,2.32,2.32,0,0,1-1.16,1,0.68,0.68,0,0,1-.39-0.09,0.07,0.07,0,0,0,0,0c0-.33,0-0.65-0.05-1a24.59,24.59,0,0,1,17-10.28,9.53,9.53,0,0,0,1.84-.35,0.83,0.83,0,0,0,0,.27V5.5C33.44,5.65,33.44,5.8,33.44,5.94Z"/><path class="cls-3" d="M33.46,5.5l0,0.05,0-.05h0Z"/><path class="cls-3" d="M33.45,5.16c0,0.09,0,.18,0,0.27A0.83,0.83,0,0,1,33.45,5.16Z"/><path class="cls-3" d="M14.7,16.8c0.23,0.93-.43,1.58-0.83,2.28a27.82,27.82,0,0,0-3.45,9.71c-0.42,1,0,2.26-.6,3.27h0c-0.12-1,.26-2.18-0.67-3a22.81,22.81,0,0,1,5.5-13.26,1,1,0,0,0-.1.89A0.61,0.61,0,0,0,14.7,16.8Z"/><path class="cls-3" d="M14.7,16.77a0.07,0.07,0,0,1,0,0,0.61,0.61,0,0,1-.16-0.12,1,1,0,0,1,.1-0.89C14.67,16.12,14.68,16.44,14.7,16.77Z"/><path class="cls-3" d="M10.32,32.44c0.48,1.63.79,3.25-.23,4.81L10,37.33a31.35,31.35,0,0,1-.19-5.18A0.66,0.66,0,0,1,10.32,32.44Z"/><path class="cls-3" d="M10.22,81.57a7,7,0,0,1,.31,2.95L10.64,107H9.73a12,12,0,0,0-.57-3.51q0-6.62-.05-13.24a13.25,13.25,0,0,0,0-7.26c0-.57,0-1.15,0-1.72H9.89l0-.06A0.85,0.85,0,0,1,10.22,81.57Z"/><path class="cls-3" d="M10.83,140.14q0.63,117,1.26,233.94a22.25,22.25,0,0,1-.06,2.56,13.89,13.89,0,0,0-.28,1.54c-0.07-.23-0.14-0.45-0.22-0.67a2.26,2.26,0,0,0,0-.38,8.57,8.57,0,0,0-.48,2.8H10.67l-1.16-215q-0.06-11.22-.15-22.44a5.2,5.2,0,0,0,.53-2.31h0.94Z"/><path class="cls-3" d="M10.7,117.55q0.07,11.3.13,22.59H9.89a6.48,6.48,0,0,0-.52-2.4,8.68,8.68,0,0,1-.15,1.63,13,13,0,0,0-.07-1.91A25.31,25.31,0,0,1,9.28,133l0-8.51a20.49,20.49,0,0,1-.16-4.06,12.05,12.05,0,0,0,.07-1.57l0.16,1.3a8.08,8.08,0,0,0,.46-2.62H10.7Z"/><path class="cls-3" d="M10.64,107q0,5.26.06,10.51H9.76a6.13,6.13,0,0,0-.54-2.48c0-1.53,0-3.06-.07-4.59v0h0A10.15,10.15,0,0,0,9.73,107h0.92Z"/><path class="cls-3" d="M10.18,38q0.33,15.76.18,31.51c-0.69,3.69-.18,7.42-0.23,11.12a1,1,0,0,1-.19.66,0.76,0.76,0,0,0-.8.06C9.1,80.54,9.06,79.76,9,79c-0.18-7.72-.75-15.47-0.43-23.17,0.35-8.45,0-16.88.24-25.32a8.11,8.11,0,0,1,.3-1.44l0.08,3.13c0.24,1.84-.51,3.76.45,5.55l0.34-.4C10.06,37.54,10.11,37.75,10.18,38ZM9.88,80.87q0-5.55-.06-11.09A30.5,30.5,0,0,0,9.88,80.87Z"/><path class="cls-3" d="M10,37.33l-0.34.4c-1-1.78-.22-3.7-0.45-5.55a0.43,0.43,0,0,0,.53,0H9.82A31.35,31.35,0,0,0,10,37.33Z"/><path class="cls-3" d="M9.82,32.08v0.06H9.76l0.06-.07h0Z"/><path class="cls-3" d="M9.82,32.07l-0.06.07H9.65l-0.43,0L9.14,29.05C10.08,29.9,9.7,31,9.82,32.07Z"/><path class="cls-3" d="M9.65,32.15h0.1a0.43,0.43,0,0,1-.53,0Z"/><path class="cls-3" d="M9.93,81.26l0,0.06H9.13A0.76,0.76,0,0,1,9.93,81.26Z"/><path class="cls-3" d="M9.83,69.78q0,5.55.06,11.09A30.5,30.5,0,0,1,9.83,69.78Z"/><path class="cls-3" d="M9.76,117.56a8.08,8.08,0,0,1-.46,2.62l-0.16-1.3a0,0,0,0,1,0,0,20.84,20.84,0,0,1,.08-3.8A6.13,6.13,0,0,1,9.76,117.56Z"/><path class="cls-3" d="M9.09,83a13.25,13.25,0,0,1,0,7.26C9.44,87.87,8.83,85.46,9.09,83Z"/><path class="cls-3" d="M9.37,137.75a6.48,6.48,0,0,1,.52,2.4,5.2,5.2,0,0,1-.53,2.31,13.74,13.74,0,0,1-.14-3.08A8.68,8.68,0,0,0,9.37,137.75Z"/><path class="cls-3" d="M9.15,103.53A12,12,0,0,1,9.73,107a10.15,10.15,0,0,1-.57,3.41c0-.89,0-1.78,0-2.68h0A17.2,17.2,0,0,0,9.15,103.53Z"/><path class="cls-3" d="M9.09,83c-0.26,2.42.35,4.84,0,7.26-0.2-1.88-.32-3.78-0.64-5.65A1.58,1.58,0,0,1,9.09,83Z"/><path class="cls-3" d="M9.15,103.53a17.2,17.2,0,0,1,0,4.24q0-1.53,0-3h0C9.14,104.33,9.14,103.93,9.15,103.53Z"/><path class="cls-3" d="M8.71,115.47l0.51-.4a20.84,20.84,0,0,0-.08,3.8Q8.92,117.17,8.71,115.47Z"/><path class="cls-3" d="M9.14,104.73q0,1.52,0,3h0a14.31,14.31,0,0,0,0,2.64C8.47,108.53,9.14,106.62,9.14,104.73Z"/><path class="cls-3" d="M9.15,107.78c0,0.89,0,1.78,0,2.68a0.14,0.14,0,0,1,0,0A14.31,14.31,0,0,1,9.15,107.78Z"/><path class="cls-3" d="M9.16,110.46v0a0.05,0.05,0,0,0,0,0h0Z"/><path class="cls-3" d="M9.16,110.46h0v0A0.14,0.14,0,0,0,9.16,110.46Z"/><path class="cls-3" d="M9.15,110.42v0a0.8,0.8,0,0,1-.69-1.06c0.47-1.53,0-3.18.68-4.67C9.14,106.62,8.47,108.53,9.15,110.42Z"/><path class="cls-3" d="M9.22,139.38a13.74,13.74,0,0,0,.14,3.08L9,142.36A8.55,8.55,0,0,1,9.22,139.38Z"/><path class="cls-4" d="M9.15,103.53q0-6.62-.05-13.24"/><path class="cls-4" d="M9.22,115.07c0-1.53,0-3.06-.07-4.59a0.05,0.05,0,0,0,0,0"/><path class="cls-4" d="M9.22,139.38a13,13,0,0,0-.07-1.91A25.31,25.31,0,0,1,9.28,133l0-8.51a20.49,20.49,0,0,1-.16-4.06,12.05,12.05,0,0,0,.07-1.57"/><path class="cls-4" d="M11.53,391.3a19.84,19.84,0,0,1-.84-6.93l0-4.44-1.16-215q-0.06-11.22-.15-22.44"/><path class="cls-4" d="M9.93,81.26a0.85,0.85,0,0,1,.29.31,7,7,0,0,1,.31,2.95L10.64,107q0,5.26.06,10.51,0.07,11.3.13,22.59,0.63,117,1.26,233.94a22.25,22.25,0,0,1-.06,2.56,13.89,13.89,0,0,0-.28,1.54"/><path class="cls-4" d="M9.09,83c0-.57,0-1.15,0-1.72"/><path class="cls-4" d="M209.91,108.81l0.21,0.11q0.3,57.81.6,115.61L211.52,376c0,0.85,0,1.71-.05,2.56"/><path class="cls-4" d="M210.53,378.53a1.12,1.12,0,0,1-.15-0.2,7.18,7.18,0,0,1-.3-2.95Q209.36,243.68,208.66,112a9.25,9.25,0,0,1,.15-2.55,1.37,1.37,0,0,1,.41-0.6"/><path class="cls-4" d="M33.46,5.5a0.52,0.52,0,0,1,0-.08"/><path class="cls-4" d="M33.45,5.16c1.21,0,2.41-.1,3.62-0.11l146-.8c0.42,0,.85,0,1.28.06"/><path class="cls-4" d="M10,37.33c0,0.21.1,0.42,0.16,0.63q0.33,15.76.18,31.51c-0.69,3.69-.18,7.42-0.23,11.12a1,1,0,0,1-.19.66l0,0.06H9.13C9.1,80.54,9.06,79.76,9,79c-0.18-7.72-.75-15.47-0.43-23.17,0.35-8.45,0-16.88.24-25.32a8.11,8.11,0,0,1,.3-1.44"/><path class="cls-4" d="M9.82,32.07h0v0.06"/><path class="cls-4" d="M209.13,81.54A1.14,1.14,0,0,1,208.7,81a6.24,6.24,0,0,1-.22-2.1q-0.11-19.9-.21-39.79a7.29,7.29,0,0,1,.14-1.9,1.6,1.6,0,0,1,.44-0.69"/><path class="cls-4" d="M209.64,36.63q0.11,22.25.23,44.49"/><path class="cls-4" d="M193.49,6.71c10.25,4.79,15.5,13,16.15,24.15,0.11,1.91,0,3.84,0,5.76h-0.36"/><path class="cls-4" d="M195.22,8.77a4,4,0,0,0-.83-0.25,2.33,2.33,0,0,1-1-.58"/><path class="cls-4" d="M208.85,35.77c-0.47-1.46.13-3.07-.41-4.51a32,32,0,0,0-.82-5.43,20.68,20.68,0,0,0-2.45-6.09c-1.87-4.2-5.21-7.14-8.65-10a3.11,3.11,0,0,0-.68-0.66"/><path class="cls-4" d="M33.5,6l-0.05.08a7,7,0,0,1-2.1.65,21.32,21.32,0,0,0-8.08,3.18,3.84,3.84,0,0,1-.5.32,20.71,20.71,0,0,0-6.51,5.7,2.32,2.32,0,0,1-1.16,1,0.68,0.68,0,0,1-.39-0.09,0.61,0.61,0,0,1-.16-0.12,1,1,0,0,1,.1-0.89,24.59,24.59,0,0,1,17-10.28,9.53,9.53,0,0,0,1.84-.35c0,0.09,0,.18,0,0.27V5.5"/><path class="cls-4" d="M209.71,108.86l-0.44,0,0,0c-0.74-.72-0.58-1.67-0.59-2.55q-0.09-11.07-.12-22.14c0-.9-0.18-1.87.61-2.59h0l0.74-.42L210,81.86"/><path class="cls-4" d="M210,88.78L210.05,102"/><path class="cls-4" d="M9.23,32.18L9.14,29.05a22.81,22.81,0,0,1,5.5-13.26c0,0.32,0,.65.05,1a0.07,0.07,0,0,1,0,0c0.23,0.93-.43,1.58-0.83,2.28a27.82,27.82,0,0,0-3.45,9.71c-0.42,1,0,2.26-.6,3.27h0l-0.06.07"/><path class="cls-4" d="M183.9,4.74l0.42-.43c3.15,0.44,6.38.62,9.18,2.41-0.8.53,0.38,0.65,0.21,1.05a1.58,1.58,0,0,1-.35.18,2.67,2.67,0,0,1-1.84-.33,21.26,21.26,0,0,0-5.42-1.66A9.82,9.82,0,0,1,184,5.31a0.64,0.64,0,0,1-.11-0.14"/><path class="cls-4" d="M9.09,83a13.25,13.25,0,0,1,0,7.26c-0.2-1.88-.32-3.78-0.64-5.65A1.58,1.58,0,0,1,9.09,83Z"/><path class="cls-4" d="M209.67,105.47c0.14-1.14-.43-2.37.39-3.43,0.19,1.6.32,3.22,0.6,4.8a1.87,1.87,0,0,1-.54,2.08,0.48,0.48,0,0,0-.06-0.23"/><path class="cls-4" d="M9.14,118.87q-0.21-1.7-.42-3.4l0.51-.4"/><path class="cls-4" d="M9.76,117.56a8.08,8.08,0,0,1-.46,2.62l-0.16-1.3"/><path class="cls-4" d="M209.57,85.79c0.2-1.3-.58-2.72.47-3.93,0.87,1.32.31,2.63,0,3.95"/><line class="cls-4" x1="9.15" y1="110.48" x2="9.16" y2="110.46"/><path class="cls-4" d="M9.15,103.53A12,12,0,0,1,9.73,107a10.15,10.15,0,0,1-.57,3.41"/><path class="cls-4" d="M9.36,142.46L9,142.36a8.55,8.55,0,0,1,.18-3,8.68,8.68,0,0,0,.15-1.63,6.48,6.48,0,0,1,.52,2.4A5.2,5.2,0,0,1,9.36,142.46Z"/><path class="cls-4" d="M9.15,110.46a0.8,0.8,0,0,1-.69-1.06c0.47-1.53,0-3.18.68-4.67h0c0-.4,0-0.8,0-1.19"/><path class="cls-4" d="M9.14,104.73q0,1.52,0,3"/><path class="cls-4" d="M209.57,85.79H210l0,3C209.19,87.87,209.69,86.79,209.57,85.79Z"/><path class="cls-4" d="M209.67,105.49c0.62,0.84.39,1.79,0.37,2.71a3.76,3.76,0,0,0,0,.49,0.66,0.66,0,0,1-.15.12h0l-0.19.05v-0.14l0-3.25"/><path class="cls-4" d="M33.46,5.5l147.65-.77h2.78V5.12l-0.05,0c-1.08.94-2.41,0.58-3.63,0.59q-64.71.37-129.43,0.71c-4.84,0-9.69.06-14.52,0.07-0.95,0-2,.21-2.77-0.54l-0.06-.06c0-.15,0-0.29,0-0.44"/><path class="cls-4" d="M9.83,69.78q0,5.55.06,11.09A30.5,30.5,0,0,1,9.83,69.78Z"/><path class="cls-4" d="M9.82,32.15a0.66,0.66,0,0,1,.5.3c0.48,1.63.79,3.25-.23,4.81L10,37.33l-0.34.4c-1-1.78-.22-3.7-0.45-5.55l0.43,0H9.82Z"/><path class="cls-4" d="M209.28,36.64l-0.44,0V36.55c0-.26,0-0.52,0-0.77,0-1.56,0-3.12,0-4.67,0.89,1.73.24,3.59,0.42,5.39C209.27,36.54,209.28,36.59,209.28,36.64Z"/><path class="cls-4" d="M195.22,8.77a3.78,3.78,0,0,1-.72-0.65,2.36,2.36,0,0,1,2.24,1.26,4.26,4.26,0,0,1-.91-0.28h0A3.8,3.8,0,0,1,195.22,8.77Z"/><path class="cls-5" d="M9.17,83.7l0-1.72a0.71,0.71,0,0,1,1.09.25,7,7,0,0,1,.31,2.95Q11.4,230,12.17,374.75a22.11,22.11,0,0,1-.07,2.56,13.41,13.41,0,0,0-.08,6c0.36,2.46,0,5,.43,7.43a1.67,1.67,0,0,1-.84,1.21,19.79,19.79,0,0,1-.84-6.93Q10.18,275.29,9.59,165.56q-0.06-11.22-.15-22.44c-0.34-1.65,0-3.33-.21-5a25.77,25.77,0,0,1,.12-4.45l0-8.51a20.82,20.82,0,0,1-.16-4.06c0.22-1.79-.16-3.59.15-5.37l-0.07-4.59c-0.27-2.32.42-4.63,0-7L9.18,91C9.52,88.54,8.91,86.12,9.17,83.7Z"/><path class="cls-6" d="M210.2,109.59q0.3,57.8.6,115.61,0.4,75.75.81,151.51c0,0.85,0,1.71-.05,2.56a0.72,0.72,0,0,1-1.09-.26,7.13,7.13,0,0,1-.3-2.95q-0.72-131.7-1.42-263.41a9.27,9.27,0,0,1,.16-2.55,1.4,1.4,0,0,1,.5-0.67l0.42,0Z"/><path class="cls-7" d="M33.53,5.83c1.21,0,2.42-.1,3.62-0.11l146-.8c0.43,0,.85,0,1.28.06a0.88,0.88,0,0,1-.77.88,12.19,12.19,0,0,1-2.77.16L37,6.78a8.05,8.05,0,0,1-3.17-.26A0.6,0.6,0,0,1,33.53,5.83Z"/><path class="cls-8" d="M10,82H9.21c0-.78-0.06-1.56-0.08-2.34-0.18-7.73-.75-15.47-0.43-23.17C9,48,8.65,39.59,8.93,31.16a8.51,8.51,0,0,1,.29-1.44c0.94,0.85.56,2,.67,3,0.09,2-.24,3.95.36,5.88q0.33,15.75.18,31.51c-0.68,3.69-.18,7.42-0.23,11.13A1.06,1.06,0,0,1,10,82Z"/><path class="cls-9" d="M209.72,37.3L210,81.79c-0.45.71-.83,0.56-1.18-0.09a6.18,6.18,0,0,1-.21-2.11q-0.12-19.89-.21-39.78a7.3,7.3,0,0,1,.14-1.9,1.56,1.56,0,0,1,.44-0.69A0.88,0.88,0,0,1,209.72,37.3Z"/><path class="cls-10" d="M209.72,37.3h-0.36c-1.19-1.65-.19-3.64-0.85-5.37a32.29,32.29,0,0,0-.83-5.43,20.66,20.66,0,0,0-2.45-6.08c-1.87-4.21-5.21-7.14-8.65-10a3.3,3.3,0,0,0-2.12-1.25,2.35,2.35,0,0,1-1-.6c-0.27-.44-1.07-1,0.16-1.2,10.26,4.79,15.5,13,16.15,24.15C209.84,33.45,209.73,35.38,209.72,37.3Z"/><path class="cls-11" d="M33.53,5.83q0,0.17,0,.35a0.4,0.4,0,0,1,0,.57,6.92,6.92,0,0,1-2.1.65,21.26,21.26,0,0,0-8.08,3.18,4.55,4.55,0,0,1-.5.32,20.67,20.67,0,0,0-6.51,5.7,2.34,2.34,0,0,1-1.16,1,0.69,0.69,0,0,1-.55-0.22,1,1,0,0,1,.1-0.89,24.58,24.58,0,0,1,17-10.28A9.39,9.39,0,0,0,33.53,5.83Z"/><path class="cls-12" d="M209.22,82.21l0.74-.42,0.16,0.74c-0.2,1.27.1,2.58-.27,3.84,0.09,1-.23,2.08.21,3.07l0.07,13.27a7,7,0,0,0,0,3.54c-0.06,1.1.42,2.25-.35,3.27l-0.44,0c-0.79-.72-0.62-1.7-0.63-2.6q-0.09-11.07-.12-22.14C208.6,83.9,208.43,82.93,209.22,82.21Z"/><path class="cls-13" d="M14.73,16.46l0,1c0.25,1-.42,1.61-0.82,2.32a27.8,27.8,0,0,0-3.45,9.71c-0.42,1,0,2.25-.6,3.27a0.45,0.45,0,0,1-.6.12L9.23,29.72A22.82,22.82,0,0,1,14.73,16.46Z"/><path class="cls-14" d="M193.58,7.38c-0.8.53,0.38,0.65,0.21,1-0.77.52-1.48,0.12-2.2-.15a21.17,21.17,0,0,0-5.41-1.67A9.68,9.68,0,0,1,184,6,0.4,0.4,0,0,1,184,5.41L184.39,5C187.55,5.42,190.77,5.59,193.58,7.38Z"/><path class="cls-15" d="M9.17,83.7a13.27,13.27,0,0,1,0,7.26c-0.2-1.88-.33-3.78-0.64-5.65A1.58,1.58,0,0,1,9.17,83.7Z"/><path class="cls-16" d="M209.75,106.14c0.15-1.14-.43-2.36.39-3.43,0.19,1.6.32,3.21,0.6,4.8a1.88,1.88,0,0,1-.54,2.08,0.45,0.45,0,0,0-.05-0.23C209.66,108.33,210.3,107.16,209.75,106.14Z"/><path class="cls-17" d="M9.38,120.85l-0.58-4.71,0.51-.4A6.77,6.77,0,0,1,9.38,120.85Z"/><path class="cls-18" d="M209.65,86.45c0.2-1.3-.58-2.72.47-3.92,0.88,1.32.31,2.63,0,3.95A0.26,0.26,0,0,1,209.65,86.45Z"/><path class="cls-19" d="M9.23,104.2a10.78,10.78,0,0,1,0,7v0c-0.7-1.91,0-3.83,0-5.74Z"/><path class="cls-20" d="M9.13,143c-0.29-1.57.37-3.06,0.32-4.61a5.57,5.57,0,0,1,0,4.7Z"/><path class="cls-5" d="M9.22,105.39q0,2.87,0,5.74a0.8,0.8,0,0,1-.71-1.06C9,108.54,8.56,106.89,9.22,105.39Z"/><path class="cls-21" d="M209.65,86.45l0.46,0,0,3C209.27,88.54,209.77,87.45,209.65,86.45Z"/><path class="cls-22" d="M209.75,106.14c0.75,1,.28,2.14.4,3.22a0.55,0.55,0,0,1-.35.17Q209.77,107.83,209.75,106.14Z"/><path class="cls-14" d="M184,5.41q0,0.19,0,.39c-1.09,1-2.44.62-3.68,0.63Q115.59,6.8,50.87,7.14c-4.84,0-9.68.07-14.52,0.07-1,0-2,.22-2.83-0.59V6.17L181.2,5.4H184Z"/><path class="cls-5" d="M9.91,70.45q0,5.54.05,11.09A30.45,30.45,0,0,1,9.91,70.45Z"/><path class="cls-7" d="M10.17,37.92l-0.4.47c-1-1.78-.22-3.7-0.45-5.55l0.43,0a0.66,0.66,0,0,1,.66.29C10.88,34.74,11.19,36.36,10.17,37.92Z"/><path class="cls-23" d="M208.93,37.32q0-2.78,0-5.55c0.91,1.78.2,3.7,0.44,5.53Z"/><path class="cls-14" d="M196.82,10.06a3.81,3.81,0,0,1-2.24-1.26A2.37,2.37,0,0,1,196.82,10.06Z"/><path class="cls-24" d="M197.95,51.37c0.65,1,.32,2.21.33,3.32,0.57,102.73.62,205.45,1.18,308.18,0,0.93-.46,1.85-0.46,2.78h0a1.21,1.21,0,0,1-1.32,1.46c-0.85,0-1.46,0-2.31,0-46.23.25-92.32,0.57-138.55,0.69-10.89,0-21.73.11-32.61,0a1.38,1.38,0,0,1-.65-0.2c-0.49-.87.2-0.88,0.87-0.89a1.71,1.71,0,0,1-1.53-.22,2.44,2.44,0,0,1-.18-0.73c-0.09-4.13-.27-8.26,0-12.39,0.11-1.49-.21-3-0.22-4.47q-0.32-64-.64-128c0-4.19.2-8.39,0.14-12.59a12.62,12.62,0,0,0-.22-3c-0.08-1.14-.05-2.28-0.06-3.41Q21.36,129.06,21,56.15a7.14,7.14,0,0,0-.16-2.33,1.6,1.6,0,0,1,.08-1.56l0.27-.33a7.44,7.44,0,0,1,2.33-.15L162.73,51a1.39,1.39,0,0,1,1.27.78,2.35,2.35,0,0,1-.17,2.32,1.26,1.26,0,0,1-.43.16,2.82,2.82,0,0,1,.32.33c0.78,1-.45,1.68-0.44,2.52a1.57,1.57,0,0,0,.18-0.48c0.81-1,.87.35,1.34,0.43,0.38-.61-0.18-1.19-0.06-1.78a2.88,2.88,0,0,0,0-2.42,2.91,2.91,0,0,1,.08-0.68c0.18-.93.91-1,1.63-1q8.47-.07,16.94-0.09a1.87,1.87,0,0,1,1.91,1A2.28,2.28,0,0,1,185,53.5C185,57,185,57,188.37,57c1.27,0,2.53,0,3.8,0,2.42-.07,2.81-0.55,2.45-2.94,0-.28-0.05-0.56-0.08-0.85-0.11-.59-0.86-1.17-0.19-1.74s1.51-.21,2.26-0.06a1.15,1.15,0,0,1,1,1.37c0,1.19.14,2.39,0.14,3.58q0.39,72.22.73,144.43c0,7-.13,14.08,0,21.11,0.6,37.24.47,74.48,0.73,111.73,0,5.12-.1,10.25-0.09,15.37,0,4.66.45,9.31,0.32,12.42C199.29,354.94,199,347,199,339c0.3-37.67-.24-75.34-0.46-113,0-6.75-.22-13.51-0.18-20.25,0.18-25.78-.2-51.55-0.29-77.33-0.09-25.14-.18-50.28-0.43-75.42A2.12,2.12,0,0,1,197.95,51.37Z"/><path class="cls-25" d="M163.71,52.09l-0.43-.84a2.24,2.24,0,0,1,1.44-.22l31.66-.17a3.07,3.07,0,0,1,1.26.14l0.31,0.38c0,1,0,2,0,3q0.82,153.73,1.65,307.47v2.68h-0.42c0-.78,0-1.55,0-2.32,0.23-4.13-.54-8.22-0.48-12.34,0.59-40.72-.17-81.44-0.28-122.16,0-3.89-.51-7.78-0.46-11.7,0.65-53.44-.38-106.87-0.34-160.3,0-1.25-1.3-2.35-.29-3.62l-2.88-.58c-0.16.9,2.53,1.17,0.43,2.24l-0.35-.09c-2.25-.52-4.53-0.11-6.79-0.23-0.9,0-1.87.2-2.6-.61-0.3-1.17-1.25-1.23-2.18-1.23-5.46,0-10.92.14-16.38,0-1.3,0-1.06,1-1.62,1.39a0.71,0.71,0,0,1-.69-0.28A3.28,3.28,0,0,0,163.71,52.09Z"/><path class="cls-26" d="M20.88,52.26L21,53.74a6.66,6.66,0,0,1,.14,2.33q0.4,73,.79,146c0,3.13.42,6.25,0.28,9.38-0.24,45.7.39,91.39,0.54,137.09,0,5.11,0,10.23.06,15.34a11.9,11.9,0,0,0,.23,2.76h0a0.8,0.8,0,0,1,.43.42q0,0.2,0,.4c-0.31.26-.59,0.32-0.8-0.12l-0.39-.46q-0.1-15.49-.21-31-0.75-140-1.44-279.91c0-1.21-.92-2.39-0.14-3.61A0.4,0.4,0,0,0,20.88,52.26Z"/><path class="cls-26" d="M197.64,51l-34.36.26L24.35,52c-1.07,0-2.13,0-3.2,0,0.65-.64,1.48-0.39,2.24-0.4q86-.48,172-0.92C196.16,50.61,197,50.31,197.64,51Z"/><path class="cls-27" d="M94.69,28.91a1.59,1.59,0,0,1,1.55-.46l26.13-.15c1.53,0,2.59.35,1.48,2.17-9,.54-18,0.21-27,0.4A1.86,1.86,0,0,1,94.69,28.91Z"/><path class="cls-28" d="M94.69,28.91c0.84,2.2,2.73,1.72,4.42,1.71q10,0,20-.11c1.58,0,3.15-1.18,4.75,0a2.23,2.23,0,0,1-1.7.61c-8.65,0-17.3.09-25.95,0.14C94.49,31.23,93.78,30.6,94.69,28.91Z"/><path class="cls-29" d="M80.58,27a2.9,2.9,0,0,1,0,5.8A2.9,2.9,0,1,1,80.58,27Z"/><path class="cls-30" d="M110.11,19.89c-1.14.58-2.2,0.63-2.78-.71-0.44-1-.55-2.1.57-2.8a2,2,0,0,1,3,.62c0.21,2.36-1.14,1-2,.85C108.89,18.79,110.35,18.84,110.11,19.89Z"/><path class="cls-31" d="M110.11,19.89c-0.5-.39-1-0.81-1.5-1.16s-0.8-.67-0.47-1.2a1.84,1.84,0,0,1,.9-0.83c0.6-.16.48,0.5,0.68,0.82,0.41,0.65.45,0.63,1.22-.51C111.87,18.31,111.36,19.21,110.11,19.89Z"/><path class="cls-32" d="M23.06,366.59a2,2,0,0,1-.41-1.8Q22.23,288.41,21.83,212c0-.21,0-0.43,0-0.64,0.47-2-.21-4,0.33-5.94,0.77,0.78.43,1.76,0.42,2.64C22,254.93,22.93,301.76,23,348.6,23,354.6,23,360.59,23.06,366.59Z"/><path class="cls-33" d="M22.19,205.45c-0.17,2,.42,4-0.33,5.94,0-2.21-.06-4.41-0.08-6.62q-0.4-74-.8-148c0-1,0-2,0-3a0.47,0.47,0,0,1,.52.51Q21.86,129.85,22.19,205.45Z"/><path class="cls-26" d="M194.84,53.73c-2.7-.84-5.47-0.18-8.21-0.35-0.78,0-1.56,0-2.34.06a0.76,0.76,0,0,1,.8-0.65c2.68,0,5.37,0,8,0C193.83,52.8,194.83,52.43,194.84,53.73Z"/><path class="cls-34" d="M47,55.28l0.83,0c0,0.84,0,1.64-1.24,1.28-0.85.21-1.71,0.57-2.56,0l0.12-.75a1.2,1.2,0,0,1,1-.68A3.55,3.55,0,0,1,47,55.28Z"/><path class="cls-35" d="M103.13,57l-0.54.08c-0.59.85-1,.46-1.47-0.16a2.59,2.59,0,0,1-.07-1.91c0.62-.85,2-0.64,2-0.09v0C104,55.64,102.95,56.36,103.13,57Z"/><path class="cls-26" d="M108.66,54.26a1.39,1.39,0,0,1,2.17-.34c0.79,0.62-.34,1-0.55,1.49C108.83,56.3,109.08,54.81,108.66,54.26Z"/><path class="cls-33" d="M23.6,55.54l0,1.54c-0.81,0-1.8,0-1.67-1C22,55.29,22.72,54.65,23.6,55.54Z"/><path class="cls-36" d="M108,55.47l0.48-.11c0.54,0.54,1.54.12,2,.94,0.16,1.35-.74,1.31-1.65,1.24l-1-.41A1.2,1.2,0,0,1,108,55.47Z"/><path class="cls-37" d="M179.1,55.82a0.67,0.67,0,0,1,.35-0.79,0.36,0.36,0,0,1,.52.34c0.47,0.5,1.53.7,0.86,1.76-0.92.61-.92,0.61-1.63-1.26Z"/><path class="cls-38" d="M169.7,53.75c1.19-.78.63,0.8,1.19,0.88l0.25,0.12a1.84,1.84,0,0,1,.16,1.61,0.73,0.73,0,0,1-.38.38l-0.69-.4C169.64,55.56,170,54.6,169.7,53.75Z"/><path class="cls-39" d="M176.1,54.17a2.09,2.09,0,0,1,.12,2.59,0.49,0.49,0,0,1-.66,0,2.36,2.36,0,0,1-.09-2.45A0.4,0.4,0,0,1,176.1,54.17Z"/><path class="cls-26" d="M163.25,54.27c-0.51-.08-1.21.07-1.12-0.81a0.58,0.58,0,0,1,.38-0.4c0.89-.11.71,0.61,0.81,1.11Z"/><path class="cls-26" d="M46.62,56.9l-1.54.17a1.13,1.13,0,0,1-1-.55c0.85,0.47,1.71-.86,2.56,0Q46.63,56.72,46.62,56.9Z"/><path class="cls-26" d="M164.53,52.63c-0.7.13-.48,0.69-0.48,1.11,0,0.59-.15.9-0.8,0.73v-0.2l0.07-.09c0.69-.59.27-1.39,0.39-2.09A0.71,0.71,0,0,1,164.53,52.63Z"/><path class="cls-26" d="M33.82,55.44l0,0.77c-0.88.08-.88-0.9-1.44-1.21C33,54.64,33.54,54.6,33.82,55.44Z"/><path class="cls-26" d="M44.91,55.35l-0.73.42a0.86,0.86,0,0,1-1-.95L44.91,55q0.2,0.12.14,0.24A0.19,0.19,0,0,1,44.91,55.35Z"/><path class="cls-40" d="M177.38,54.47c0.87-.92.79,0.55,1.3,0.52C177.86,55.79,177.5,55.44,177.38,54.47Z"/><path class="cls-41" d="M174.11,57.1l0.36-.43a2,2,0,0,1,1.29.06l0.46,0C175.7,58,175,58,174.11,57.1Z"/><path class="cls-42" d="M162.89,57.33l0.87-.44-0.07,1.65A1.2,1.2,0,0,1,162.89,57.33Z"/><path class="cls-26" d="M113.72,54.1L113.3,54a2.51,2.51,0,0,1,2.62,0l-0.2.28A2.05,2.05,0,0,1,113.72,54.1Z"/><path class="cls-26" d="M116.7,54h-0.78c0.69,0,1.45-.84,2,0.18a0.7,0.7,0,0,1-.8-0.32A0.51,0.51,0,0,0,116.7,54Z"/><path class="cls-26" d="M31.32,55l-1,1-0.43-.22C30,54.85,30.4,54.5,31.32,55Z"/><path class="cls-43" d="M174.44,54.63l-0.36-.41a1.12,1.12,0,0,1,2-.05l-0.54.06A0.91,0.91,0,0,1,174.44,54.63Z"/><path class="cls-44" d="M100.78,54.57l0,2.59A2.21,2.21,0,0,1,100.78,54.57Z"/><path class="cls-26" d="M37.18,55.76l0,0.87L36.36,57l0.06-1.29h0.76Z"/><path class="cls-26" d="M27.49,55.43l-0.19,1.66-0.73-.41,0-.44Z"/><path class="cls-45" d="M179.21,55.87a2.15,2.15,0,0,1-1.36,1.63c0.41-1,.63-1.49,1.26-1.69Z"/><path class="cls-26" d="M47,53.95H44.9A1.55,1.55,0,0,1,47,53.95Z"/><path class="cls-46" d="M173.56,56.73V54.59a1,1,0,0,0,.36,0v2.21Z"/><path class="cls-24" d="M193.2,52L186,52V51.68l7.23,0Z"/><path class="cls-47" d="M79,31.17a1.85,1.85,0,0,1,0-2.64,1.9,1.9,0,0,1,2.49-.35,0.53,0.53,0,0,1,.1.15l-0.49.27c-0.5.58-1.37,0.87-1.45,1.8a2.69,2.69,0,0,1-.07.53C79.44,31.18,79.3,31.41,79,31.17Z"/><path class="cls-48" d="M81.49,31.16l-0.39.42a1.43,1.43,0,0,1-1.71-.84h0c0-1.44.63-1.91,2-1.19A1.24,1.24,0,0,1,81.49,31.16Z"/><path class="cls-49" d="M81.52,29.88c-1-.34-1.83-0.44-2.13.86-0.42-1.49.23-2.14,1.7-2.14L81.51,29A0.59,0.59,0,0,1,81.52,29.88Z"/><path class="cls-49" d="M79.39,30.74l1.71,0.84c-0.9.88-1.49,0.09-2.12-.41Z"/><path class="cls-47" d="M81.52,29.88V29c0.44,0.72,1.09,1.44,0,2.14C81.06,30.73,81.67,30.31,81.52,29.88Z"/><path class="cls-50" d="M44.91,55.35a1.32,1.32,0,0,0,0-.37c0.74-.13,1.52-0.53,2.12.29Z"/><path class="cls-51" d="M106,55a0.77,0.77,0,0,1,1.25,0,3.2,3.2,0,0,1-.41,2.54C105.58,57,106.08,55.92,106,55Z"/><path class="cls-52" d="M115.41,55.95h-1.23c0-.61,0-0.91,0-1.32a0.75,0.75,0,0,1,1.14,0A1.07,1.07,0,0,1,115.41,55.95Z"/><path class="cls-53" d="M174.44,54.63a1.14,1.14,0,0,1,1.12-.4l0.2,2.5c-0.46.57-.87,0.28-1.29-0.06Z"/><path class="cls-54" d="M171.52,56.74l-0.06-2.12c0.9-.9,1.25-0.19,1.61.54l-0.16,1.59C172.44,57.4,172,57,171.52,56.74Z"/></g></svg>