<svg id="Logo" xmlns="http://www.w3.org/2000/svg" viewBox="0 0 57.24 512.36"><defs><style>.cls-1{fill:#e7ebee;}.cls-2{fill:#e0e5e8;}.cls-3{fill:#fcfcfe;}.cls-4{fill:#c4c8cb;}.cls-5{fill:#f6f6f7;}.cls-6{fill:#d0d4d7;}.cls-7{fill:#e2e6e9;}.cls-8{fill:#e5e7ea;}.cls-9{fill:#dadde0;}.cls-10{fill:#caced1;}.cls-11{fill:#c7ccce;}.cls-12{fill:#dbe0e3;}.cls-13{fill:#d9dde0;}.cls-14{fill:#ebeef0;}.cls-15{fill:#f2f3f5;}.cls-16{fill:#cfd3d6;}.cls-17{fill:#dde1e4;}.cls-18{fill:#ccd0d1;}.cls-19{fill:#babcbf;}.cls-20{fill:#bec1c4;}.cls-21{fill:#f2f2f4;}.cls-22{fill:#d3d7da;}.cls-23{fill:#bbbcbe;}.cls-24{fill:#c2c6c9;}.cls-25{fill:#999c9f;}.cls-26{fill:#b1b5b8;}.cls-27{fill:#c9cacc;}.cls-28{fill:#cbcfd1;}.cls-29{fill:#868a8d;}.cls-30{fill:#b1b3b6;}.cls-31{fill:#bbbec0;}.cls-32{fill:#848587;}.cls-33{fill:#a5a8aa;}.cls-34{fill:#b7babd;}.cls-35{fill:#dcdfe1;}.cls-36{fill:#d9dadc;}.cls-37{fill:#979a9c;}.cls-38{fill:#cacbcb;}.cls-39{fill:#6c6f72;}.cls-40{fill:#b4b7ba;}.cls-41{fill:#cfd4d7;}.cls-42{fill:#f1f2f4;}.cls-43{fill:#eeeff1;}.cls-44{fill:#dfe3e6;}.cls-45{fill:#a4a6a8;}.cls-46{fill:#d5d9dc;}.cls-47{fill:#d4d8db;}.cls-48{fill:#f7f7f9;}.cls-49{fill:#d1d5d8;}.cls-50{fill:#d8dde0;}.cls-51{fill:#d5dadd;}.cls-52{fill:#f8fafb;}.cls-53{fill:#c4c8c9;}.cls-54{fill:#dcdddf;}.cls-55{fill:#909295;}.cls-56{fill:#fdfdfd;}.cls-57{fill:#949597;}.cls-58{fill:#d4d9dc;}.cls-59{fill:#c3c7ca;}.cls-60{fill:#aaafb2;}.cls-61{fill:#bbbec1;}.cls-62{fill:#ced1d3;}.cls-63{fill:#e1e2e5;}.cls-64{fill:#ecf0f3;}.cls-65{fill:#e2d291;}.cls-66{fill:#c3b170;}.cls-67{fill:#a99343;}.cls-68{fill:#a3924b;}.cls-69{fill:#a99552;}.cls-70{fill:#dac782;}.cls-71{fill:#f8f8ea;}.cls-72{fill:#c6b368;}.cls-73{fill:#b4b8bb;}.cls-74{fill:#f8f5e9;}.cls-75{fill:#b5b8bb;}.cls-76{fill:#b8a45f;}.cls-77{fill:#d2bf79;}.cls-78{fill:#c6cbce;}.cls-79{fill:#dddee1;}.cls-80{fill:#cbd0d3;}.cls-81{fill:#b9bec1;}.cls-82{fill:#8a8b8f;}.cls-83{fill:#bec3c6;}.cls-84{fill:#e2cf8f;}.cls-85{fill:none;}</style></defs><title>iPhonecharger</title><path class="cls-1" d="M34.23,510.57c-0.45-.12-0.92-0.19-1.38-0.3-1.33-.52-1.25-1.72-1.4-2.84-1.23-9.3.42-18.61-.27-27.94-0.62-8.43.37-16.94,0.24-25.4s0-17,.07-25.44c0.19-14.8-.51-29.61,0-44.41,0.38-10.48-.82-20.94-0.51-31.4,0.24-8.11.58-16.21,0.54-24.33,0-2.74-.42-5.43-0.38-8.18,0.08-5.83.68-11.69,0.15-17.49-0.54-5.95-.12-11.88-0.09-17.78,0.05-8.47,0-17,.26-25.43,0.08-2.91-.29-5.8-0.25-8.74,0.11-8.47-.11-16.94.11-25.42a13.53,13.53,0,0,0-.4-2.8c-0.56-3-2.76-4.43-6-4-2.34.28-3.13,1.56-3.19,4.78-0.1,5.84.19,11.68,0.19,17.52,0,9.71-.22,19.42-0.19,29.13,0.15,42.85.06,85.7,0.06,128.56q0,53.1,0,106.2c0,2.16-.24,4.36.89,6.37,2.24,0,4.75-.55,6.65.27,3,1.3,5.73,1,8.63.27a3.72,3.72,0,0,0-.73-0.48A27.64,27.64,0,0,1,34.23,510.57Z"/><path class="cls-2" d="M33.69,250.19c-0.16-3.7.73-7.33,0.46-11-0.4-5.37-.76-10.71,0-16.08,0.43-2.9-.94-5.61-3.14-6-3.87-.66-7.79-1.43-11.76-0.6,0,0.75,0,1.51,0,2.26v289c0,3.59,0,3.59,3.41,3.36,0.53-1.49,0-3,0-4.46q0.07-61.84,0-123.69,0-58.63,0-117.27c0-1.58-.53-3.2-0.33-4.74,1.1-8.67.23-17.39,0.68-26.09a76.18,76.18,0,0,0-.48-12.65c-0.17-1.41.1-3.09,2.12-2.89s4.75-.58,5.3,2.32a34.39,34.39,0,0,1,.71,7.56c-0.14,3.85-1.26,7.72-.54,11.53,1.29,6.82-.23,13.64.38,20.48,0.56,6.23.16,12.54,0.09,18.82,0,2.05-.53,4.11-0.5,6.16,0.1,7.26.39,14.51,0.5,21.77,0,1.86-.82,3.83-0.44,5.57,1,4.66.07,9.32,0.31,14a160.67,160.67,0,0,1-.27,21.17c-0.5,6.16.12,12.41,0.27,18.62,0.26,10.25.57,20.53-.29,30.81-0.43,5.18.48,10.45,0.4,15.68-0.12,8.38.49,16.76-.42,25.15-0.38,3.47.46,7.05,0.43,10.58-0.06,7.2-.47,14.39-0.49,21.59,0,5.8.27,11.6,0.56,17.39,0.1,1.93-.82,3.71-0.56,5.59,0.64,4.73-.15,9.47.31,14.25,0.26,2.7,1,3,3,2.77,1.11-1.3.92-2.89,0.74-4.34-0.79-6.18.35-12.38-.45-18.56-0.41-3.21.56-6.37,0.53-9.58-0.07-6.09-.52-12.18-0.06-18.28,0.45-5.9-.64-11.81,0-17.75,0.34-3.34-.43-6.74-0.5-10.14-0.27-13.19.48-26.37,0.15-39.56-0.25-10-.2-20,0.22-30,0.23-5.46,0-11-.2-16.56-0.3-9.6-.25-19.23.31-28.85,0.21-3.62-.4-7.32-0.46-11-0.06-3.32.76-6.55,0.58-9.87-0.11-2.16-.77-4.27-0.53-6.47,0.78-7.12-.29-14.27.45-21.41C34.81,262.63,34,256.4,33.69,250.19Z"/><path class="cls-3" d="M23.59,61.44c0-1.68.22-3.4-.52-5-1.33-1.44-3.17-1.33-4.88-1.6-2.35-.14-4.74.31-7-0.45a5.3,5.3,0,0,0-1.06-.08c-2-.07-2.89,1-3,2.93C7,58.46,7,59.68,7,60.91q0,40.3,0,80.6a7.26,7.26,0,0,0,.37,3.06,1.36,1.36,0,0,0,1.49.51,38.34,38.34,0,0,1,13.81.06,5.15,5.15,0,0,0,1-2.89c0.54-3.11-.06-6.2-0.05-9.3Q23.63,97.19,23.59,61.44Z"/><path class="cls-4" d="M36.94,218c-0.46-2.81-3-2.5-4.83-3.17a5.25,5.25,0,0,0-1.3-.16c-0.83.22-2.06-.09-1.86,1.44,0.92,0.91,2.21.8,3.31,1.19,2.47,0.87,2.64,2.92,2.63,5.08,0,13.49,0,27,0,40.47q0,121.35,0,242.69c0,1,.07,2.08,0,3.11a2.58,2.58,0,0,0,2.5,3.07,3.4,3.4,0,0,0,.55,0q0-114,0-228.05,0-33-.06-66A1.23,1.23,0,0,0,36.94,218Z"/><path class="cls-5" d="M30.65,86c-0.26-7.92-.07-15.83.12-23.74,0.13-5.54.23-5.54-4.95-6.68-1.11-.14-2.23-0.33-3.15.59q0,44.48,0,89h2.83c1.14,1,2.42.83,3.73,0.45,1.25-.62,1.17-1.79,1.28-2.93,0.28-3-.2-6-0.09-9,0.14-4,.54-8.09.14-12.1-0.53-5.19.14-10.35-.09-15.53-0.1-2.23-.47-4.54-0.09-6.75C31.15,94.84,30.8,90.39,30.65,86Z"/><path class="cls-6" d="M31.74,216.53L28.91,216c-2.25-1.59-4.94-1.06-7.42-1.55a3,3,0,0,0-2.17-.17q0,1.14,0,2.27c3,1.27,6.3.36,9.47,1,3.65,0.76,5.34,2.25,4.58,6a33.45,33.45,0,0,0-.46,6.45c-0.06,6.18.43,12.34,0.07,18.55-0.39,6.85.8,13.71,0.51,20.59-0.17,3.94-1,7.85-.59,11.82,0.18,2,.73,4,0.49,5.87-0.83,6.72.28,13.44-.39,20.19-0.62,6.22.34,12.51,0.06,18.82-0.39,9-.22,18.06.18,27.11,0.22,5.13-.1,10.43-0.2,15.63-0.2,10.44-.79,20.92.41,31.35,0.41,3.59-.59,7.11-0.57,10.69,0.05,14.27,0,28.55.53,42.82,0.32,9.06-.12,18.14-0.07,27.22,0,3.72-.72,7.52-0.37,11.25,0.61,6.44-.21,12.9.5,19.33h1.13c1-1.36.54-2.92,0.54-4.39q0-120.49,0-241c0-5,.18-10,0.14-15-0.08-9.23-.08-18.45.1-27.68C35.45,220.33,34.86,217.69,31.74,216.53Z"/><path class="cls-7" d="M33.69,156.55c0-3.22-1.13-5.48-4.4-6.34-1.16-.19-2.23.3-3.36,0.38-5.5.35-7.21,2.05-7.38,7.48-0.2,6.69,0,13.39,0,20.08,0.11,11.48-.34,23,0.11,34.43l0.62,1.16a1.9,1.9,0,0,0,1.45.28c2.08-.53,2-2.27,2.11-3.85,0.45-6.21-.19-12.42,0-18.64,0.18-5.74.37-11.49,0.1-17.24s-0.3-11.47,0-17.22c0.11-2.27,1.19-3.16,3.39-3.16,3,0,3.74.53,3.91,3.49a55,55,0,0,1-.07,8.76,80.17,80.17,0,0,0-.25,13.23c0.66,10.47.37,20.91,0.23,31.37,0,2.2.48,3.66,2.72,4.2a1.12,1.12,0,0,0,1-1c0.16-2.83-.27-5.64-0.25-8.47C33.74,189.18,33.62,172.87,33.69,156.55Z"/><path class="cls-8" d="M45.5,143.66a39.57,39.57,0,0,1-1-9.86c-0.07-11.58,0-23.17,0-34.75,0-6.3,0-12.6-.16-18.9-0.13-6.93.46-13.88,0.56-20.83,0-2.57-.88-3.87-3.15-4.53a3.84,3.84,0,0,0-2.39-.31c-1.29.51-2.77,0.14-4,.85a0.6,0.6,0,0,0-.19.79,1.5,1.5,0,0,0,1.21.64c3-.26,3.23,1.65,3.41,3.92,0.28,3.48-.15,6.95,0,10.41C40,81.25,40.05,91.4,40,101.54c0,5-.4,10-0.18,15.05a240.5,240.5,0,0,1,0,28.09A1.88,1.88,0,0,0,41,145.86a2.32,2.32,0,0,0,.79.18,1.23,1.23,0,0,0,.7-0.34c1.81,0,3.64.11,5.18-1.12A3.33,3.33,0,0,0,45.5,143.66Z"/><path class="cls-9" d="M34.88,210.33a12,12,0,0,1,.39-5.22,77.86,77.86,0,0,0-.07-11.8,7.06,7.06,0,0,1-.34-1.65q-0.09-12.39,0-24.79c0-2.06-.28-4.14.29-6.18a8.48,8.48,0,0,0,0-3.5c-0.59-1.52-.19-3.18-0.69-4.7a5.19,5.19,0,0,0-4.65-3.5c-5.09-.38-10.07-0.1-14.48,2.94q0,27.75,0,55.51c0,2.12.43,4,2.83,4.6,1.31-2.14.33-4.44,0.35-6.64,0-4.88.17-9.76,0.24-14.64,0.09-6.22-.28-12.44-0.29-18.66,0-5.05.89-10.13,0.16-15.15-0.47-3.25,2.34-5.67,5-6a15.87,15.87,0,0,1,5.26-.14c3,0.82,4,2.77,4,5.87-0.1,17-.07,34,0,51,0,2.23.38,4.47,0.58,6.7a1.9,1.9,0,0,0,2.73-.25C36.76,212.48,34.38,211.91,34.88,210.33Z"/><path class="cls-10" d="M55.72,136.4c0.21-22.32,0-44.65,0-67,0-4.42.38-8.86-.16-13.27-0.19-1.56-.49-3.21-2.79-2.16-2.1,4-.68,8.32-1.2,12.47-0.67,5.33.12,10.72,0.19,16.08,0.08,6.58-.12,13.16-0.16,19.74-0.05,8,.55,16-0.08,24-0.39,4.95.29,9.92,0.1,14.89-0.08,2,1,2.47,2.75,1.69l1.7-1.13A19.7,19.7,0,0,1,55.72,136.4Z"/><path class="cls-11" d="M47,54.43a1,1,0,0,0,.66,1.05,4.69,4.69,0,0,0,2.69.07,5.08,5.08,0,0,0,2.4-1.08c1.62-.8,2.17-0.34,2.15,1.49C54.8,60.54,55,65.12,55,69.7c0,11.08-.32,22.16-0.2,33.23,0.12,10.92.27,21.83,0.1,32.75,0,1.86-1.52,4.56,1.24,6,1.1-.86,1.14-2.07,1.14-3.32q0-43.64,0-87.28A64.64,64.64,0,0,0,47,54.43Z"/><path class="cls-12" d="M38.8,23.59c-8,0-16,0-24,0-4.43,0-6.09-1.58-6.5-6a36.25,36.25,0,0,1,.63-9.82C7.86,6.39,8.46,4.46,7.35,3.12a1.23,1.23,0,0,0-1.12.35L5.68,4.62c-1.38.81-.14,1.68,0,2.52,1.15,2.45-1.68,3.81-1.64,6V27.28a0.5,0.5,0,0,0,.77-0.2,29.73,29.73,0,0,0,.37-3.55c0-1.38,0-2.72,0-4Q5,18.14,4.83,16.75c0-.07,0-0.1-0.09-0.09-0.37.08,0.19-.34,0.34,0.58,0,0.73,0,1.5,0,2.29a36.43,36.43,0,0,1,0,4,29.65,29.65,0,0,1-.22,3.31,2.45,2.45,0,0,0,0,1.69c-0.09,3.25,1.54,6.41.46,9.71A1.76,1.76,0,0,0,6,40a0.66,0.66,0,0,0,1,.11c1-1.33,3-2.2,2.13-4.4,1.51,0.21,3,2.36,4.23.29,1-1.82-1.79-1.94-2.16-3.23,1.69,0.72,5.67-.25,6.09-1.94C18,28,19.4,29,21,29.7a5.64,5.64,0,0,0,.73.3,3.44,3.44,0,0,0,2.34.2,1.67,1.67,0,0,0,.72-0.94c0.29-.79-1.15-1.94.6-2.51a0.78,0.78,0,0,0-.48-1.39,1,1,0,0,0-.27,0c0-.11.1-0.06,0.15-0.07,2.16-.12.84,2.17,1.93,2.79a3,3,0,0,0,1.59.41,4,4,0,0,0,.82-0.1c1.72-.37,1.7-3.45,4.16-2.67a19.57,19.57,0,0,1,2.06.22,3.34,3.34,0,0,0,.87-0.06c1.77-.2,3.55,0,5.31-0.12,1-.07,2.27-0.21,1.18-1.77A9.29,9.29,0,0,0,38.8,23.59Z"/><path class="cls-12" d="M5.09,19.53c0,1.27.06,2.62,0,4A36.43,36.43,0,0,0,5.09,19.53Z"/><path class="cls-13" d="M49,139.82c-0.3-17.22.29-34.44,0-51.67C48.89,78.55,48.58,69,49,59.35c0.06-1.54.38-3.29-1.37-4.31l-0.54-.54c-1.57-1.19-3-.4-4.45.31-0.22.36-.29,0.87,0.16,0.89,2.35,0.12,2.47,1.54,2.49,3.47,0.08,7.31-.12,14.62-0.17,21.93-0.08,11.44.23,22.89-.15,34.33-0.13,3.77.39,7.5,0.12,11.27-0.39,5.41.65,10.85-.22,16.27a2.48,2.48,0,0,0,.5,1.59l2.29,0c2,0,4,.22,5.66-1.14-1.07-.69-2.31-0.33-3.45-0.52C48.68,142.13,49,140.92,49,139.82Z"/><path class="cls-14" d="M4.78,52.91c-2.19.7-2.25,2.41-2.24,4.32q0.06,40.59,0,81.19c0,1.48-.46,3,0.26,4.46A3.13,3.13,0,0,0,5.11,144c1.64-1.66,1.48-3.78,1.48-5.85q0-39.22,0-78.43c0-1.79-.19-3.62,1.24-5.06C7.93,52.12,6.2,52.79,4.78,52.91Z"/><path class="cls-15" d="M7.94,54.47c-3.19.16-2.26,2.48-2.26,4.31q0,40.67,0,81.35A16.27,16.27,0,0,1,5.11,144c1-.74,1.42.75,2.27,0.57,0.75-1.2.56-2.55,0.56-3.86q0-41.3,0-82.6c0-2.19.35-3.5,2.88-3.07C10.15,53.25,9.06,53.77,7.94,54.47Z"/><path class="cls-16" d="M52.42,141.75c0-4.07-.15-8.15-0.1-12.22,0.05-4.73.59-9.48,0.3-14.19-0.38-6.32-.26-12.64-0.25-18.94,0-6.61.32-13.23,0-19.84-0.17-4.07-.62-8.18,0-12.19,0.52-3.34-.46-6.63.28-9.9-0.78.08-1.67-.26-2.26,0.56-0.81.34-1.45,0.69-1.15,1.83,0.6,2.31.22,4.69,0.33,7,0.18,3.68-.71,7.35-0.36,11,0.84,8.72.38,17.46,0.41,26.18,0.05,13.28.13,26.57-.07,39.85a6,6,0,0,0,.27,3.06c1.14-.19,2.21-0.77,3.41-0.56a1.2,1.2,0,0,0,1.11-.58C53.67,142.62,52.41,143.51,52.42,141.75Z"/><path class="cls-17" d="M1.3,52.72a18.21,18.21,0,0,0-.43,5.34q0,39.51,0,79c0,1.38.35,2.86-.77,4a4.41,4.41,0,0,0,2.76,1.75c0.75-1.2.57-2.55,0.57-3.86q0-31.45,0-62.89c0-6.42.15-12.85-.1-19.26C3.24,55.06,3.52,54,5.1,53.34,4,52.25,2.88,51,1.3,52.72Z"/><path class="cls-18" d="M1.72,52.2C1.72,51,1,50.82,0,51.05Q0,64.93,0,78.81,0,110,.08,141.12c2.21-.27,1.61-2,1.61-3.3q0-40.19,0-80.39C1.65,55.69,2.53,53.94,1.72,52.2Z"/><path class="cls-10" d="M38.84,181.84c-0.16-8.57,0-17.15,0-25.72,0-5.83-3.72-9.41-9.58-9.5-1.41,0-2.83.05-4.24-.11a3.27,3.27,0,0,0-1-.1A53.56,53.56,0,0,0,15.36,148q0,0.85,0,1.7c0.72,1.32,1.78,1.16,2.92.67,3.59-1.55,7.39-1.3,11.15-1.21a5.77,5.77,0,0,1,5.6,4.67,20.91,20.91,0,0,1,.28,9c-1.15,6.59.44,13.13-.17,19.72-0.33,3.55.11,7.28,0.25,10.93,0.21,5.37,0,10.76.1,16.15,0,1.43,0,2.89,1.54,3.66a1,1,0,0,0,1-.1,1.18,1.18,0,0,0,1.12-.56C38.39,202.33,39,192.08,38.84,181.84Z"/><path class="cls-19" d="M41.14,156a14.81,14.81,0,0,0,0-2q0,1.71,0,3.43C41.11,157,41.12,156.49,41.14,156Z"/><path class="cls-19" d="M41.92,145.74a3.87,3.87,0,0,0-.8,3c0,1.77,0,3.53,0,5.3a14.81,14.81,0,0,1,0,2c0,0.48,0,1-.05,1.44,0,16.36,0,32.67,0,48.58-0.16-5.68-.23-11.93-0.13-18.14,0.17-10.15-.27-20.3.12-30.44q0-1.71,0-3.43a8.48,8.48,0,0,0-5.7-7.6,3,3,0,0,0-2.11,0,0.71,0.71,0,0,0-.47.84c4.45,2.05,6.5,5.47,6,10.39a32.67,32.67,0,0,0,0,3.68c0.15,8.68,0,17.35.14,26,0.09,7.15-.23,14.32,0,21.49,0,0.92-.24,2.15.84,2.46s1.51-.85,2-1.59a5.4,5.4,0,0,0,.53-3q0-30.51,0-61Z"/><path class="cls-20" d="M39.25,210.87v-2.8q0-24.89.27-49.77c0.05-5.42-1.24-9.5-6.65-11.46-1.06-1.13-2.58-.55-3.82-1a4.31,4.31,0,0,0-1.35,0c-1.1.39-2.41,0.09-3.34,1,1.93,1.18,4,.39,6.06.53,3.73,0.26,7.39,3.51,7.5,7.17,0.36,11,.11,22.05.25,33.08,0.1,7.86,0,15.77-.17,23.65,0,0.87.2,1.23,1,1.3,1.24-.63,2.51-1.14,2.68-2.83C40.9,209.92,40.25,211.11,39.25,210.87Z"/><path class="cls-21" d="M53.95,49.36a0.71,0.71,0,0,0-.39.47,0.54,0.54,0,0,1-.63.5,1.26,1.26,0,0,0-1.31.25,5.24,5.24,0,0,1-1.78.87c-11.28,2.48-22.71,1.61-34.1,1.32a24.61,24.61,0,0,1-8.05-1.38C6.56,51,5.33,50.82,4.56,49.74a7.74,7.74,0,0,0-1.13-1.5C1.24,47.9.34,49.13,0,51.05L1.72,52.2C2.84,52.58,4,53,5.1,53.4c1.1,0,2.27-.14,2.84,1.18,1,0.14,2-.26,2.84.68l0.28,0.23h0.28c2.22,0,4.59-.3,6.8.5,1.53,0,3,.5,4.53.5h3.4a1.42,1.42,0,0,0,.81-0.08,10.43,10.43,0,0,1,3.64-.14c1.57,0,3.22.5,4.62-.68,1.24-.76,2.72.17,4-0.57h2.27a0.77,0.77,0,0,0,1.14,0l4.55-.54a23.06,23.06,0,0,0,10.16-3.37C56.15,50.5,56.49,47.25,53.95,49.36Z"/><path class="cls-22" d="M36.25,210.14c0-8.34.08-16.68,0-25-0.07-6-.46-11.92-0.49-17.88,0-3.65.73-7.28,0.54-11-0.22-4.32-2.79-7.59-6.62-7.71S21.74,148,18,149.79a2.49,2.49,0,0,1-2.66-.13c0,0.75,0,1.51,0,2.26,0.69,0,1.39.62,2.07-.13A6.54,6.54,0,0,1,22.19,150c4.07-.14,8.56-2,11.65,2.52,0.88,1.42.41,3,.41,4.53v48.73c0,1.7.22,3.4,0.16,5.1-0.94,1.84.94,2.06,1.85,2.78,0.61,0.34.91,0,1.14-.51A3.35,3.35,0,0,1,36.25,210.14Z"/><path class="cls-17" d="M23.46,150.47c-4.65,1-5.8,2.76-5.38,7.41,0.13,1.4,1,2.72.53,4.15-1.23,4.07-1,8.32-.92,12.43,0.16,5.3.5,10.62,0.37,15.91-0.18,7.23-.38,14.44.07,21.66l0.55,0.54a2.92,2.92,0,0,0,.91-0.48c-0.65-4.75-.16-9.51-0.23-14.26-0.05-3.82-.27-7.66,0-11.46,0.31-4.56-.07-9.1.15-13.67,0.24-4.89-.36-9.88-0.18-14.82s1.55-6.17,6.83-6.54a21.45,21.45,0,0,0,2.75-.55C27.15,149.74,25.26,150.1,23.46,150.47Z"/><path class="cls-23" d="M37.51,0.92c-2.48-.1-5.09-0.05-7.79,0h7.79Z"/><path class="cls-23" d="M19.78,0.9Q18.14,0.84,16.5.7a0.63,0.63,0,0,0,.36.18Z"/><path class="cls-23" d="M44.89,0.47c-1.35-.34-2.77.22-4.1-0.35l-24.32,0a0.49,0.49,0,0,0,0,.56q1.64,0.14,3.28.2c3.38,0,6.73,0,9.94,0,2.7,0,5.32-.09,7.79,0H29.72C26.5,1,23.16,1,19.78.9l-2.92,0A0.63,0.63,0,0,1,16.5.7c-0.71-.06-1.42-0.11-2.14-0.2a5.46,5.46,0,0,0-3.07.11,3.74,3.74,0,0,0-2.74.68,0.81,0.81,0,0,0,.66.95,3.49,3.49,0,0,0,1.75,0c1.24-.48,2.39.1,3.58,0.27C23.37,2.92,32.2,2.55,41,2.58c1.86,0,3.77.29,5.59-.38C47.18,1,47.18,1,44.89.47Z"/><path class="cls-24" d="M3.94,27.77c-1,1.74-.43,3.64-0.46,5.46-0.09,5,0,10,0,15A2,2,0,0,0,3.94,50c0.66-.31,1.46-0.42,1.74-1.24a3.53,3.53,0,0,0,.16-0.81c0.09-2.05,0-4.11.06-6.17-0.53-3.15-.25-6.33-0.45-9.5C4.71,30.84,5.1,29,3.94,27.77Z"/><path class="cls-25" d="M53.33,27.26c-0.67-.82-0.3-1.79-0.34-2.69-0.13-3.44.19-6.88-.18-10.31a0.78,0.78,0,0,0-.94.26,3.58,3.58,0,0,0-.51,2.15c0,4.77-.17,9.54.12,14.31,0.91,4.73.19,9.51,0.44,14.26A8.18,8.18,0,0,1,50.79,50c0,1.58.73,1.12,1.48,0.48h0.24l0.22-.08c1.25-1.21.69-2.77,0.82-4.2,0-3.07-.06-6.15,0-9.22s-0.32-6.12.18-9.16Z"/><path class="cls-3" d="M35.13,144.31c-1.92,0-3.9-.35-5.65.82h-4c-1.81,1.16-3.83.28-5.73,0.6,0.17,1.2,1.15,1.13,1.93,1.06a53.24,53.24,0,0,0,6.06-.5h1.17c1.4,0.55,2.85.12,4.27,0.26,0.63,0,1.25,0,1.88,0,1.39,0,2.78-.07,4.16-0.05a2.47,2.47,0,0,0,2.11-.89l-1.09-.45C38.69,143.91,36.87,144.34,35.13,144.31Z"/><path class="cls-26" d="M49,7.6a7.75,7.75,0,0,0,.48,4.09c1.8,0.13,1.8.13,2.37,2.32l0.3,0.24,0.49,0A1.72,1.72,0,0,0,53,13.06c0.83-1.38.22-3,.73-4.43,0.17-1.31-.94-2.19-1.15-3.37C51.92,6.8,50.12,6.65,49,7.6Z"/><path class="cls-27" d="M52.61,5.29c-1.34-2.16-2.94-4-5.54-4.69a2.46,2.46,0,0,0-2.31,0c0.5,0.9,1.77.22,2.27,1.12A3.4,3.4,0,0,0,48.5,3.35c0.64,0.57,1.29,1.12,1.88,1.75,0.17,0.22.34,0.55,0.1,0.7-0.75.48-1.07-.32-1.57-0.58C48,4.57,47.22,3.78,46,4.54c0.23,1.89,1.49,2,3.2,3h3.3C52.57,6.5,51.7,6,52.61,5.29Z"/><path class="cls-28" d="M4,6.9C3.76,9,2.77,11,4,13.1c0.57,0.2,1.1.38,1.12-.57,0-.74-0.29-1.83.37-2.13,2-.91,1-2.24.75-3.51C5.49,6.18,4.75,6.66,4,6.9Z"/><path class="cls-29" d="M52.89,29.57c0.86,5.65.1,11.34,0.41,17q0.22,0.34.44,0V27.88A1.93,1.93,0,0,0,52.89,29.57Z"/><path class="cls-30" d="M19.77,145.73c-1.39.66-3.43-1.5-4.39,0.92,2.8,1.45,5.62-.14,8.43-0.14h0.56c1.13,0,2.39.6,3.39-.38C25.11,145.76,22.37,146.75,19.77,145.73Z"/><path class="cls-31" d="M32.3,215.4c1.65,0.88,3.9.73,4.67,3.17,0.2,0.63.32-.89,0.94-0.9q0-1.43,0-2.85A9.4,9.4,0,0,0,32.3,215.4Z"/><path class="cls-20" d="M15.36,148c3,0.8,5.65-.65,8.45-1.12l-8.43,0Q15.37,147.39,15.36,148Z"/><path class="cls-32" d="M52.73,13.12l0,1.09c0,2.54-.09,5.09.06,7.62,0.11,1.81-.68,3.74.59,5.43q0-7.08-.06-14.16A0.32,0.32,0,0,0,52.73,13.12Z"/><path class="cls-33" d="M36.26,213.64a5.08,5.08,0,0,1-2.79.7l-0.61.43a1.24,1.24,0,0,0-1.53-.11,0.66,0.66,0,0,0-.16.73H32.3c1.83-.48,3.81.45,5.59-0.58L38,213.13h-0.6Z"/><path class="cls-34" d="M5.13,27.26a0.34,0.34,0,0,0-.62,0L4,27.28a2.66,2.66,0,0,0,0,.49c0.29,1.37-.63,3.08,1.16,4a8.08,8.08,0,0,0,.55-3.39Z"/><path class="cls-35" d="M40.78,0.12c1.23,0.92,2.66.31,4,.53l2.31-.06C45-.48,42.88.26,40.78,0.12Z"/><path class="cls-36" d="M5.68,4.62C4.2,4.71,4.54,6.12,4,6.9c0.74,0.52,1.48,0,2.22,0C6.46,6,4.91,5.61,5.68,4.62Z"/><path class="cls-37" d="M52.73,13.12l0.55,0c1.1-1.39.45-3,.49-4.47C52.88,10,53.35,11.69,52.73,13.12Z"/><path class="cls-38" d="M11.3,0.61l2.94,0.06A2.13,2.13,0,0,0,16.43.61q0-.24,0-0.47C14.73,0.21,12.94-.39,11.3.61Z"/><path class="cls-38" d="M8.56,1.28c-0.94.56-2.13,0.85-2.32,2.19l1.08,0a4.35,4.35,0,0,0,1.86-1,0.27,0.27,0,0,0,.08-0.23A0.51,0.51,0,0,0,9.1,1.8Z"/><path class="cls-39" d="M53.3,46.57l-0.57,3.9-0.06.16c0.67,0.25,1.21.26,1.26-.66v-0.6l-0.21-2.8H53.3Z"/><path class="cls-40" d="M20.43,213.66l-1.12.07a1.7,1.7,0,0,0,0,.51l1.64,0.6a1.24,1.24,0,0,0,1.84-.25,0.8,0.8,0,0,0-.38-0.68A3.59,3.59,0,0,0,20.43,213.66Z"/><path class="cls-41" d="M35.7,507.8q0-128.26,0-256.52c0-9.82,0-19.64,0-29.46,0-3.86-.68-4.71-4-5.29,0.46,1.23,1.92,1.47,2.42,2.95a12.76,12.76,0,0,1,.53,6.23c-0.5,3.53.69,7.21,0.29,10.66-0.76,6.67-.09,13.31-0.34,20-0.19,5.16.26,10.36,0.28,15.5s-0.23,10.64-.24,15.92q-0.25,111.72-.11,223.45c0.8,0.92,1.87.45,2.83,0.57C35.39,511.06,35.7,509.38,35.7,507.8Z"/><path class="cls-15" d="M11.34,55c2.19,1.18,4.54.28,6.8,0.57C16,54.42,13.6,55.32,11.34,55Z"/><path class="cls-31" d="M30.85,214.53a17.31,17.31,0,0,0-8.19-.19,1.94,1.94,0,0,1-1.71.5c2.58,0.87,5.3.77,8,1.12,0.6-.83,1.49-0.48,2.27-0.57q0-.24,0-0.48Z"/><path class="cls-42" d="M33.57,56.37C31.28,56,29,55.5,26.64,56.5H26.07c4.31,1,4.41,1.41,3.84,6.68a141.19,141.19,0,0,0-.44,15.88c0,5.42.49,11,.4,16.47-0.08,4.5-.28,9-0.08,13.5,0.14,3.08-.77,6.09-0.17,9.18,0.87,4.48-.26,9.06.44,13.56,0.19,1.22-1.35,1.86-.81,3.13,1.44,3.37.34,6.81,0.22,10.22h5.67c1-2.8.42-5.78,0.3-8.54-0.25-6,.93-12,0.17-18-0.47-3.69.25-7.51,0.1-11.18-0.25-5.84.12-11.65-.08-17.46-0.11-3.21.74-6.43,0.06-9.54a18.83,18.83,0,0,1-.19-7.54c0.81-4.32-.08-8.6.44-12.91C36.14,58.3,35.54,56.73,33.57,56.37Z"/><path class="cls-1" d="M30.78,211.77c0.89-9,.24-18.09.38-27.14a10.78,10.78,0,0,0-.16-2.81c-1.19-4.64,0-9.31-.1-14-0.07-4.18.17-8.42,0.08-12.64a1.9,1.9,0,0,0-1.84-2.08,28.75,28.75,0,0,0-5.09,0,2,2,0,0,0-1.91,2.12c0,4.64-.47,9.27-0.14,13.92a105.75,105.75,0,0,1,.13,10.66c-0.18,5.64-.24,11.29-0.3,16.91,0,4.86.17,9.75,0.1,14.63,0,1.37-.77,1.68-1.52,2.26l1.72,0.53c3-.15,6,0.43,9,0.55l0,0.17,1.69-.15C32.86,213.35,30.57,214,30.78,211.77Z"/><path class="cls-43" d="M40.79,129.3c-0.16-7.71-.81-15.45-0.38-23.13,0.3-5.35.28-10.69,0.35-16,0.08-5.67-.19-11.34-0.24-17,0-3.68.14-7.36,0.07-11,0-1.85,0-3.9-.79-5.46-0.6-1.19-2.64-.19-4-0.57a2.6,2.6,0,0,1-.68-0.47c-2.32-.17-4.68.36-7-0.34a1.25,1.25,0,0,0-1.52.91c1.7,0,3.4-.08,5.09,0s3.69,1,3.54,2.9c-0.28,3.71.29,7.45-.09,11.05A44.45,44.45,0,0,0,35,81c0.55,4-.35,8.26-0.2,12.39s-0.91,8.54.25,12.81a5.61,5.61,0,0,1-.2,4.15,4.75,4.75,0,0,0-.4,3.14c0.38,4.53.95,9.12,0.59,13.62a81.57,81.57,0,0,0,.12,18h5.11c-0.3-.94.72-1.5,0.71-2.31Q40.92,136.06,40.79,129.3Z"/><path class="cls-44" d="M45.9,129.25c0-7.35-.5-14.71.16-22.06,0.15-1.63-.74-3.34-0.6-5,0.76-8.6.23-17.2,0.42-25.8,0-2.22-.07-4.41,0-6.63,0.07-4.17.21-8.28,0.29-12.46a1.34,1.34,0,0,0-1.53-1.51c-0.73,0-1.54-.33-2.09-0.33H41.38c0.07,1,.82.89,1.62,0.92,1,0,1.18.43,1.15,1.31-0.19,5.78-.39,11.56-0.48,17.35-0.05,3.37-.13,6.75-0.1,10.13,0.18,17.17.06,34.35,0.12,51.53,0,1.85,1.13,3.8.35,5.54s-0.16,2.12,1.32,2.29c-0.14-1.8,1.28-3.56.9-5.06C45.36,136,45.91,132.65,45.9,129.25Z"/><path class="cls-45" d="M39.09,145.79c-1.31.54-2.74-.14-4,0.43l-1.61,0a0.27,0.27,0,0,0-.19.19q-0.09.19,0.2,0.37l1.69,0a8.46,8.46,0,0,1,4.27,2.43c1.42,1.59,2.19,1.24,2.5-.76l0-2.77-0.58-.17Z"/><path class="cls-43" d="M35.14,55.6c1.32-.22,2.77.52,4-0.57C37.79,55.25,36.33,54.51,35.14,55.6Z"/><path class="cls-46" d="M34.57,160.43c-0.71.55-.56,1.35-0.56,2.08,0,7.92-.3,15.85.18,23.74,0.14,2.32-1.14,4.81.38,7a5.24,5.24,0,0,0,.58-2.72q0-13.71,0-27.42A5.24,5.24,0,0,0,34.57,160.43Z"/><path class="cls-46" d="M34.57,210.86a5.35,5.35,0,0,0,0-5.1A5.13,5.13,0,0,0,34.57,210.86Z"/><path class="cls-46" d="M34.57,157c0.85-1.64.85-3.18-.57-4.53C34.26,154,33.44,155.64,34.57,157Z"/><path class="cls-47" d="M50.44,55H47.61c1.63,4.77-.13,9.61.32,14.44,0.43,4.67.11,9.41,0.21,14.12,0.11,5.22.68,10.51,0.38,15.64-0.43,7.5-.17,15-0.32,22.46-0.13,6.58.12,13.17-.16,19.73-0.08,1.8.25,2.4,1.84,2.57a9.34,9.34,0,0,0,.54-2.16c0-8,.19-16.1,0-24.15-0.15-7,.24-14-0.36-21-0.28-3.27.55-6.77,0.36-10.19-0.51-9.14-.09-18.28.09-27.41C50.55,57.73,49.27,56.39,50.44,55Z"/><path class="cls-48" d="M49.93,11.9a10.48,10.48,0,0,0-.72-4.47L45.89,4.59l-0.4-.36C41.1,3.31,36.65,4,32.23,3.8c-4.55,0-9.09,0-13.64,0-1.9,0-3.79,0-5.69.13a4.22,4.22,0,0,0-.86.22C11.17,4.52,10.33,5,9.49,5.39,9,5.78,8.26,6,8.52,6.85a26.12,26.12,0,0,0-1.1,10.88c0.25,3.83,1.77,7,7.06,6.8,9.53-.27,19.06-0.06,28.6,0,0.66,1.24,1.69.91,2.69,0.63,2.52-.69,3.81-2.57,4.64-4.86a5.41,5.41,0,0,0,.22-1.43C50.39,16.52,51.37,14.09,49.93,11.9Z"/><path class="cls-49" d="M37.12,32.24a1.61,1.61,0,0,0,.1-0.4C37.18,32,37.14,32.11,37.12,32.24Z"/><path class="cls-49" d="M49.12,28.11a0.89,0.89,0,0,0,.18-0.25Z"/><path class="cls-49" d="M51.35,24.43c-0.27-1.41-.17-3-1.5-4-1.56,2.52-3.17,4.94-6.77,4-0.41.93-1.13,0.6-1.89,0.61-1.83,0-3.75-.64-5.48.48-0.25.38,1,1.68-.84,1.14-0.79-.24-1.3.92-1.77,1.62-0.16.19-.34,0.37-0.51,0.56-1.87,1.42-1.05,3.64-1.62,5.52-1.22.28-2.86-.7-3.72,0.94-0.63,1.2-1.8,1.91-2.54,3a5.46,5.46,0,0,0-.51,3.82c0.71,1.09,1.46,2.08,3,1.39-1.52,1.84-1.52,1.84-.89,3.84,1.79,1.65,6.19,1.6,6.22-.11,0-2.76,4.2-3.32,2.8-6.38a0.74,0.74,0,0,1,.58-0.54c3.13-.08,1.89-1.9,1.33-3.38S35.8,34.14,37,32.51a1.09,1.09,0,0,0,.11-0.27c0-.13.06-0.27,0.1-0.4a7.42,7.42,0,0,0-.12-1.74,1.73,1.73,0,0,1,.12,1.74,1.61,1.61,0,0,1-.1.4,1.21,1.21,0,0,0,.46,1.28,13.65,13.65,0,0,1,3.59-1c0.73-.07,1.6-0.38,1.51-1.35s-0.93-1-1.72-.89a1.12,1.12,0,0,1-.75.1c0.19,0,.35-0.15.52-0.2,0.4-.11.29-1.18,0.88-0.64s1.41,1,1.53,1.94a1.06,1.06,0,0,0,1.1,1.06c0.75,0,.84-0.61.82-1.22,0.19,0,.1.2,0.19,0.27a0.6,0.6,0,0,0,1-.42c0.17-1.72,1.78-2,2.76-3l0.08-.08,0.18-.25a0.89,0.89,0,0,1-.18.25l-0.05.07c-0.07.9-2.13,2.42,0.76,2.42A4.2,4.2,0,0,0,51,29.74a1.14,1.14,0,0,0,.16-0.68,2,2,0,0,1,0-1.59,2.2,2.2,0,0,0,.07-0.67,4.08,4.08,0,0,1,0-1.67A3.63,3.63,0,0,0,51.35,24.43Z"/><path class="cls-50" d="M21.26,30a0.46,0.46,0,0,0,0,.35l0.06-.43h0Z"/><path class="cls-50" d="M10.89,43.85l0,0Z"/><path class="cls-50" d="M21.34,29.74a0.56,0.56,0,0,0-.15.05l0.12,0.1A0.43,0.43,0,0,0,21.34,29.74Z"/><path class="cls-50" d="M21.33,29.92h0l0,0v0h0Z"/><path class="cls-50" d="M21.34,29.5h0c0,1,0,.53-0.06.64a0.44,0.44,0,0,1-.16.55,0.6,0.6,0,0,0,.16-0.4,0.4,0.4,0,0,1,0-.33l0-.05c-0.25.06-.29,0-0.11-0.13-2.76-2.47-2.82-2.34-4.36.84-0.82,1.7-3,1.17-4.43,2.12-1,.69-0.72-1.27-1.7-1.73-0.42,2.49,1.14,3.54,2.61,4.78-0.81-.17-1.65,1.5-2.28-0.41-0.4-1.21-1.68.12-2.49-.33,1.12,2.43-1.29,3.18-2,4.73-1-.87-0.83-1.92-0.14-2.34,1.2-.73-0.55-1.79.47-2.36-2-1.72-.57-3.82-0.68-5.76a2.59,2.59,0,0,0-.51-0.92A6.85,6.85,0,0,0,5.1,31.8l0,10.2c0.88,1.4.3,2.9,0.33,4.36,0,0.77-.44,2.08.79,2,0.93-.08,2.43.49,2.92-1.13,0.15-.48-0.1-1.44.55-1.36,1,0.12,1.46.06,1.48-1a1.44,1.44,0,0,0-.28-1l0,0A2.13,2.13,0,0,0,9.4,43.3a1.85,1.85,0,0,1,1.49.56l0,0a2.3,2.3,0,0,1,.45,1.31c0.06,0.76.25,1.66,1.34,1.26,0.83-.31,2.31-0.47,2.08-1.55-0.44-2,1-3.18,1.87-4.36a4.05,4.05,0,0,1,.64-1.71,2.54,2.54,0,0,1-.64,1.71,2.26,2.26,0,0,0,.12.9,2.2,2.2,0,0,0,1.44,1.64c1,0.2.82-.81,1.11-1.32,0.49-.86.77-1.94,1.94-2-2,1-.72,2.86-0.23,3.63,0.82,1.29,1.65-.08,2.28-0.85a1.3,1.3,0,0,1,0-.28c-0.11-.53.11,0,0.13,0A0.87,0.87,0,0,0,24.37,42c0.7-1,.12-2.31.57-3.4a7.19,7.19,0,0,0-1.13-8.71A4.87,4.87,0,0,0,21.34,29.5Z"/><path class="cls-50" d="M16.66,40.55a2.54,2.54,0,0,0,.64-1.71A4.05,4.05,0,0,0,16.66,40.55Z"/><path class="cls-51" d="M35.7,25.5H35.14c-0.68,0-1.34.34-1.7-.48-1.73,0-3.64-.31-3.64,2.41a2.2,2.2,0,0,1-.9.58c-0.34.55,0.2,0.79,0.46,1-0.51-.09-0.74-0.53-1-0.53h-1.7c-0.9,0-1.31,0-1.14.68,0.44,1.72-.63.35-1.13,0.36l-0.57.57c0.12,1-.42,2.31,1.25,2.63a0.73,0.73,0,0,1,.35,1.14c-0.79,1.53-.11,3.18-0.47,4.73,0.73-.57,1.81-1,2.13-1.74,1-2.29,2.67-2.1,4.47-1.52,0.67-2.23-.57-4.86,1.9-6.39,0.68-1.59,1.67-2.44,3.62-1.27C36.14,27.07,36.49,25.5,35.7,25.5Z"/><path class="cls-52" d="M12.17,1.54a12.28,12.28,0,0,1-3.09.8A1.94,1.94,0,0,0,7.32,3.46c0.41,1.12-1.8,3.18,1.2,3.39L9.64,5.79c0.51-.87,1.57-0.7,2.28-1.2h0c1.47-.78,3.63-0.16,4.69-2.13C15.32,1.7,14,2.4,12.95,1.76A3.18,3.18,0,0,0,12.17,1.54Z"/><path class="cls-50" d="M26,28.77c-0.31-.47.28-0.73,0.67-0.93C27,25,26.27,24.39,23.32,25c-0.45.1-1,.09-0.92,0.75a0.86,0.86,0,0,0,1.26.68c0.48-.15.71-1,1.4-0.52,0.15,1.59-1.51,1-2.19,1.88,1,0.2,1.77.59,1.51,1.74,0.39,0.81.68,1.84,1.92,1S26.37,29.37,26,28.77Z"/><path class="cls-53" d="M5.25,27.24l0.61,0c0.93-4,.39-7.91-0.61-11.8V27.24Z"/><path class="cls-49" d="M33.44,25c-0.16.48-.56,1,0.1,1.39,0.89,0.49,1.25-.2,1.6-0.83A1.7,1.7,0,0,0,33.44,25Z"/><path class="cls-51" d="M28.21,27.22a2.17,2.17,0,0,0,1-.3L27.9,25.32C27.92,26.1,27,26.87,28.21,27.22Z"/><path class="cls-50" d="M28.91,27.5H28.34c0.25,2,1.31,1.13,2.33,1C30.26,27.76,29.21,28.5,28.91,27.5Z"/><path class="cls-30" d="M40,148.94a4.69,4.69,0,0,0-4.84-2.09c4.87,2.47,6.17,6.58,5.71,11.73-0.56,6.13,0,12.28,0,18.42q0,14.23,0,28.46a3.66,3.66,0,0,0,.43,2.65c0.56-20-.57-39.83.65-59.6C41.35,149,41.31,150.72,40,148.94Z"/><path class="cls-30" d="M28.92,146.28c1.19,1.06,2.64.33,3.95,0.56l0.58,0v-0.57Z"/><path class="cls-54" d="M47.86,50.84q-19,0-38,0c-1.11,0-2.31-.16-3.12.91,3.55,1.76,7.45,1.93,11.24,2.07,6.88,0.25,13.78.3,20.65,0,4.15-.19,8.43-0.29,12.36-2.1C50.15,50.76,49,50.84,47.86,50.84Z"/><path class="cls-55" d="M51,50.49a1.52,1.52,0,0,0-1.22-.39,6.58,6.58,0,0,1-3.54-.3c-3.76-.34-7.53.1-11.29-0.17-5.72,0-11.44.1-17.16,0.06-4.24-.11-8.48.26-12.71-0.26C4.4,49,4,49.14,3.94,50a3.16,3.16,0,0,0,2.83,1.8l44.25,0a1.23,1.23,0,0,0,1.24-1.18C51.85,50.52,51.41,51.11,51,50.49Z"/><path class="cls-56" d="M52.67,50.62c0.15,0.58.4,1.11,1.1,0.67A0.75,0.75,0,0,0,53.93,50,1.48,1.48,0,0,1,52.67,50.62Z"/><path class="cls-35" d="M13.61,1.72a0.85,0.85,0,0,0-1.18.09c0.91,1.07,2.39,0,3.37.86L11.9,4.61l6.32-.05C23.11,4,28,4.49,32.92,4.08c3.7-.32,7.38.45,11.08,0.19,0.68-1.49-.55-1.16-1.26-1.33a0.39,0.39,0,0,0-.12,0l-0.1,0a0.1,0.1,0,0,0,0,.12c0.1,0.36-.37-0.16,0-0.11h0.06a0.18,0.18,0,0,1,.1,0c2.06-.35,4.1,1.16,6.11,0L47,1.76Z"/><path class="cls-35" d="M42.52,2.95l0.1,0A0.18,0.18,0,0,0,42.52,2.95Z"/><path class="cls-57" d="M16.43,0.5C15.7,0.5,15,.59,14.24.61c1.16,1,2.54.49,3.8,0.5,7,0.06,14,0,21,0,0-.19,0-0.64,0-0.64H16.43Z"/><path class="cls-35" d="M10.77,1.73L9.1,1.8q0,0.27,0,.55c1,0.19,2.07.52,2.86-.54A0.84,0.84,0,0,0,10.77,1.73Z"/><path class="cls-38" d="M10.77,1.73l1.18,0.08h0.49l1.18-.09A2.06,2.06,0,0,0,10.77,1.73Z"/><path class="cls-58" d="M27.49,42.65c-1.37,2.55-2-.15-3.12-0.15H23.24c-0.52,0-1,.75-1.57,1.25,0.71-1.16-2.37-3.7,1.14-3.71-1.1-1.68-2-.86-2.89-0.11s-1.69,1.4-1.42,2.79c-2.54-2-.59-3.54.37-5.33-3.2.69-2.63,4.57-5.29,5.36a1.19,1.19,0,0,0,.13.44c1.8,2.24-.55,2.16-1.57,2.82-0.91-3.2-1.73-3.69-4.31-2.42,0.91,0.56,2-.35,2.67.49a1.47,1.47,0,0,1,.21,1.06c-0.1.55-.28,0.09-0.49,0-1.52-.66-2.28-0.72-1.61,1.43,0.4,1.28-1.31,1-2,1.23-1.22.42-.93-0.68-0.86-1.4,0.12-1.38.28-2.77,0.31-4.15,0-1-.62-0.23-1-0.26q0,3.39,0,6.78c2.55,1.33,5.28.9,8,.82,1.45-.65,10.2-1.23,11.78-0.8a3.16,3.16,0,0,0,.77-0.19c0.49-.37,1.34-0.42,1-1.37C25.29,45.34,28.91,44.68,27.49,42.65Z"/><path class="cls-59" d="M13,49.36c-2.6-.63-5.26-0.48-7.9-0.59l0,0.66C5.37,51,6.61,50.51,7.54,50.52c3.35,0,6.69,0,10,0,0.45-.33.95-0.64,0.62-1.34C16.44,48.26,14.71,48,13,49.36Z"/><path class="cls-60" d="M52.15,31.22a2.89,2.89,0,0,0-.79,2.26,8,8,0,0,0,0,1.47c0,1.79.06,3.57,0,5.36s0,3.42.05,5.14S50.9,48,49.13,48.21a27.86,27.86,0,0,1-4.1,0c-1.53.16-3.07-.52-4.58,0.13a23.84,23.84,0,0,1-3,.33c-1,.2-2.23.29-2.34,1.76l11.91,0a3.38,3.38,0,0,0,2.82,0l1.14,0a4.71,4.71,0,0,0,1.72-4.22c-0.08-3.57,0-7.14,0-10.71C52.64,34.12,53.22,32.56,52.15,31.22Z"/><path class="cls-61" d="M51,15.16a8.12,8.12,0,0,1-.54,2.24,5.91,5.91,0,0,0,0,2.36A11.4,11.4,0,0,1,51,25h0c-0.33.57,0.11,1.13,0,1.7q0,0.28,0,.56c-0.35.57,0.09,1.13,0,1.7q0,0.28,0,.56c-0.75,1.15-.19,2.37-0.11,3.55,0,0.67.64,0.84,1.25,0.43q0-1.14,0-2.28,0-8.48,0-17l-0.09,0C51.37,14.11,51.22,14.66,51,15.16Z"/><path class="cls-30" d="M35,146.21c1.36-.07,2.78.48,4-0.43C37.73,145.81,36.33,145.42,35,146.21Z"/><path class="cls-62" d="M51.64,10.62c-1.34-.56-1,1-1.7,1.28q0,3.72,0,7.44a0.71,0.71,0,0,0,1.08,0c0.2-.57-0.65-1.13,0-1.7,0.27-.74-0.18-1.65.55-2.27a1.25,1.25,0,0,1,.54-1.13,13.49,13.49,0,0,0,0-1.94C52,11.73,52.53,11,51.64,10.62Z"/><path class="cls-52" d="M48.73,2.91a17.49,17.49,0,0,0-6.82-.4C42.4,3.6,43.69,3.2,44.22,4c0.43,0.57,1.26,0,1.69.59l0,0c1.18-.18,2,0.57,2.85,1.14,1.37,0.92,2.4,1.14,2.21-1.09Z"/><path class="cls-63" d="M51,4.64c-0.29,1.26-1.1,1.49-2.21,1.09,0.49,1,1.32,1.48,2.26.94S51.75,5.3,51,4.64Z"/><path class="cls-64" d="M22.15,214.19l0.51,0.15a29.36,29.36,0,0,0,8.49.4C28.16,214.42,25.24,212.94,22.15,214.19Z"/><path class="cls-65" d="M45.86,11.25c0-1.53-.59-2.33-2.21-2.11a27.75,27.75,0,0,0,0,10.75c1.68,0.26,2.18-.67,2.17-2.14C45.85,15.58,45.83,13.42,45.86,11.25Z"/><path class="cls-66" d="M30.91,9.17C30,9.23,30,10,30,10.67c0,2.62,0,5.29,0,7.91,0,0.67.09,1.5,1,1.48a1,1,0,0,0,1.13-1.11c0.05-1.31,0-2.45,0-3.45h0c0-3,0-3.08,0-4.39C32.18,10.31,31.88,9.12,30.91,9.17Z"/><path class="cls-67" d="M17.41,9.5c-0.8-.1-1,0.23-1,0.9,0,2.73,0,5.4,0,8.13a1,1,0,0,0,.91,1.11,1.28,1.28,0,0,0,1.25-1.43c0.05-1.41,0-1.71,0-4.71h0.05c0-1,0-2.18,0-3.5C18.74,9,18.07,9.58,17.41,9.5Z"/><path class="cls-68" d="M13.09,9.5c-1.09,0-1.24.4-1.2,1.3,0.05,1.21,0,2.43,0,3.65s0,2.43,0,3.65c0,0.84-.08,1.85,1.17,1.8,1,0,1.09-.87,1.09-1.66,0-2.52,0-5,0-7.57A0.92,0.92,0,0,0,13.09,9.5Z"/><path class="cls-69" d="M22,9.32c-1-.18-1.06.19-1.06,0.91,0,1.22,0,2.27,0,3.27h0c0,2,0,3,0,4.34,0,0.75,0,2,1.07,2a1.19,1.19,0,0,0,1.08-1.41c0-2.63,0-5.32.09-7.95C23.25,9.49,22.68,9.44,22,9.32Z"/><path class="cls-70" d="M36.72,9.75A0.59,0.59,0,0,0,36,9.66c-0.62,1.29.28,2.79-1.72,4V19.8c2,0.92,2.34-.12,2.39-1.6a1.46,1.46,0,0,1,.17-0.55,20.77,20.77,0,0,0-.06-7.93Z"/><path class="cls-71" d="M41.38,9.13a1.86,1.86,0,0,0-.58.83c-0.32,3-.61,6,0.24,9l0.36,0.36c1.28-2.53,0-5.3.75-8a6,6,0,0,1,.65,2.57c0.47,2-1.27,4.3.9,6q0-5.38,0-10.75C42.89,9.7,42.13,10.28,41.38,9.13Z"/><path class="cls-72" d="M25.56,15.91c0,0.94-.08,1.88-0.06,2.82a1,1,0,0,0,1,1.14,1,1,0,0,0,1.13-1c0-3,.7-6.12-0.4-9.11A19.43,19.43,0,0,0,25.56,15.91Z"/><path class="cls-73" d="M44.22,4a44,44,0,0,1-5.88-.37c-2-.28-4.09-0.71-6,0.37a0.26,0.26,0,0,0-.19.17q-0.1.17,0.2,0.32l13.61,0.1A2,2,0,0,0,44.22,4Z"/><path class="cls-74" d="M40,18a34.86,34.86,0,0,1,0-6.91,1.77,1.77,0,0,1,1.34-1.27l0-.66c-1.81-1.28-3-1.49-2.87,1.41,0.12,2.7,0,5.42,0,8.13,0,0.74-.07,1.58,1,1.74s1.72,0.12,1.9-1l-0.12-.09A1.77,1.77,0,0,1,40,18Z"/><path class="cls-75" d="M18.22,4.55L32.31,4.5q0-.24,0-0.49C27.59,3.8,22.88,3.53,18.22,4.55Z"/><path class="cls-76" d="M25.43,10.68c0.1,1.74.09,3.48,0.13,5.23,0.37-2.11,2-3.88,1.64-6.19C26.33,9.52,25.34,9,25.43,10.68Z"/><path class="cls-77" d="M34.61,9.22v4.44c2.08-.7,1.62-2.48,1.71-4C36,8.41,35.31,8.79,34.61,9.22Z"/><path class="cls-78" d="M49.92,19.35l-0.07,1.1L51,25a6.53,6.53,0,0,0,0-5.67H49.92Z"/><path class="cls-74" d="M36.81,17.65a11.19,11.19,0,0,0,0-7.93Q36.81,13.68,36.81,17.65Z"/><path class="cls-74" d="M34.6,19.8a1.14,1.14,0,0,0,1.84.4c0.57-.46,1.34-1.14.38-2C36.42,19.2,36,20.23,34.6,19.8Z"/><path class="cls-74" d="M34.82,7.94L34.61,9.22c0.62-.1,1.27-0.31,1.7.41a2.54,2.54,0,0,0,.5.12C36.83,8.4,35.45,8.58,34.82,7.94Z"/><path class="cls-79" d="M9.64,5.79a3.54,3.54,0,0,0,2.28-1.2C11,4.67,9.89,4.44,9.64,5.79Z"/><polygon class="cls-80" points="49.31 27.84 49.31 27.84 49.31 27.84 49.31 27.84"/><path class="cls-80" d="M43.48,41.87l0-.09Z"/><path class="cls-80" d="M49.87,30.1c-0.41.07-1.1,0.65-.9-0.46,0.11-.6.23-1.2,0.34-1.8-1.54.76-4.29,0.24-3.78,3.41l-0.4-1.85c-0.75.85,0.13,2-1,2.7l-3.26-5.32,1.33,4.56c-1.28,1.46-3.55-.23-4.87,1.59,0.17-1.35,2.12-3-.64-3.62,0,1,.38,2.66-0.06,2.93-3,1.85-.26,3.52,0,5.22a12.83,12.83,0,0,0,.69,1.5c0.06,0.21.32,0.65-.34,0.8-2.1.47-2.09,0.52-3.12,1.79,0.08,1.24,1.78-.69,1.72.95-2.19.13-2.9,0.71-3.23,2.61-0.51,2.88-3.21,3.82-5.73,2l-1.13,1.14a1.18,1.18,0,0,0,1.19,1.31c3.09,0.07,6.21.35,9.11-1.11,0.56-1.36,1.7-1.52,3-1.55,1.92,0,2.58-1.24,2.47-3.33,0.17,1.26.28,2.33,1.45,2.44a0.92,0.92,0,0,0,1.12-.89,3.69,3.69,0,0,1-.21-0.86c0-.12,0-0.24,0-0.36a6.85,6.85,0,0,0-.16-2l0-.09a1.54,1.54,0,0,0-.22-0.33,2,2,0,0,1,.22.33l0,0.09a4.13,4.13,0,0,1,.16,2,1.76,1.76,0,0,0,.16.59,2.13,2.13,0,0,1,0,.63c0.31,0.79.92,1,2.05,0.38a4.06,4.06,0,0,0,2.29-2.64,1.69,1.69,0,0,0-1.41-2.24,1.13,1.13,0,0,0,.33-0.73,2.2,2.2,0,0,0-.95-0.41c-1.08-.12-2.25.17-3.21-0.48a2,2,0,0,1-.39-0.32,2.2,2.2,0,0,0,.39.32c0.94,0.61,2.15.28,3.21,0.48a2.88,2.88,0,0,1,.76.17,0.56,0.56,0,0,1,.19.24h0A1,1,0,0,0,48,38.67c0.47,0.13-1.15-1.37.35-.44,0.47,0.29,1,.71,1.52.24s0.17-1.22-.15-1.78c-0.73-1.27-.95-2.26.58-3.3S51.43,31,49.87,30.1Z"/><path class="cls-80" d="M46.91,39.65a2.88,2.88,0,0,0-.76-0.17,2.2,2.2,0,0,1,.95.41A0.56,0.56,0,0,0,46.91,39.65Z"/><path class="cls-80" d="M43.8,44.48a1.76,1.76,0,0,1-.16-0.59c0,0.12,0,.24,0,0.36a3.69,3.69,0,0,0,.21.86A2.13,2.13,0,0,0,43.8,44.48Z"/><path class="cls-80" d="M42.95,39a2.2,2.2,0,0,1-.39-0.32A2,2,0,0,0,42.95,39Z"/><path class="cls-78" d="M49.87,30.1c0.29,1.08,1.88,2.52-.23,3.1-2.43.68-1.27,2-1,3.26,0.15,0.59,1.16.85,0.85,1.88l-2.2-1.54c-1.38,1,1.35,2-.28,2.92h0L45.64,41c1.46-.76,2,0.54,2,1.28,0.05,1.34-1.14,2.12-2.18,2.85s-1.3-.45-1.86-0.86c-0.06.56-.15,1.38-0.76,1.3-1.52-.21-0.66-2.07-1.65-2.79C40.37,46,40.37,46.09,37,46.08c-1.84,0-1.12,1.29-1.31,2.15,0.79,0.68,2.67.89,5.11,0.58h4c2.63-.47,5.54-0.23,7.34-2.85q0-2.82,0-5.64a10.46,10.46,0,0,1,0-5.67q0-.57,0-1.13c-1.24-1.08-.38-2.76-1.14-4A1.19,1.19,0,0,0,49.87,30.1Z"/><polygon class="cls-80" points="49.31 27.84 49.31 27.84 49.31 27.84 49.31 27.84"/><path class="cls-80" d="M49.35,26.31a0.76,0.76,0,0,0-.73.07c-0.65.86,0.6,0.89,0.69,1.46C49.89,27.34,50.08,26.81,49.35,26.31Z"/><path class="cls-78" d="M51,29c0.9-.57.15-1.14,0-1.7C50.63,27.84,49.41,28.41,51,29Z"/><path class="cls-78" d="M51,26.7c0.9-.57.15-1.13,0-1.7A0.93,0.93,0,0,0,51,26.7Z"/><path class="cls-12" d="M20.48,29.67l0.7,2.11c0.16-.79.7-1.58,0.07-2.22A1.53,1.53,0,0,0,20.48,29.67Z"/><path class="cls-58" d="M23,41a0.75,0.75,0,0,0-.65.32c-0.12.64,0.41,0.65,0.85,0.73h0C23.3,41.62,23.78,41.14,23,41Z"/><path class="cls-49" d="M33,27.73a1.24,1.24,0,0,0-.47.47,0.69,0.69,0,0,0,.69.74c0.56,0.1.23-.35,0.23-0.49C33.41,28.14,33.51,27.64,33,27.73Z"/><path class="cls-81" d="M30.92,48.84c-1.85,0-3.67.65-5.67-.6h0c-1,.82-2.57.57-3.89,0.44s-2.24-.23-3.21.7l-0.57,1.13,17.56,0c1.48-2,4-.34,5.68-1.65l-5.11-.58A30.11,30.11,0,0,1,30.92,48.84Z"/><path class="cls-82" d="M49.86,50.5H47A1.7,1.7,0,0,0,49.86,50.5Z"/><path class="cls-80" d="M22.86,47.3a16.13,16.13,0,0,1-7.8.77c-1.1-.12-1.83.1-2,1.29,1.71-.4,3.41-0.92,5.12,0A33,33,0,0,1,22,49.23c1.08,0.12,2.8.83,3.53-1C24.41,48.4,23.16,47.18,22.86,47.3Z"/><path class="cls-50" d="M14.08,46.09a1.45,1.45,0,0,0-.64.23,1.66,1.66,0,0,0,.48.54,1.89,1.89,0,0,0,.8-0.21A2.1,2.1,0,0,0,14.08,46.09Z"/><path class="cls-83" d="M44.77,48.8c0.63,0.12,1.25.25,1.88,0.35,3.32,0.53,5.3-.63,5.46-3.2-2.33,1-4.54,2.43-7.24,2.33A3.11,3.11,0,0,0,44.77,48.8Z"/><path class="cls-61" d="M52.13,40.31q0-2.84,0-5.67C50.93,36.52,51.25,38.41,52.13,40.31Z"/><path class="cls-78" d="M51.56,15.37c-1.2.51-1.13,1.33-.55,2.27C51.84,17,51.49,16.15,51.56,15.37Z"/><path class="cls-84" d="M39.06,10.8c0,2.44,0,4.87,0,7.31,0,1.84.72,2.21,2.21,1.15q0-4.74.06-9.48C40,8.82,39.06,8.79,39.06,10.8Z"/><polygon class="cls-78" points="47.04 39.74 47.04 39.73 47.04 39.73 47.04 39.74"/><path class="cls-78" d="M42.13,37.25a1,1,0,0,0-.64.33,1.55,1.55,0,0,0,.87,1.64c1.46,1,3.12.33,4.69,0.51-1.14-1-2.94-.4-3.9-1.58C42.82,37.77,42.9,37.08,42.13,37.25Z"/><path class="cls-78" d="M44,40.4c-0.94.94-.94,0.94-0.56,4.06C44.63,43,43.54,41.67,44,40.4Z"/><rect class="cls-85" x="-139.75" y="-20.5" width="343" height="252"/></svg>