<svg id="Logo" xmlns="http://www.w3.org/2000/svg" xmlns:xlink="http://www.w3.org/1999/xlink" viewBox="0 0 359.69 437"><defs><style>.cls-1{fill:none;}.cls-2{clip-path:url(#clip-path);}.cls-3{fill:#979a9c;}.cls-4{fill:#a4a6a9;}.cls-5{fill:#969799;}.cls-6{fill:#c1c2c2;}.cls-7{fill:#a4a5a7;}.cls-8{fill:#737576;}.cls-9{fill:#818284;}.cls-10{fill:#797a7c;}.cls-11{fill:#7d7e80;}.cls-12{fill:#7c7d7f;}.cls-13{fill:#7b7c7d;}.cls-14{fill:#8a8b8c;}.cls-15{fill:#808183;}.cls-16{fill:#7d7e7f;}.cls-17{fill:#838586;}.cls-18{fill:#98999a;}.cls-19{fill:#828182;}.cls-20{fill:#757678;}.cls-21{fill:#6e6f71;}.cls-22{fill:#7f8182;}.cls-23{fill:#b6b8ba;}.cls-24{fill:#919395;}.cls-25{fill:#8a8c8f;}.cls-26{fill:#878889;}.cls-27{fill:#b5b6b7;}.cls-28{fill:#9c9da0;}.cls-29{fill:#8c8e8f;}.cls-30{fill:#949697;}.cls-31{fill:#9fa0a2;}.cls-32{fill:#727475;}.cls-33{fill:#656768;}.cls-34{fill:#d3d5d5;}.cls-35{fill:#c2c3c2;}.cls-36{fill:#cdcfd0;}.cls-37{fill:#cccdcc;}.cls-38{fill:#e6e8e8;}.cls-39{fill:#ebecec;}.cls-40{fill:#d6d8d8;}.cls-41{fill:#e9e9e9;}.cls-42{fill:#ebebeb;}.cls-43{fill:#e8e9e9;}.cls-44{fill:#e9eaea;}.cls-45{fill:#f4f5f5;}.cls-46{fill:#fdfdfd;}.cls-47{fill:#f9f9f9;}.cls-48{fill:#eceded;}.cls-49{fill:#f5f6f6;}.cls-50{fill:#f1f1f1;}.cls-51{fill:#f8f9f9;}.cls-52{fill:#313133;}.cls-53{fill:#49494a;}.cls-54{fill:#3d3d3e;}.cls-55{fill:#38393a;}.cls-56{fill:#3c3c3d;}.cls-57{fill:#39393a;}.cls-58{fill:#c3c5c5;}.cls-59{fill:#1f1f1f;}.cls-60{fill:#4b4c4d;}.cls-61{fill:#838486;}.cls-62{fill:#474848;}.cls-63{fill:#929394;}.cls-64{fill:#b1b2b3;}.cls-65{fill:#a6a7a8;}.cls-66{fill:#b0b1b2;}.cls-67{fill:#555759;}.cls-68{fill:#8e9091;}.cls-69{fill:#1c1c1c;}.cls-70{fill:#edeeee;}.cls-71{fill:#1b1b1b;}.cls-72{fill:#efefef;}.cls-73{fill:#f4f4f4;}.cls-74{fill:#f1f2f2;}.cls-75{fill:#f0f0f0;}.cls-76{fill:#fff;}.cls-77{fill:#e57373;}</style><clipPath id="clip-path"><rect class="cls-1" x="-60.31" width="515" height="437"/></clipPath></defs><title>iPhone</title><g class="cls-2"><path class="cls-3" d="M342.7-51.25c-1.83,5.94-1.14,12.06-1.14,18.11q0,208.61,0,417.23c0,2,.45,4-0.56,5.89a3.89,3.89,0,0,1-1.49-3.2c-0.12-2.4,0-4.81-.09-7.21q0-5,0-10,0-6,0-12c0-5.93,0-11.86,0-17.79-0.3-6.55.78-13.14-.76-19.65a68.08,68.08,0,0,1-.23-8.49q0-176.2,0-352.4c0-2.82-.28-5.67.39-8.46A3,3,0,0,1,342.7-51.25Z"/><path class="cls-4" d="M23,388.73c-0.05-17-.15-34-0.16-51q0-162.71,0-325.42a33.52,33.52,0,0,1,.78-8.41,1.12,1.12,0,0,1,1.7.19c1.07,1.64.92,3.51,0.92,5.33q0,153.43,0,306.87c0,0.67,0-.17,0,0.5a11.37,11.37,0,0,1-.25,1.91c-1.49,9.29-.32,18.64-0.67,28,0,5,0,10,0,15-0.22,8.42.38,16.85-.34,25.27C24.53,387.85,24.14,388.71,23,388.73Z"/><path class="cls-5" d="M69.87,433.55c-2.49.12-5,.44-7.37-0.65,1.87-2.15,4.27-.75,6.13-1.2-2.12-.33-4.61.36-7-0.24a2,2,0,0,1-1.1-1.13,1.56,1.56,0,0,1,.92-1.34,8.61,8.61,0,0,1,3.56-.65q56.93-.1,113.86,0c19.3,0,38.6-.29,57.89.07,11.46,0.21,22.92-.61,34.37.14,7.39,1.37,14.8,1,22.22.28,1.8-.36,3.58-0.55,5.23.51a1.28,1.28,0,0,1,.24,1.63c-1.62,1-3.54.85-5.31,1.25H85.24q40.2,0,80.41,0H197.9c31,0,62-.07,93,0.09,3.68,0,7.54-2.22,11.1.51-2.16,1.23-4.56.85-6.85,0.85q-106,.05-211.91,0c-0.5,0-1-.09-1.49-0.14A39.93,39.93,0,0,0,69.87,433.55Z"/><path class="cls-6" d="M24.82,317.69q0-153.57,0-307.15c0-2.33-.12-4.66-0.18-7A4.66,4.66,0,0,1,23.49,1c-0.15-13.12-.6-26.24.22-39.36v-8.77c-0.47-14.07-.57-28.14,0-42.21,0.07-11,.07-21.89-0.25-32.85-0.38-12.93.6-25.88,0.37-38.82,0.52-3.2.93-6.41,0.07-9.64,0.17-1.42-.58-3.26,1.7-3.72,4.82,3.31,4.2,8.2,2.87,12.61A29.61,29.61,0,0,0,27.29-153q0,230.87,0,461.74c0,2.8.54,5.68-.78,8.37A1.24,1.24,0,0,1,24.82,317.69Z"/><path class="cls-7" d="M23.71-38.38c1.31,0.9,1.11,2.28,1.11,3.58q-0.06,18.3-.13,36.6c-1.56.94-2.35-.06-3.06-1.23,0.36-11.75.62-23.51-.15-35.25C21.35-36.69,21.72-37.89,23.71-38.38Z"/><path class="cls-8" d="M197.8,431.69h97c3,0.33,6.38-3.28,9,.89l-1.79.26-98.69-.11-5.48,0a0.53,0.53,0,0,1-.32-0.68A0.47,0.47,0,0,1,197.8,431.69Z"/><path class="cls-9" d="M338.94,399.75c-0.81,7.75-3.62,14.45-10.11,19.21-1.29-1.48-.47-2.91.08-4.34,2.38-4,4.86-7.91,6.29-12.39,0.4-1.25.87-2.55,2.37-3A1.73,1.73,0,0,1,338.94,399.75Z"/><path class="cls-10" d="M303.74,432.57c-2.85-1.78-6-.42-9-0.89,1.09-1.38,2.65-.81,4-1,5.05-2.44,10.55-3.12,16-4.12a3.08,3.08,0,0,1,2.2,1.19C313.22,431.21,308.29,431.37,303.74,432.57Z"/><path class="cls-11" d="M32.7,416.92c-4.29-5-7.36-10.49-7.68-17.23a1.39,1.39,0,0,1,1.34,0c2.85,5.11,6,10.1,7.81,15.72A2,2,0,0,1,32.7,416.92Z"/><path class="cls-12" d="M317,427.78l-2.22-.1c0.15-2.93,3.31-2.88,4.61-4.68a22.55,22.55,0,0,1,4.89-3,2.63,2.63,0,0,1,2.74.76C324.17,423.83,321.69,427.4,317,427.78Z"/><path class="cls-13" d="M47.79,428.69a18.34,18.34,0,0,1-8.11-4.76c-0.42-.89.1-1.36,0.78-1.77,3.77-.35,6.19,2.43,9.17,3.93a1.83,1.83,0,0,1,.49,1.29C49.74,428.54,48.51,428.15,47.79,428.69Z"/><path class="cls-14" d="M25.63,399.79a2.12,2.12,0,0,1-.62-0.09c-2-3.41-2.08-7.18-2.07-11l0.85-1a1.07,1.07,0,0,1,1.51.37C25.74,392,28.42,395.81,25.63,399.79Z"/><path class="cls-15" d="M60.79,430.71h9.54c-2.56,2.92-5.43,1.53-7.82,2.19-2-.22-4.05.15-5.81-1.14C57.8,430.39,59.27,430.47,60.79,430.71Z"/><path class="cls-16" d="M40.83,422.69l-1.15,1.24a29,29,0,0,1-7-7l1.12-1.22A8,8,0,0,1,40.83,422.69Z"/><path class="cls-17" d="M338.94,399.75l-1.21-.06c-1.65-1.92-.7-3.85,0-5.78a11.91,11.91,0,0,0,.94-4.9,4.63,4.63,0,0,1,.69-2.06,1,1,0,0,1,1.27-.22L341,390A24.88,24.88,0,0,1,338.94,399.75Z"/><path class="cls-18" d="M327,420.74H323.8c0.31-3.7,2.33-5.7,6-6l-1,4.25Z"/><path class="cls-19" d="M69.87,433.55a17.5,17.5,0,0,1,11.83,0H69.87Z"/><path class="cls-20" d="M47.79,428.69a2.1,2.1,0,0,1,2-1c2.24-1.22,3.91-.49,5.21,1.52-0.22,1.3-1.3,1.41-2.29,1.63A11.16,11.16,0,0,1,47.79,428.69Z"/><path class="cls-21" d="M52.73,430.84a2.11,2.11,0,0,1,2.08-1.15,1.89,1.89,0,0,1,1.31-.48c1.64,0.25,3.38.18,4.68,1.49h0c-1.07,1.49-2.72.73-4.09,1C55.38,431.41,53.76,432.38,52.73,430.84Z"/><path class="cls-22" d="M21.63,0.57L24.69,1.8q0,0.88-.08,1.76l-1,.37C21.74,3.49,21,2.41,21.63.57Z"/><path class="cls-23" d="M339.8-90.29q0,1.48,0,3,0,18.53,0,37.06,0,185.5,0,371c0.92,4.9.39,9.83,0.29,14.75a1.15,1.15,0,0,1-1.67,0c-2-4.29-.65-8.84-1.07-13.26q0-237,0-474c0-3-.52-6,0.75-8.89l0.7-.73,0.93,0Q339.79-125.78,339.8-90.29Z"/><path class="cls-24" d="M339.76,335.67q0-7.47.05-14.94c2,6.27.55,12.69,0.82,19a1,1,0,0,1-1.35-.41A3.1,3.1,0,0,1,339.76,335.67Z"/><path class="cls-25" d="M339.85,339.73a5.31,5.31,0,0,1,.79,0q0,9,0,18a1.2,1.2,0,0,1-1.54-.66C338.31,351.25,337.24,345.41,339.85,339.73Z"/><path class="cls-26" d="M339.82,357.72l0.81,0q0,6,0,12a1.15,1.15,0,0,1-1.51-.61C338.32,365.26,337.43,361.39,339.82,357.72Z"/><path class="cls-17" d="M339.8,369.71l0.83,0q0,5,0,10a1.07,1.07,0,0,1-1.48-.53C338.27,375.93,337.62,372.72,339.8,369.71Z"/><path class="cls-26" d="M339.78,379.71l0.84,0q0,3.52,0,7.05l-0.81,0A5.19,5.19,0,0,1,339.78,379.71Z"/><path class="cls-27" d="M24.82,317.69l1,0c2.69,3.74,1.06,8,1.45,12-0.43,14.35.52,28.64,1.61,42.93,1,7.7-.42,15.51,1.08,23.19a3.36,3.36,0,0,1-.9,2.75c-4-1.37-2.81-5-3.18-7.74-1.34-10.06-.74-20.23-1.46-30.34-0.19-4.68,0-9.35-.09-14,0.28-9.24-.58-18.51.45-27.74Z"/><path class="cls-28" d="M24.75,318.75l0,28c-0.33.44-.65,0.46-1,0,0-7.77,0-15.54,0-23.3C23.83,321.83,23.26,320.06,24.75,318.75Z"/><path class="cls-29" d="M24.78,387.71h-1q0-13,0-26a0.9,0.9,0,0,1,1.42.62c0.31,7.06-.35,14.15.52,21.2C25.91,385,26,386.53,24.78,387.71Z"/><path class="cls-30" d="M24.75,361.74l-1,0q0-7.5,0-15h1q0,7,0,14a0.61,0.61,0,0,1,.25.72A0.47,0.47,0,0,1,24.75,361.74Z"/><path class="cls-31" d="M271.79,429.72l-208,0a1.19,1.19,0,0,1,.57-1.65c2.71-1.2,5.58-.74,8.38-0.74q108.42,0,216.84,0c5.17,0,10.26-.73,15.4-0.79a3.89,3.89,0,0,1,1.65.79c-1.92,3.1-4.84,2.87-7.85,2.35h-5A105.22,105.22,0,0,1,271.79,429.72Z"/><path class="cls-18" d="M63.78,428.77q0,0.47,0,.94h-3a1.21,1.21,0,0,1-1.34.21c-3.42-.49-6.45-2.16-9.69-3.2-3.47-.24-5.65-3.34-8.92-4a32,32,0,0,0-7-7,108.21,108.21,0,0,1-8.19-15.91c0.59-4.09-1.57-8-.86-12.08q0-13,0-26l0.05-1.06c1.63,1.68.91,3.79,0.92,5.71a220,220,0,0,0,2.11,30.67,6,6,0,0,0,.89,1.71c1.82,1.83,2.22,4.39,3.28,6.6,5.84,12.2,15.71,18.89,28.67,21.54A5.45,5.45,0,0,1,63.78,428.77Z"/><path class="cls-32" d="M165.81,432.67H85v-1h80.84q0.49,0.31.33,0.63A0.45,0.45,0,0,1,165.81,432.67Z"/><path class="cls-33" d="M165.81,432.67q0-.48,0-1l32,0v1Z"/><path class="cls-18" d="M298.79,429.71c2.71-.53,5.55-0.53,8-2,4.22-1.73,8-5,13-4-1,2.26-3.77,2.15-5.1,3.95-5.35.85-10.39,3.3-16,3Q298.79,430.21,298.79,429.71Z"/><path class="cls-18" d="M271.79,429.72h22A50.09,50.09,0,0,1,271.79,429.72Z"/><path class="cls-15" d="M59.79,429.7h1q0,0.5,0,1c-1.69-.21-3.6.65-5-1A4,4,0,0,1,59.79,429.7Z"/><path class="cls-34" d="M60.7,427.76a37.16,37.16,0,0,1-32-29c-1.28-8.65-.86-17.35-1-26-0.57-10.07-1-20.14-1-30.23a62.24,62.24,0,0,0-1-12.79q0-6,0-12,0-235,0-469.93c0-3.56-.11-7,1.56-10.58s0.41-8.08-2.4-11.52a23,23,0,0,1,2.8-10l7.1-12.91a19.79,19.79,0,0,0,4.93-4.93c2.54-.52,4-2.71,6-4l8-3.07,9-1a7.2,7.2,0,0,1,5.12-.12,1.14,1.14,0,0,1-.25,1.4,1.29,1.29,0,0,0-.88.28c-0.23.17-.12,0.09,0.38-0.09a23.46,23.46,0,0,1,7.88-.87q42.45,0,84.91,0,15.44,0,30.87,0,19.5,0,39,0c17.48,0,35,0,52.45.06,2.35,0,5.12-.79,6.73,2-2.11,2.68-5.15,1.91-7.86,1.92-22.15.08-44.3,0-66.44,0q-71.44,0-142.88,0a55.74,55.74,0,0,0-16.74,2.36C42-199.33,35.08-189.74,32-176.91a52.22,52.22,0,0,0-1.32,5.46c-0.68,2.29-.44,4.64-0.44,7q0,274.15,0,548.3c0,6.37.67,12.66,3.19,18.53,6.55,15.27,18.29,22.75,34.87,22.75q109.71,0,219.42,0c3.09,0,6.38-.71,9.15,1.5a1.28,1.28,0,0,1-1.44,1.54c-1.33.06-2.66,0-4,0q-112.64,0-225.28,0C64.31,428.17,62.45,428.58,60.7,427.76Z"/><path class="cls-35" d="M338.76,322.69l0.06,13.06c0.93,3.26.32,6.58,0.34,9.88-1.11,4.9.49,10.08-1.15,15.27-2-2-2-2-3.41-7.89a59.32,59.32,0,0,1-.23-7.49q0-249.47,0-498.93a40.3,40.3,0,0,1,.29-7.48c0.88-1.89,1.68-4,4.1-1.4q0,0.49.07,1l-0.09,0a4.43,4.43,0,0,0-.84,1.74c-0.23,2.5-.12,5-0.12,7.49q0,234.57,0,469.14c-0.6,7.07-.53,14.16-0.49,21.26,0-4.21-.05-8.42.05-12.63C337.38,324.62,336.51,322.85,338.76,322.69Z"/><path class="cls-31" d="M338.79,345.71q0-5,0-10l0.94-.08q0,2,.09,4.06,0,9,0,18,0,6,0,12,0,5,0,10,0,3.5,0,7l0,1.94c-1.14,1.53.19,3.52-.95,5.05l-1.07,6c-2.64,5-3.7,10.85-7.92,15a20.3,20.3,0,0,0-6,6c-0.75,1.74-2.55,2.11-4,3-4.47.92-8.15,4.39-13,4l-0.07-.09c0-2.32,2.06-2.34,3.46-2.88,12.87-4.94,21.16-13.74,23.58-27.6a12.14,12.14,0,0,1,1.27-3.23c-0.27-9.79,1.81-19.38,2.53-29.09C338.06,358.49,337.56,352,338.79,345.71Z"/><path class="cls-5" d="M59.79,429.7h-5c-1.4-1.33-3.24-1.56-5-2q0-.49-0.06-1A34.85,34.85,0,0,1,59.79,429.7Z"/><path class="cls-26" d="M338.8,393.7c0.19-1.71-.59-3.6.95-5.05C339.57,390.36,340.45,392.27,338.8,393.7Z"/><path class="cls-36" d="M338.76,322.69c-2,3.72-.57,7.72-0.94,11.58-0.17,1.76,0,3.54-1,5.32v-21.9c1-1.9.48-3.93,0.48-5.89q0-233.59,0-467.18c0-2-.48-4,0.45-5.9h1Q338.76,80.71,338.76,322.69Z"/><path class="cls-6" d="M25.81,329.69a29.87,29.87,0,0,1,2,10.55q0,16.23,0,32.47a3.12,3.12,0,0,1-1-2.71C26.93,356.56,25,343.16,25.81,329.69Z"/><path class="cls-37" d="M335.75,395.67c-1.83,8.76-5.29,16.57-12.09,22.77-4.94,4.5-11.05,6.54-16.9,9.21-79.65,2.38-159.33.43-239,1.07l-4,0c-1.09-.15-2.28,0-3.08-1q114.95,0,229.9-.1c2.07,0,4.36.82,6.2-.93s4.31-1.56,6.54-2c17.91-3.76,29.89-17.49,30-35.51,0.21-49,.1-98,0.05-146.93a14.5,14.5,0,0,0-.16-2c0-24.53-.12-49.06,0-73.6-0.07-26.33,0-52.65.08-79q0.24-119.73.05-239.46c0.46-6.33-.87-12.74.81-19a1.19,1.19,0,0,1,1.63-.5q0,4.49,0,9,0,258,0,516C338.72,367.72,336.18,381.69,335.75,395.67Z"/><path class="cls-38" d="M334.76,240.72c0,49.41.34,98.83-.13,148.24-0.21,21.76-14.54,37-37.83,37.77l-230.44,0c-18.92,0-34.08-13.71-36.7-32.58a107.55,107.55,0,0,1-.85-14.89q0-272.43,0-544.85c0-2.23-.88-4.69.94-6.7,1.63,1.78,1.41,4,1.41,6.15,0,22.78.73,45.6-.22,68.34-0.7,16.78-1.21,33.57-.49,50.27,1.42,33.4.17,66.79,0.75,100.18-0.15,75.79.38,151.57,0.21,227.36,0,3.33.06,6.66,0,10-0.27,3.75-.57,7.5.57,11.19,0.56,16,.51,31.91.29,47.87a27.1,27.1,0,0,1-.37,5.51,73,73,0,0,0-.19,20.68,12,12,0,0,1,.41,2.5c0.39,3.75-.4,7.55.47,11.28,0.91,6.37,2.81,12.36,6.69,17.61a26.8,26.8,0,0,0,4.23,4.52A14.78,14.78,0,0,0,50,414.49a14.53,14.53,0,0,0-3.94-3.84c-1.76-1.3-2.85-3.2-4.28-4.8a44.05,44.05,0,0,1-8.28-18.67c-0.07-1.69-.19-3.37-0.14-5.07,0.23-2.41-.5-5,1.67-7,2.31-1.28,4.85-1,7.33-1q58.23,0,116.45,0c2.65,0,5.35-.23,7.83,1,2.89,2.29.58,3.8-.82,5.45s-2.86,3-2.72,5.32c-0.54,1.51-.07,3,0.25,4.42-1,2.56-3.19,4.78-2,7.91a1.17,1.17,0,0,0,1.36,1c0.92-.08,1.22-0.56.83-1.28-1.93-3.55.63-7.2-.3-10.76,0-.46,0-0.92,0-1.37-0.08-1.76,1.09-2.95,1.92-4.3,1.31-1.57,2.79-3,4.19-4.46a20.48,20.48,0,0,1,3.55-2.27,33.56,33.56,0,0,1,5.5-2.07,21.4,21.4,0,0,1,7.66,0c3.57,1.1,7.07,2.35,9.86,5a38.32,38.32,0,0,1,2.47,3,7,7,0,0,0-.79-1.57,3.09,3.09,0,0,1,.51-3.13c2-2.06,4.53-1.92,7-1.92q58.18-.08,116.37,0c7.34,0,8.59,1.42,8.67,8.89,0,1.33,0,2.66,0,4a33.92,33.92,0,0,1-10.28,21.92,57,57,0,0,0-5.64,5.75c4-1.41,6.7-3.12,8.67-5.91,4.83-4.7,6.56-11,8.82-17,0.94-1.73.56-3.61,0.62-5.45,0-16.23,0-32.45-.12-48.68,0.23-29.72-.37-59.43,0-89.14C332.26,245.76,330.91,242.29,334.76,240.72Z"/><path class="cls-39" d="M29.8,52.7q0-112.5,0-225c0.13-1.39-.43-2.94,1-4q0,2,0,4c2,2.19,1.47,4.87,1.46,7.45-0.08,21.8.11,43.61,0,65.41,0,2.46.42,5-1.48,7.13q0,24,0,48c1.94,2.23,1.57,5,1.6,7.59,0.17,12.1-.33,24.2-0.09,36.29,0.19,15.74.06,31.48,0.06,47.22a10.7,10.7,0,0,1-.92,5.33A1.19,1.19,0,0,1,29.8,52.7Z"/><path class="cls-40" d="M337.78-161.28q0,236.64,0,473.28c0,1.91.76,4-.95,5.69q0-236.89,0-473.79C336.82-157.85,336.14-159.81,337.78-161.28Z"/><path class="cls-23" d="M335.75,395.67q0-21,.05-41.94c2,1.55.09,4.18,1.6,6,1.34-4.68-1-9.6,1.39-14,1.1,16-1.49,31.88-2.05,47.83A6.34,6.34,0,0,1,335.75,395.67Z"/><path class="cls-41" d="M334.76,240.72c-1.68,1.66-.93,3.78-0.94,5.69q-0.08,45.65,0,91.31c-3-.72-2.27-3.25-2.38-5.19-0.32-5.62.9-11.22,0.37-15.73,0,1.19.09,3.51,0,5.83-0.08,1.39.23,3.19-2.09,3.18-2.72-5.68-.5-11.74-1.39-16.89,0,9.21,0,19.09,0,29,0,2.23.13,4.28,2.09,5.75a8.1,8.1,0,0,1,.88,3.48c0.16,5.72.06,11.44,0.06,17.16,0,2,.1,4-1.39,5.55a1.94,1.94,0,0,1-2.19-.84c-1.83-4.87-6-4.4-10-4.58-2.66-.13-5.32-0.08-8-0.08H50.17a39.88,39.88,0,0,1-7-.21c-1.69-.3-3.91-0.26-3.58-3a2.2,2.2,0,0,1,1.7-.82q138.05,0.22,276.1.05a10.38,10.38,0,0,0,4.41-.53,4.78,4.78,0,0,0,1.78-2c1.15-2.2.74-4.57,0.75-6.88q0-58.2,0-116.39a59.63,59.63,0,0,1,.26-8.48c0.92-2.56.71-5.23,0.74-7.88,0.18-16.58-.37-33.17.28-49.75,0.4-1.45,1.32-2.32,2.85-1.83,2.09,0.67,4.18-.05,6.25.21Q334.76,203.72,334.76,240.72Z"/><path class="cls-42" d="M334.76,166.72c-2.66,3.7-5.31,1.15-8,0-1.77-1.73-1.37-4-1.39-6.1-0.06-8.95,0-17.9,0-26.85,0-14.24,0-28.49,0-42.73,0-2.14-.22-4.32.53-6.39,4.13-3.35,4.45,1.56,6.43,3,0-10,0-19.92,0-29.87-0.35-18.37,0-36.73,0-55.1-0.49-23.31.13-46.62,0.06-69.93,0-5,.12-10-0.11-15-0.2-21.32-.07-42.63-0.06-64,0-2.14-.14-4.38,1.6-6.1h1Q334.75,7.21,334.76,166.72Z"/><path class="cls-43" d="M38.68-140.19l1.14-1.09c2.05,2.46,1.35,5.41,1.35,8.17q0.06,99.23,0,198.46,0,146,0,291.94c0,1.16.22,2.34-.45,3.41-0.7.72-.94,1.6,0.24,1.8a30,30,0,0,0,5,.2q134.24,0,268.47-.09c3.57,0,7.15,1.5,10.75,0,2-.83,1.48,1.25,2,2.06,1,1.62.13,4.17,2.57,5.06,2.75,5.32,1,11,1.25,16.49-0.32,1.21-.5,2.56-2.24,2.52,0-13,0-13-12.81-13H204.06c-2.32,0-4.71-.32-6.27,2a1.55,1.55,0,0,1-1.95.33,20.15,20.15,0,0,0-8.5-4.84c-3.58-.75-7.13-1-10.64.34a12.6,12.6,0,0,0-4.5,1.64c-1.24.55-2.31,1.41-3.53,2a1.1,1.1,0,0,1-1.13-.53c-2-1.33-4.17-.93-6.31-0.93q-63.22,0-126.44,0c-1.78-1.74-1.4-4-1.38-6.13,0.08-12.16-.36-24.31-0.19-36.47,0.11-7.5-1.39-14.92-.94-22.44,0.15-2.51.19-5,1.19-7.35,0.81-1.88,1.8-3.72,4.45-2.73,0.83,10.3.22,20.61,0.34,30.91,0.1,8.3.08,16.61,0,21.45,0.78-35.12-1.61-73.68-.91-112.26q0.05-38.95,0-77.9,0.05-27.54,0-55.07,0-37.51,0-75,0-1.25,0-2.49c0.76-55.49,1.18-111,1-166.47C38.31-137.58,38.07-138.93,38.68-140.19Z"/><path class="cls-44" d="M37.79,300.71c-4.59,1.58-3.79,5.71-3.92,9.05-0.44,10.9,1.37,21.73,1,32.66-0.37,11.08-.08,22.19-0.08,33.29q0,3.5,0,7c-2.59-.39-2.27-2.54-2.36-4.23-0.14-2.81,0-5.63-.05-8.45-0.11-5.11,0-10.23-.06-15.35,0-1.81.17-3.68-1.52-5v-49c-1.37-3.23.41-6.77-1-10q0-119,0-238h1c1.76,1.7,1.47,3.93,1.48,6,0,6.6.05,13.19,0,19.78,0.26,15.3,0,30.6.14,45.9,0.14,11.94,3,23.73,2.06,35.75-0.23,2.81,2.09,3.94,3.61,5.6,0.48,24.95.08,49.9,0.21,74.85q0,27.35,0,54.7C38.25,297.13,38.71,299,37.79,300.71Z"/><path class="cls-45" d="M329.79,325.71c2-3.21.54-6.77,1-10.14,0.27-2-.62-4.24.71-6.25,2,0.61,1.24,2.19,1.25,3.31,0.08,6.8,0,13.61.07,20.41,0,1.59-.54,3.36,1,4.67q0,25,0,50a1.09,1.09,0,0,1-1.54-.4c-1.59-4-.5-8.28-0.86-12.41-0.11-7.76,0-15.52-.08-23.28,0-1.74.54-3.73-1.49-4.89l0-3A24,24,0,0,1,329.79,325.71Z"/><path class="cls-46" d="M332.78,374.71l0,13a5.79,5.79,0,0,1,0,5c-2.24,6.06-4.14,12.32-9,17-1.88.78-3.92,2.38-5-1,5.12-5.77,9-12.14,10-20a2.14,2.14,0,0,0,1-2c1.1-3.06.2-6.22,0.53-9.32C330.47,375.94,329.76,373.57,332.78,374.71Z"/><path class="cls-46" d="M34.78,387.71c1.38,6.57,4.54,12.35,8,18-0.39,2.57-2.17,2.35-4,2a28.82,28.82,0,0,1-7-18,2.1,2.1,0,0,1-.45-1.34c0.26-1.42-.94-3.67,1.43-3.94C34.89,384.2,33.78,386.78,34.78,387.71Z"/><path class="cls-45" d="M30.79,349.72c2.92-.25,3,1.63,3,3.79-0.05,5.4,0,10.8,0,16.2-1.47,1.52-.82,3.46-1,5.23-0.16,1.24.12,2.85-2,2.77l0-2a92.8,92.8,0,0,1,0-21v-5Z"/><path class="cls-42" d="M164.07,386.72c0.71,4.57-1.21,9.41,1.8,13.87-7.21-1.22-8-4.29-3.11-11C161.78,388,162.64,387.25,164.07,386.72Z"/><path class="cls-47" d="M30.8,377.71c1.54-1.3.87-3.07,1-4.66s-0.13-3.11,2-3.34c0.56,4.32-1.17,8.81,1,13q0,2.5,0,5c-1.17-.43-0.87-2.81-2-2.37-1.91.75-.66,2.88-1,4.38C29.73,385.86,31.28,381.7,30.8,377.71Z"/><path class="cls-48" d="M203.47,385.57c2,4.82,1.88,9.51-.2,14.91C201.68,395.1,197.55,390.43,203.47,385.57Z"/><path class="cls-49" d="M318.79,408.71c1.4,1.66,3.3.76,5,1-2.84,3.6-6.23,6.12-11.72,6A25.27,25.27,0,0,1,318.79,408.71Z"/><path class="cls-50" d="M46.79,409.71L53,415.3c-4.86.77-7.79-.72-10.21-3.59C43.35,409.51,45.43,410.33,46.79,409.71Z"/><path class="cls-51" d="M46.79,409.71l-4,2a10.46,10.46,0,0,1-4-4l4-2Z"/><path class="cls-52" d="M175.83,372.81c4-1.51,8.11-2.24,12.22-.21a1.66,1.66,0,0,1-1.29,1.27l-8.87-.11C176.84,374.22,175.8,374.66,175.83,372.81Z"/><path class="cls-43" d="M30.79,354.71q0,10.5,0,21A46.27,46.27,0,0,1,30.79,354.71Z"/><path class="cls-53" d="M186.75,373.87L188,372.6c3.45,0.37,5.91,2.28,7.84,5a0.78,0.78,0,0,1-.09,1.14Z"/><path class="cls-54" d="M185.84,411.85a27.85,27.85,0,0,0,7.84-3.32,1.68,1.68,0,0,1,1.32,1.3,12.21,12.21,0,0,1-8.22,3.87,7.08,7.08,0,0,1-1.3-1A0.67,0.67,0,0,1,185.84,411.85Z"/><path class="cls-21" d="M185.84,411.85l-0.15.74c-0.9,1.19-2.22,1.07-3.49,1.1-1.46.1-2.93-.66-4.4,0a5,5,0,0,1-3.94-1.11c0-2,1.22-1.22,2.2-1Z"/><path class="cls-55" d="M162.66,385.93c-1.9-2.71.73-3.75,2-5.3,1.16-.23,1.62.2,1.3,1.37l-2.14,3.69A0.7,0.7,0,0,1,162.66,385.93Z"/><path class="cls-56" d="M165.92,382l-1.3-1.37,2.93-4,0.87-.13c1.2-.4,1.53.18,1.41,1.26Z"/><path class="cls-57" d="M177.8,413.69c1.2-1.32,2.73-.76,4.17-0.76,1.24,0.77,2.91-.36,4,0.91C183.25,415.2,180.52,414.58,177.8,413.69Z"/><path class="cls-58" d="M166.77,407.72a5,5,0,0,1-2.58-4.67c2,0.61,2.65,2.31,3.68,3.54A1.26,1.26,0,0,1,166.77,407.72Z"/><path class="cls-59" d="M195,409.83l-1.32-1.3,3.05-2.87c1.59-.12,1.9.46,0.94,1.73Z"/><path class="cls-60" d="M175.83,372.81l2.06,0.95-5.08,2a1.64,1.64,0,0,1-1.46-1.29C172.65,373.41,174,372.45,175.83,372.81Z"/><path class="cls-61" d="M176.07,411.54l-2.2,1a8,8,0,0,1-3.95-2.11,1.29,1.29,0,0,1-.13-2Z"/><path class="cls-43" d="M29.8,290.71c2,3.16.54,6.68,1,10C28.75,297.54,30.24,294,29.8,290.71Z"/><path class="cls-62" d="M171.35,374.47l1.46,1.29-3,2-1.41-1.26A4.8,4.8,0,0,1,171.35,374.47Z"/><path class="cls-63" d="M195.79,378.76l0.09-1.14,1.9,0.09,1,2c0.56,1,.76,1.88-0.88,1.87Z"/><path class="cls-64" d="M197.94,381.55l0.88-1.87c1.2,1.13,2.1,2.39,1.7,4.24C198.86,383.9,198.4,382.72,197.94,381.55Z"/><path class="cls-65" d="M169.79,408.46l0.13,2a5.37,5.37,0,0,1-3.14-2.75l1.1-1.13Z"/><path class="cls-66" d="M162.66,385.93l1.12-.23,0.29,1-1.3,2.92C160.12,388.48,161,387.21,162.66,385.93Z"/><path class="cls-67" d="M197.67,407.39l-0.94-1.73,1.87-2.17c1-.14,1.51.18,1.25,1.27C199.33,405.8,199,407,197.67,407.39Z"/><path class="cls-41" d="M332.78,392.71q0-2.49,0-5l1,0C333.55,389.38,334.46,391.31,332.78,392.71Z"/><path class="cls-68" d="M199.85,404.76l-1.25-1.27c0.22-.79.68-1.86,1.5-1.38C201.44,402.88,200.77,403.94,199.85,404.76Z"/><path class="cls-69" d="M186,413.84c-1.29-.53-2.9.31-4-0.91l3.71-.34,1.1,1.11-0.37.2Z"/><path class="cls-70" d="M30.79,78.71q0-13,0-26,0-26.5,0-53c3.41-4.82,2.89-10.39,3-15.82,0-2.87.12-5.44,4-5.18,1,3.41.43,6.91,0.45,10.37,0.08,14.45,0,28.91,0,43.36-0.07,6.67.14,13.34-.11,20-2.38,2-2.83,4.68-2.85,7.58,0,5,.24,10-0.17,14.91C35,77.35,34.74,80.35,30.79,78.71Z"/><path class="cls-71" d="M40.81,360.7c-1.59-1.78-1.48-4-1.48-6.14q0-245.19.05-490.37c0-1.82.3-3.64,0.45-5.46a2.17,2.17,0,0,1,.81-0.08c1.79-1.25,3.84-.92,5.81-0.92q135.52,0,271,0c2.15,0,4.35-.22,6.32,1a0.87,0.87,0,0,1,1,1c1.27,1.77,1,3.82,1,5.8q0.84,106.48.31,213c-0.29,45.32.28,90.65-.39,136-0.69,47-.16,94-0.45,141,0,1.42.63,3-.72,4.24l-0.81.82c-1.39,1.42-3.16.72-4.74,0.72q-136.64.06-273.28,0c-1.63,0-3.34.43-4.89-.48h0Z"/><path class="cls-43" d="M324.52,359.63c0.14-2.15.41-4.3,0.41-6.46q0-243.77,0-487.55c0-2-.11-3.95-0.16-5.92l1.06,0c0.84,1.57.44,3.26,0.44,4.9,0,15.13-.65,30.29.16,45.37,1.5,27.89.19,55.78,0.91,83.66,0.31,28.58.42,57.18-.41,85.73-0.53,18.09-.15,36.16-0.64,54.23q0,43.28,0,86.55c0,1.8.35,3.65-.35,5.41q-0.05,64-.16,128.07C325.74,355.65,326.8,358,324.52,359.63Z"/><path class="cls-43" d="M40.79,360.69c2.33,0.07,4.66.21,7,.21q134.48,0,269,0c2.32,0,4.64-.29,7-0.45-1.42,2.17-3.64,1.23-5.49,1.23q-136.13.07-272.25,0C44.22,361.68,42.26,362.36,40.79,360.69Z"/><path class="cls-43" d="M329.79,325.71v18c-2,.12-3-0.68-3-2.87,0.06-11.59,0-23.19,0-34.78,0-1.21.26-2.72,1.55-2.75,2.07,0,1.37,1.89,1.39,3C329.83,312.79,329.79,319.25,329.79,325.71Z"/><path class="cls-47" d="M332.78,374.71c-2.47.35-1.8,2.29-2,3.85-0.37,2.71,1,5.64-1,8.15q0-8.5,0-17,0-11.5,0-23c3.53-1.76,3,.94,3,2.8C332.81,357.91,332.79,366.31,332.78,374.71Z"/><path class="cls-72" d="M325.9,225.58l0-91.88q0.43-.67.85,0,0,16.5,0,33c0,17.89,0,35.79,0,53.68C326.75,222.13,327.44,224.06,325.9,225.58Z"/><path class="cls-72" d="M326.79,133.71h-0.86q0-70.06,0-140.12c0.86-4.93.31-9.9,0.35-14.84,0.14-16.89-.11-33.79.13-50.68,1-1.36,2.16-1.14,3.38-.35q0,1,0,2a4.45,4.45,0,0,1,.48,2.88c-0.07,21,1.83,42,1.13,63-0.09,2.62-.25,5.39,2.39,7.16v56c-4.55,1.66-5.15-1.58-5.35-4.64-0.34-5.21-.16-10.45-0.11-15.67-0.14,12.74.07,25.49,0,38.23,0,2.44.43,5-1.5,7.09Q326.79,108.71,326.79,133.71Z"/><path class="cls-48" d="M326.79,83.71q0-22.43,0-44.86c0-1.16,0-2.33,0-3.49,0-1,0-2.21,1.31-2.31,1.73-.13,1.63,1.33,1.64,2.45,0,6.15.09,12.3,0,18.44,0,2.88.5,5,4,4.76V92.85C329.72,90.24,331.49,84.48,326.79,83.71Z"/><path class="cls-50" d="M333.79,2.71c-4.47,1.43-4-1.65-4-4.35q0-34.33,0-68.65c2.13,3.56.71,7.44,0.93,11.16,0.26,4.37.06,8.78,0.06,13.71,2.69-1.32,2-3,2-4.29,0.08-9.14,0-18.27.07-27.41,0-1.75-.66-3.7,1-5.17v85Z"/><path class="cls-73" d="M37.79,32.71q0-27,0-54,0-56.6,0-113.19c0-1.91-.75-4,0.86-5.71q0,84.45,0,168.89c0,1.33-.12,2.66-0.19,4Q38.17,33.39,37.79,32.71Z"/><path class="cls-48" d="M37.79,300.71q0-30,0-60c0.23-.43.48-0.42,0.74,0q0.11,36.69.22,73.38c0,14.45,0,28.91-1,43.37V300.71Z"/><path class="cls-72" d="M38.53,240.67q-0.37,0-.74,0,0-37.5,0-75a2.23,2.23,0,0,1-.47-2.65,0.94,0.94,0,0,1,1.21-.37Q38.53,201.68,38.53,240.67Z"/><path class="cls-74" d="M37.79,32.71l0.72,0q0,37.51,0,75a1.53,1.53,0,0,1-1.54-.95,12.28,12.28,0,0,1-.77-5.35q-0.06-21.06,0-42.12c0-2.3-.12-4.67,1.58-6.58v-20Z"/><path class="cls-75" d="M37.79,107.71h0.73q0,27.5,0,55l-0.74,0c-1.73-1.71-1.59-3.94-1.6-6.08q-0.1-21.42,0-42.84C36.2,111.65,36.06,109.42,37.79,107.71Z"/><path class="cls-39" d="M37.79,107.71q0,27.5,0,55,0,1.5,0,3c-2.81.15-4.91,0.23-5.11-3.92-1.32-27.68-2.49-55.36-1.89-83.08,3,0.25,3-1.7,3-3.86,0-6,0-11.93,0-17.89,0-2.86,1-4.45,4-4.25Q37.79,80.21,37.79,107.71Z"/><path d="M321.81,109.8q0,121.23,0,242.47c0,6.42,0,6.42-6.55,6.42H48.8c-7,0-7,0-7-6.81q0-242.47-.12-484.94c0-5,1.22-6.38,6.33-6.37q133.73,0.25,267.46.12c6.32,0,6.33,0,6.33,6.64Q321.81-11.44,321.81,109.8Z"/><path class="cls-50" d="M330.15,4.89c2.15,3.44,2.12,6.05,0,9.7V4.89Z"/><path class="cls-76" d="M249.78,232H106.65c-8.29-1-13-6.33-16-14.63V157c5-12.36,9.17-16,22.57-16H209.9c12.24,0,24.48.34,36.73,0.41,10.59,0.06,17.68,7.21,18.05,17.76,0.08,2.27,0,4.65,0,7.28,3.76,0,7.11-.31,10.24.17,2.31,0.35,3.75,1.84,6.75,2.79V205c-3,2.39-4.2,3.08-7.09,2.9-3.14-.19-6.34,0-9.85,0,0,2.49-.06,4.39,0,6.29,0.11,5.25-1.23,9.71-5.36,13A29.75,29.75,0,0,1,249.78,232Zm-72-7.67q34,0,68.05,0c7.15,0,10.69-3.44,10.72-10.66q0.09-26.48,0-53c0-7.19-3.59-10.64-10.75-10.64H110.51c-7.45,0-10.81,3.38-10.81,10.87q0,26.29,0,52.59c0,7.48,3.34,10.81,10.85,10.81h67.28ZM272.69,175h-8v24h8V175Z"/><path class="cls-77" d="M178,158.41a28.79,28.79,0,1,1-28.79,28.68A28.87,28.87,0,0,1,178,158.41Zm-10.31,46.35a20,20,0,0,0,25.55-3.62c6.48-7,7.35-17.81,2.34-24.27Zm21.08-35a20.34,20.34,0,0,0-26.43,4.19c-6,7.18-6.54,18.05-1.43,23.82Z"/></g></svg>