<svg id="Logo" xmlns="http://www.w3.org/2000/svg" viewBox="0 0 139.99 140"><defs><style>.cls-1{fill:#e2004d;}</style></defs><title>LG-android-phone-icon</title><g id="UyUx55.tif"><path class="cls-1" d="M9244.79,7738.55a70,70,0,1,1-70,70A70.07,70.07,0,0,1,9244.79,7738.55Zm52.93,72.81c0,0.35,0,.59,0,0.83a52.94,52.94,0,0,1-58.41,49.16,51.79,51.79,0,0,1-31.17-14.31,52.61,52.61,0,0,1-13.42-56.15c6.22-17.1,18.32-28.24,35.76-33.48a50,50,0,0,1,16.31-1.89c0.62,0,.89-0.12.86-0.81-0.05-1.35,0-2.69,0-4a0.59,0.59,0,0,0-.69-0.73,62,62,0,0,0-13.77,1.16,57.13,57.13,0,0,0-32.26,18.61c-12.28,14.05-16.92,30.45-13.94,48.85a55.76,55.76,0,0,0,18,33.09c14.31,13,31.17,18,50.17,14.62,18-3.22,31.55-13.22,40.7-29a57.54,57.54,0,0,0,7.5-30.27c0-1.14,0-1.14-1.1-1.14h-39.76a2,2,0,0,0-.65,0,0.63,0.63,0,0,0-.39.39c0,1.67,0,3.34,0,5.11h36.25ZM9242,7777.77c0,0.43-.06.77-0.06,1.12q0,29.61,0,59.21c0,0.16,0,.33,0,0.49a0.57,0.57,0,0,0,.7.72q9.11,0,18.23,0a0.58,0.58,0,0,0,.69-0.73c0-1.35,0-2.7,0-4,0-.7-0.22-0.87-0.89-0.87-4,0-8,0-12,0h-1v-1.17q0-26.72,0-53.44a2.67,2.67,0,0,0,0-.82,0.76,0.76,0,0,0-.47-0.48C9245.43,7777.76,9243.73,7777.77,9242,7777.77Zm-19.6,16.88a8.44,8.44,0,1,0-8.4-8.49A8.49,8.49,0,0,0,9222.35,7794.65Z" transform="translate(-9174.77 -7738.55)"/></g></svg>