<svg id="Logo" xmlns="http://www.w3.org/2000/svg" viewBox="0 0 139.85 140"><defs><style>.cls-1{fill:#0087d6;}.cls-2{fill:#fefefe;}</style></defs><title>motorola-moto-x-android-phone-icon</title><path class="cls-1" d="M9685.09,7821.55a69.93,69.93,0,1,1-74.17-67.93A69.93,69.93,0,0,1,9685.09,7821.55Z" transform="translate(-9545.26 -7753.5)"/><path class="cls-2" d="M9615.16,7846.39c-0.75-1.62-1.44-3.11-2.14-4.59-2.09-4.41-4.3-8.76-7.73-12.34-2.12-2.21-4.43-4.1-7.6-4.52-4.86-.65-8.7,1.3-11.86,4.79-3.48,3.86-5.32,8.63-7.09,13.4a102.74,102.74,0,0,0-3.62,12.16,1,1,0,0,1-1.24,1c-1.17-.07-2.36,0-3.65,0l25.1-82.46,0.26,0,19.36,64.33,0.38,0.05,19.51-64.8,2.72,8.95q11.06,36.33,22.15,72.64c0.32,1.05.27,1.46-.94,1.32s-2.46.43-3.2-.23-0.64-1.94-.91-3a87.88,87.88,0,0,0-6.77-18.45,20.72,20.72,0,0,0-6.11-7.39c-5.19-3.74-11.13-3.28-15.74,1.13-3.88,3.71-6.36,8.33-8.62,13.09C9616.67,7843.09,9616,7844.67,9615.16,7846.39Z" transform="translate(-9545.26 -7753.5)"/></svg>