<svg id="Logo" xmlns="http://www.w3.org/2000/svg" viewBox="0 0 96.37 96.37"><defs><style>.cls-1{fill:#fff;}.cls-2{fill:#1c1c1c;}</style></defs><title>nav-logo-02</title><circle class="cls-1" cx="48.19" cy="48.19" r="48.19"/><path class="cls-2" d="M4584.3,1362.53a6.72,6.72,0,0,0,2.35-.43,5.27,5.27,0,0,0,2.07-1.43,7.53,7.53,0,0,0,1.47-2.61,11.93,11.93,0,0,0,.57-3.93,10.32,10.32,0,0,0-1.24-4.85,27.77,27.77,0,0,0-3.1-4.63q-1.86-2.28-4-4.53t-4-4.59a27.12,27.12,0,0,1-3.1-4.82,11.53,11.53,0,0,1-1.24-5.2,11.67,11.67,0,0,1,1-4.9,11.11,11.11,0,0,1,2.71-3.72,12.19,12.19,0,0,1,4-2.37,14.06,14.06,0,0,1,4.87-.83,19,19,0,0,1,4.93.58,12.45,12.45,0,0,1,3.66,1.58,7,7,0,0,1,2.28,2.35,5.71,5.71,0,0,1,.77,2.87,5.57,5.57,0,0,1-.21,1.47,4.34,4.34,0,0,1-.66,1.38,3.8,3.8,0,0,1-1.13,1,3,3,0,0,1-1.61.42,1.93,1.93,0,0,1-1.62-.67,4.47,4.47,0,0,1-.77-1.65,21.72,21.72,0,0,1-.43-2.16,10,10,0,0,0-.57-2.16,4.18,4.18,0,0,0-1.16-1.65,3.37,3.37,0,0,0-2.26-.67,3.84,3.84,0,0,0-1.59.36,4.22,4.22,0,0,0-1.43,1.09,5.46,5.46,0,0,0-1,1.86,8.3,8.3,0,0,0-.39,2.68,8.59,8.59,0,0,0,.74,3.48,17.39,17.39,0,0,0,2,3.35,35.55,35.55,0,0,0,2.78,3.31q1.56,1.65,3.19,3.34t3.19,3.45a30.18,30.18,0,0,1,2.78,3.68,19.64,19.64,0,0,1,2,4,12.92,12.92,0,0,1,.74,4.38,13.43,13.43,0,0,1-1.29,6,13.07,13.07,0,0,1-3.51,4.44,15.79,15.79,0,0,1-5.2,2.75,20.69,20.69,0,0,1-6.34,1,17.39,17.39,0,0,1-5.37-.76,12.81,12.81,0,0,1-3.95-2,8.6,8.6,0,0,1-2.43-2.84,7.11,7.11,0,0,1-.82-3.29,5.85,5.85,0,0,1,.22-1.53,5.53,5.53,0,0,1,.66-1.5,4,4,0,0,1,1.09-1.15,2.57,2.57,0,0,1,1.52-.46,2.22,2.22,0,0,1,1.44.45,3.12,3.12,0,0,1,.88,1.19,9,9,0,0,1,.54,1.7q0.21,1,.45,1.94a16.73,16.73,0,0,0,.6,1.94,5.77,5.77,0,0,0,1,1.7,4.49,4.49,0,0,0,1.61,1.19A6,6,0,0,0,4584.3,1362.53Z" transform="translate(-4539.26 -1290.75)"/></svg>