<svg id="Logo" xmlns="http://www.w3.org/2000/svg" viewBox="0 0 148.74 135.19"><defs><style>.cls-1{fill:#fff;}</style></defs><title>optimization-services</title><path class="cls-1" d="M8635.85,6797.11v-122c2.35-5.15,6.41-6.61,11.92-6.59,41.91,0.16,83.82.08,125.73,0.09,7.94,0,11.09,3.13,11.09,11q0,56.33,0,112.66c0,8.29-3,11.33-11.38,11.33-41.81,0-83.62-.07-125.44.09C8642.26,6803.72,8638.2,6802.26,8635.85,6797.11Zm137.83-96.32H8646.84v92.06h69.35c-1.87-2.73-.54-4.3,1.59-5.62,0.9-.56,1.66-1.36,2.59-1.86,2.06-1.11,2-2.43,1.62-4.7-0.71-3.92-2.69-5-6.24-4.67a18.2,18.2,0,0,1-2.89-.24c-1.92-.12-2.77-1.15-2.65-3,0.18-2.8.37-5.6,0.54-8.4a2.44,2.44,0,0,1,2.83-2.58c2,0.08,4.06.46,6.08,0.35a3.36,3.36,0,0,0,2.46-1.56c2.38-5.3,2.32-5.33-2-9.41l-1.26-1.2c-1.38-1.31-1.44-2.64-.11-4q2.81-2.94,5.59-5.9c1.52-1.62,3-1.46,4.51,0s2.73,2.76,4.23,4a2.63,2.63,0,0,0,2.2.47c1.93-.8,3.76-1.88,5.66-2.87-0.27-2.4-.46-4.71-0.81-7-0.37-2.44.53-3.63,3-3.82s4.81-.54,7.2-0.9,3.5,0.6,3.75,2.88a53.92,53.92,0,0,0,.74,5.75,2.93,2.93,0,0,0,1.58,1.87c1.89,0.64,3.88,1,5.89,1.45,0.7-1,1.35-2,2-3,3.45-5.21,3.45-5.21,8.92-2.74a1.33,1.33,0,0,0,.45-0.12v-35.19Zm-22.47,82.53a12.59,12.59,0,1,0-12.49-12.58A12.54,12.54,0,0,0,8751.21,6783.32Zm-12.71-103c-4.14,0-5.07.83-5.11,4.72,0,4.56.86,5.61,4.85,5.63s5-1.08,5-4.94C8743.32,6681.35,8742.4,6680.31,8738.5,6680.28Zm20.05,5.13c0-4.29-.83-5.14-5-5.13-3.88,0-4.9,1-4.92,5,0,4.17,1.06,5.34,4.93,5.35S8758.56,6689.61,8758.55,6685.41Zm5.55-.11c0,4.27.94,5.32,4.86,5.33s5-1.12,5-5.24-1-5.08-4.8-5.1C8765,6680.26,8764.12,6681.09,8764.1,6685.3Z" transform="translate(-8635.85 -6668.5)"/><g id="_9YXw14.tif" data-name="9YXw14.tif"><path class="cls-1" d="M8682.87,6738.08h0.67c1.14,0.3,2.27.68,3.43,0.88a1.47,1.47,0,0,1,1.47,1.77c-0.06,1.07,0,2.16.06,3.23a1.94,1.94,0,0,0,3,1.77c1.11-.61,2.18-1.28,3.33-1.8a1.5,1.5,0,0,1,1.33.16,26.63,26.63,0,0,1,2.8,2.87,1.48,1.48,0,0,1,.15,1.32c-0.61,1.23-1.38,2.38-2.06,3.57a2,2,0,0,0,1.5,2.79c1.37,0.11,2.74.21,4.12,0.27a1.12,1.12,0,0,1,1.17,1.07c0.25,1.27.58,2.52,0.88,3.78v0.67l-4.24,2.23a2.23,2.23,0,0,0-.3,3.54q1.65,1.25,3.33,2.45a1,1,0,0,1,.39,1.33c-0.46,1.13-.87,2.3-1.25,3.46a1,1,0,0,1-1.35.8c-1.25-.18-2.51-0.3-3.77-0.41a2.53,2.53,0,0,0-2.35,3.07q0.7,1.88,1.45,3.75a1,1,0,0,1-.37,1.44c-1,.68-1.92,1.41-2.85,2.16a0.93,0.93,0,0,1-1.37,0c-0.82-.7-1.74-1.3-2.5-2.06a2.88,2.88,0,0,0-4.67,1.65,13.58,13.58,0,0,1-.34,1.75c-0.51,2.32-.51,2.31-2.86,2.67a2.54,2.54,0,0,0-.42.14h-2.24a20.23,20.23,0,0,1-1.25-3.31,3,3,0,0,0-3.07-2.73,1.85,1.85,0,0,0-1.79.55,35.43,35.43,0,0,1-2.76,2.77,1.38,1.38,0,0,1-1.21.22,22.15,22.15,0,0,1-3.1-1.75,1.37,1.37,0,0,1-.48-1.13,34.39,34.39,0,0,1,1-3.89,1.46,1.46,0,0,0-.46-1.69,10.2,10.2,0,0,1-1-1,1.44,1.44,0,0,0-1.67-.52c-1.22.33-2.46,0.56-3.69,0.86a1.07,1.07,0,0,1-1.43-.65c-0.47-1-1.07-2-1.48-3a1.56,1.56,0,0,1,.24-1.32,12.22,12.22,0,0,1,2.11-2,2.83,2.83,0,0,0,1.16-3.46,2,2,0,0,0-1.39-1.64c-1.2-.37-2.36-0.9-3.57-1.28a0.84,0.84,0,0,1-.68-1.06c0.15-1.18.3-2.36,0.4-3.55a1,1,0,0,1,1-1.08c1.32-.2,2.64-0.45,3.95-0.71a2.64,2.64,0,0,0,1.45-3.76c-0.76-1-1.51-2-2.3-3a1,1,0,0,1,0-1.48q1.13-1.31,2.16-2.7a1.15,1.15,0,0,1,1.62-.43c1.21,0.56,2.46,1.05,3.7,1.54a2.31,2.31,0,0,0,2.9-2.11c-0.08-1.3-.18-2.6-0.32-3.89a1,1,0,0,1,.79-1.25c1.17-.36,2.35-0.72,3.48-1.18a1.12,1.12,0,0,1,1.57.54c0.73,1.12,1.5,2.22,2.29,3.3a2,2,0,0,0,3.24-.19C8681.29,6740.94,8682.08,6739.51,8682.87,6738.08Zm11.51,25.13a14.71,14.71,0,1,0-14.68,14.7A14.78,14.78,0,0,0,8694.39,6763.21Z" transform="translate(-8635.85 -6668.5)"/></g><g id="_9YXw14.tif-2" data-name="9YXw14.tif"><path class="cls-1" d="M8721.14,6705.53h0.42c0.72,0.19,1.43.43,2.16,0.56a0.93,0.93,0,0,1,.93,1.12c0,0.68,0,1.36,0,2a1.23,1.23,0,0,0,1.92,1.12c0.7-.38,1.38-0.81,2.1-1.14a1,1,0,0,1,.84.1,16.81,16.81,0,0,1,1.77,1.81,0.94,0.94,0,0,1,.09.83c-0.39.77-.87,1.5-1.3,2.25a1.25,1.25,0,0,0,.95,1.76c0.87,0.07,1.73.13,2.6,0.17a0.7,0.7,0,0,1,.74.67c0.16,0.8.37,1.59,0.56,2.39v0.42l-2.68,1.4a1.41,1.41,0,0,0-.19,2.23q1,0.79,2.1,1.55a0.61,0.61,0,0,1,.25.84c-0.29.72-.55,1.45-0.79,2.18a0.66,0.66,0,0,1-.85.5c-0.79-.12-1.59-0.19-2.38-0.26a1.6,1.6,0,0,0-1.49,1.94q0.44,1.19.91,2.36a0.66,0.66,0,0,1-.24.91c-0.62.43-1.21,0.89-1.8,1.36a0.58,0.58,0,0,1-.87,0c-0.52-.45-1.1-0.82-1.58-1.3a1.82,1.82,0,0,0-2.95,1,8.57,8.57,0,0,1-.21,1.11c-0.32,1.46-.32,1.46-1.8,1.69a1.61,1.61,0,0,0-.27.09h-1.41a12.77,12.77,0,0,1-.79-2.09,1.92,1.92,0,0,0-1.94-1.72,1.17,1.17,0,0,0-1.13.35,22.37,22.37,0,0,1-1.74,1.75,0.87,0.87,0,0,1-.76.14,14,14,0,0,1-2-1.11,0.87,0.87,0,0,1-.3-0.72,21.71,21.71,0,0,1,.6-2.46,0.92,0.92,0,0,0-.29-1.07,6.44,6.44,0,0,1-.63-0.66,0.91,0.91,0,0,0-1.06-.33c-0.77.21-1.56,0.35-2.33,0.54a0.68,0.68,0,0,1-.91-0.41c-0.29-.64-0.68-1.24-0.94-1.89a1,1,0,0,1,.15-0.83,7.71,7.71,0,0,1,1.33-1.26,1.79,1.79,0,0,0,.73-2.18,1.24,1.24,0,0,0-.88-1c-0.76-.24-1.49-0.57-2.25-0.81a0.53,0.53,0,0,1-.43-0.67c0.1-.75.19-1.49,0.25-2.24a0.65,0.65,0,0,1,.64-0.68c0.84-.12,1.67-0.28,2.49-0.45a1.66,1.66,0,0,0,.92-2.38c-0.48-.64-1-1.28-1.45-1.91a0.63,0.63,0,0,1,0-.93q0.71-.83,1.37-1.7a0.73,0.73,0,0,1,1-.27c0.77,0.35,1.55.67,2.34,1a1.46,1.46,0,0,0,1.83-1.33c0-.82-0.11-1.64-0.2-2.46a0.63,0.63,0,0,1,.5-0.79c0.74-.23,1.48-0.45,2.2-0.74a0.71,0.71,0,0,1,1,.34c0.46,0.71.95,1.4,1.45,2.08a1.28,1.28,0,0,0,2-.12C8720.14,6707.33,8720.64,6706.43,8721.14,6705.53Zm7.27,15.86a9.29,9.29,0,1,0-9.27,9.28A9.33,9.33,0,0,0,8728.41,6721.39Z" transform="translate(-8635.85 -6668.5)"/></g></svg>