<svg id="Logo" xmlns="http://www.w3.org/2000/svg" viewBox="0 0 253.07 253.07"><defs><style>.cls-1{fill:#1c1c1c;}.cls-2{fill:#fff;}</style></defs><title>phone-card-icon</title><circle class="cls-1" cx="126.53" cy="126.53" r="126.53"/><path class="cls-2" d="M5477.18,6080.41l-6.31,7.3c-0.63.49-1.29,0.94-1.88,1.47a59,59,0,0,1-21.12,12.65c-18.79,6.29-36.79,4.49-53.59-6.12-15.75-10-25.28-24.38-27.89-42.78-3.21-22.6,3.89-41.87,21.5-56.53s38.08-18.15,59.9-10.77c5.69,1.92,10.85,5.41,16.25,8.18l7.3,6.31c1.11,1.36,2.23,2.71,3.32,4.08,14.41,18,18.07,38.14,10.7,60C5483.45,6069.84,5480,6075,5477.18,6080.41Zm-85.21,4.14a54,54,0,1,0-5.53-76.2A54.22,54.22,0,0,0,5392,6084.55Z" transform="translate(-5299.91 -5917.18)"/><path class="cls-2" d="M5414.75,6004.49c-19,24.52-16,60,7.3,80.38,1.36,1.19,3.56,1.62,5.45,1.92a20.49,20.49,0,0,0,5-.29c6.49-.62,10.29-7,7.31-12.85a57.16,57.16,0,0,0-6.56-9.76c-1.93-2.39-4.88-3.09-7.89-2.55-2.34.42-3.63-.32-4.72-2.43-5.2-10-5.81-20.22-1.5-30.65a3,3,0,0,1,2.2-1.59c5.65,0.05,9.19-2.65,11.12-7.85,0.7-1.87,1.78-3.6,2.53-5.45,2.79-6.85-1.86-13.3-9.21-12.81-2,.13-4.13,0-6,0.63S5416.44,6003.36,5414.75,6004.49Z" transform="translate(-5299.91 -5917.18)"/></svg>