<svg id="Logo" xmlns="http://www.w3.org/2000/svg" viewBox="0 0 148.85 109.21"><defs><style>.cls-1{fill:#fff;}</style></defs><title>port-restore</title><path class="cls-1" d="M9743.68,2249.95c0.93-2.6,2.32-4.81,5.17-5.6a11.88,11.88,0,0,1,3.15-.43q66.12,0,132.24,0c5.27,0,8.29,3,8.29,8.31q0,46.28,0,92.57c0,5.26-3,8.31-8.29,8.31q-66.12,0-132.24,0c-4.31,0-7-2.08-8.31-6.06v-97.1Zm74.35,98.19h65.7c3.15,0,3.85-.7,3.85-3.85q0-45.79,0-91.57c0-3.15-.69-3.85-3.84-3.85H9752.48c-3.15,0-3.85.7-3.85,3.85q0,45.71,0,91.43c0,3.35.64,4,4,4H9818Z" transform="translate(-9743.68 -2243.9)"/><path class="cls-1" d="M9855.32,2313.36c0,3.09,0,6,0,9,0,2.65-.82,3.47-3.48,3.47h-13.91c0,2.34,0,4.51,0,6.68,0,2.39-.85,3.22-3.25,3.22h-33.14c-2.4,0-3.24-.84-3.25-3.22,0-2.17,0-4.34,0-6.68h-3.73c-3.49,0-7,0-10.47,0-2.28,0-3.18-.91-3.19-3.18,0-3,0-6.08,0-9.27h-11.45c-2.68,0-3.41-.75-3.41-3.48,0,0,0-.1,0-0.15q0-22.38,0-44.77c0-3,.69-3.68,3.67-3.68h96.81c3,0,3.67.69,3.67,3.68q0,22.38,0,44.77c0,3-.67,3.62-3.7,3.62h-11.16Zm-54.63-47.08c0,1.79.08,3.43,0,5.06a2.3,2.3,0,0,1-3.55,1.94,4.11,4.11,0,0,1-1.31-2.53,30.7,30.7,0,0,1-.06-4.43H9791a1.19,1.19,0,0,0-.14.33c0,1.31,0,2.61,0,3.92,0,2-1,3.11-2.49,3.09s-2.44-1.17-2.46-3.15c0-1.39,0-2.78,0-4.16h-5c0,1.46,0,2.81,0,4.16,0,2-.91,3.13-2.45,3.15s-2.48-1.14-2.5-3.09c0-1.43,0-2.86,0-4.25h-4.85v42.08h11.28c2.66,0,3.47.81,3.48,3.47,0,2.94,0,5.88,0,9h13.92c2.67,0,3.47.8,3.48,3.45,0,2.11,0,4.23,0,6.37H9833v-4.13c0-5.69,0-5.69,5.6-5.69h11.8c0-3.31,0-6.41,0-9.5a2.61,2.61,0,0,1,2.83-2.94c0.53,0,1.07,0,1.6,0h10.33v-42.06h-4.88c0,1.7,0,3.3,0,4.89a2.28,2.28,0,0,1-1.84,2.31,2.18,2.18,0,0,1-2.62-1,4.48,4.48,0,0,1-.44-1.94c-0.06-1.43,0-2.86,0-4.25h-4.8a1.44,1.44,0,0,0-.12.35c0,1.31,0,2.62,0,3.92,0,1.94-1,3.1-2.54,3.06s-2.39-1.14-2.41-3c0-1.43,0-2.87,0-4.32h-5c0,0.78,0,1.49,0,2.2s0,1.55,0,2.32c-0.08,1.74-1.06,2.82-2.5,2.82s-2.41-1.08-2.45-2.83c0-1.49,0-3,0-4.48h-5c0,1.51,0,2.92,0,4.32,0,1.86-1,3-2.47,3s-2.44-1.09-2.48-3c0-1.44,0-2.88,0-4.36h-5c0,1.51.07,2.91,0,4.31a3.26,3.26,0,0,1-.69,2.1,3.11,3.11,0,0,1-2.43.68,2.78,2.78,0,0,1-1.65-1.86,37.54,37.54,0,0,1-.08-5.22h-5.14c0,1.79.08,3.48,0,5.16a2.39,2.39,0,0,1-4.71.22,13.42,13.42,0,0,1-.16-2.16c0-1.09,0-2.17,0-3.28h-5Z" transform="translate(-9743.68 -2243.9)"/></svg>