<svg id="Logo" xmlns="http://www.w3.org/2000/svg" viewBox="0 0 203.69 130.66"><defs><style>.cls-1{opacity:0.81;}.cls-2{fill:#fff;}.cls-3{fill:#1c1c1c;}.cls-4{fill:#323232;}.cls-5{fill:none;stroke:#fff;stroke-miterlimit:10;stroke-width:4px;}</style></defs><title>screen-repair</title><g class="cls-1"><path class="cls-2" d="M9314.63,2324.9l51,11.69c1.07,0.25,1.1.75,0.07,1.13l-76.37,27.66" transform="translate(-9162.76 -2234.75)"/></g><g class="cls-1"><path class="cls-2" d="M9214.58,2324l-51,11.69c-1.07.25-1.11,0.76-.07,1.14l76.74,28.5" transform="translate(-9162.76 -2234.75)"/></g><line class="cls-3" x1="147.22" y1="90.15" x2="200.16" y2="102.29"/><rect class="cls-2" x="71.25" y="16.31" width="61.64" height="85.76"/><path class="cls-2" d="M9298.36,2337.75c0.19,0.16-.06-22.45-0.06-32.09,0-20.18,0-39.95,0-60.13a13.29,13.29,0,0,0-1-4.76c-1.24-3.1-3.71-4.6-6.63-5.3,0,0-54.66-.43-55.44,0-3.45,1.92-3.94,6.08-3.94,10.26,0,29.27,0,58.26,0,87.53,0,0,0,16.56,0,17.66,0,1.52,0,3,0,4.57,0.06,5.76,3.7,9.87,8.94,9.88q24.54,0.06,49.07,0c5.24,0,8.91-4.11,9-9.85,0-1.94,0-3.89,0-5.83C9298.34,2349.23,9298.36,2337.75,9298.36,2337.75Zm-63.09-93.15a5,5,0,0,1,4.35-4.77,13,13,0,0,1,1.38,0h47.57c4,0,5.79,1.93,5.8,6.31,0,0.71,0,1.43,0,2.24h-59.11C9235.26,2247,9235.2,2245.82,9235.27,2244.61Zm59.06,8.27V2335h-59v-82.12h59Zm0,102.4c0,3.69-1.93,5.8-5.32,5.8h-48.48c-3.39,0-5.31-2.1-5.32-5.8q0-7.29,0-14.59v-1.23h59.13v1.23Q9294.37,2348,9294.37,2355.28Z" transform="translate(-9162.76 -2234.75)"/><path class="cls-2" d="M9264.89,2358.57a7.13,7.13,0,0,1-7.12-7.05,7.07,7.07,0,1,1,14.13-.09A7.1,7.1,0,0,1,9264.89,2358.57Zm3.47-7.09a3.52,3.52,0,1,0-7-.07,3.54,3.54,0,0,0,3.44,3.58A3.5,3.5,0,0,0,9268.36,2351.48Z" transform="translate(-9162.76 -2234.75)"/><path class="cls-2" d="M9188.29,2250.89l24.57-5.41a1.86,1.86,0,0,1,2.26,1.55l16,103.83" transform="translate(-9162.76 -2234.75)"/><path class="cls-2" d="M9341.72,2252.3l-22.45-4.61a2,2,0,0,0-2.32,1.56l-18.45,100.36" transform="translate(-9162.76 -2234.75)"/><path class="cls-4" d="M9260.82,2241.36c1.24,0,2.48,0,3.71,0a2,2,0,0,1,2.2,2.07,2.05,2.05,0,0,1-2.16,2.25c-2.51.06-5,.06-7.54,0a2.16,2.16,0,0,1,.08-4.31C9258.34,2241.33,9259.58,2241.36,9260.82,2241.36Z" transform="translate(-9162.76 -2234.75)"/><path class="cls-4" d="M9271.79,2241.36c0.23,0,.46,0,0.69,0a2.16,2.16,0,0,1,.11,4.32,8.77,8.77,0,0,1-2.07-.07,2.13,2.13,0,0,1,.11-4.21,9.86,9.86,0,0,1,1.16,0v0Z" transform="translate(-9162.76 -2234.75)"/><path class="cls-5" d="M9276.58,2237l-92.35,0a1.22,1.22,0,0,0-1.21,1.84l49.7,115.91" transform="translate(-9162.76 -2234.75)"/><path class="cls-5" d="M9264.87,2237.08l81.66-.33a1.21,1.21,0,0,1,1.2,1.82l-51,116.59" transform="translate(-9162.76 -2234.75)"/></svg>