<svg id="Logo" xmlns="http://www.w3.org/2000/svg" viewBox="0 0 173.82 223.62"><defs><style>.cls-1{fill:#fff;}.cls-2{fill:none;stroke:#fff;stroke-miterlimit:10;stroke-width:15px;}</style></defs><title>troubleshoot</title><path class="cls-1" d="M8692.35,3134.39c0-4.84,0-9.68,0-14.52,0-6.88,3.15-10.21,10-10.72,14.7-1.1,25.76-12.51,25.54-26.33a26.63,26.63,0,0,0-21.44-25.9c-11.39-2.46-24,4-28.84,15.38-1.43,3.35-1.83,7.2-2.33,10.87-0.59,4.32-3.3,7.79-7.26,8.58a9,9,0,0,1-10.09-4.81,11.24,11.24,0,0,1-1-4.74,44.8,44.8,0,0,1,40.75-44c22-2.18,42.78,13.1,47.65,35.07,5.08,22.92-9,46.37-31.71,52.46-2.16.58-2.89,1.37-2.83,3.65,0.17,6.84.11,13.69,0,20.54a9,9,0,0,1-5.23,8.64,8.71,8.71,0,0,1-9.1-.65c-2.91-1.93-4.08-4.82-4.1-8.21C8692.33,3144.62,8692.35,3139.5,8692.35,3134.39Z" transform="translate(-8620.47 -3035.83)"/><path class="cls-1" d="M8692.37,3134.39c0-6.76-2.53-18.32,5.28-21.71,3-1.29,6.41-1,9.53-1.79a28.43,28.43,0,0,0,10.17-4.69c8.94-6.58,11.2-16.71,10.49-27.19-1-14.24-13.51-26.08-28-25a26.64,26.64,0,0,0-18.15,9.33,24.54,24.54,0,0,0-5,9.47c-1.09,4-.64,8.81-2.94,12.42-4.21,6.63-13.92,5-16.31-2.27l-0.42.28,0.21-2.68c0.1-.91.22-1.82,0.38-2.72a45.22,45.22,0,0,1,1.22-5.26,44.27,44.27,0,0,1,4.2-9.71,45.44,45.44,0,0,1,34-22,44.65,44.65,0,0,1,38.43,15.3c10.76,12.46,13.5,27.4,7.27,41.8a45.19,45.19,0,0,1-14.65,18.42,43.5,43.5,0,0,1-10.34,5.62c-3.24,1.22-6.58,1.11-6.9,5-0.12,1.51,0,3.06,0,4.57,0,5.35,1.47,13.66-.49,19.23a9,9,0,0,1-3.45,4.57,9.19,9.19,0,0,1-12-1.32c-4.32-4.6-2.47-13.71-2.47-19.67,0-2.79,0-2.88-.05,0,0,4.89,0,9.79,0,14.68,0,2.83-.19,5.85,1.3,8.39,5.13,8.74,16.62,3.75,17.17-5.1,0.44-7,.14-14.17,0-21.18,0-2.73.57-1.7,0.26-1.37a2.76,2.76,0,0,1,1.35-1.16c1.74-.52,3.49-1,5.19-1.69a43.73,43.73,0,0,0,11.43-6.45c23.34-18.26,23.16-57.26-.1-75.47-27.55-21.57-69.3-2.94-72,31.87-0.31,4.07-.85,9.49,1.24,13.13a9.11,9.11,0,0,0,9.75,4.21c4.27-.88,6.47-4.59,7.26-8.58,0.93-4.7,1.16-9.12,3.58-13.4a26.53,26.53,0,0,1,8.39-9,25.6,25.6,0,0,1,23.24-2.71,26.74,26.74,0,0,1,16.76,19.22c1.88,8.59-4.05,17.51-11,22.11a28.85,28.85,0,0,1-11.83,4.47c-3.77.55-7.8,0.58-10.27,4-1.69,2.32-1.82,5.21-1.86,8-0.09,5.34,0,10.69,0,16C8692.32,3137.18,8692.37,3137.27,8692.37,3134.39Z" transform="translate(-8620.47 -3035.83)"/><path class="cls-1" d="M8748.52,3160.1c1.38-2.48,2.76-5,4.15-7.43,2-3.51,4.53-4.33,8.19-2.63,7.84,3.64,16.77,1,20.61-6.18a15.62,15.62,0,0,0-3.57-19.4,15.37,15.37,0,0,0-19.17-.37,24.66,24.66,0,0,0-4.3,4.9,5.62,5.62,0,0,1-6.17,2.32,5.28,5.28,0,0,1-3.79-5.35,6.59,6.59,0,0,1,.83-2.73,26.28,26.28,0,0,1,33.45-10.86c11.9,5.18,18.16,18.95,14.37,31.59a26.22,26.22,0,0,1-31.25,17.8,1.8,1.8,0,0,0-2.49,1.06c-1.87,3.55-3.86,7-5.86,10.53a5.31,5.31,0,0,1-5.15,2.93,5.11,5.11,0,0,1-4.48-2.94,5.44,5.44,0,0,1,.25-5.38C8745.59,3165.33,8747.06,3162.72,8748.52,3160.1Z" transform="translate(-8620.47 -3035.83)"/><path class="cls-1" d="M8748.52,3162.6c2.08-3.74,4.44-11.4,9.8-10.86,2.47,0.25,4.7,1.82,7.2,2.21a16.22,16.22,0,0,0,7.16-.45c8.28-2.49,10.76-10.07,10.74-17.84,0-8.54-4.93-16.55-14.18-17.2-5.81-.41-10.26,2.39-13.81,6.72-1.56,1.9-3,3.95-5.8,3.87a5.43,5.43,0,0,1-5.15-5.49v4.91c2.24-11.94,18.38-17.41,28.86-15.3,10.95,2.21,22.51,13.57,20.45,25.59s-13,21-25,21.28c-2.28.06-5.92-1.49-8-.89-2.47.72-4.41,6.69-5.57,8.73-1.36,2.4-2.54,5.29-5.54,5.85-3.58.67-6.13-2.07-6.38-5.5v4.91c0.72-3.69,3.4-7.27,5.22-10.52,0.72-1.28-.7-3.75,0-5-3,5.33-6.52,10.41-5.13,16.79a5.46,5.46,0,0,0,7.47,4c4.21-1.83,5.65-8.8,8.11-12.29,2.3-3.26,6.1-1,9.8-1.06a26.25,26.25,0,0,0,25.37-24.06c1.09-13.66-3.85-27.6-18.09-32.1-12.79-4-32.47,3.36-31.6,18.86,0.17,3.12,1.43,6.21,5.17,6.31,3.08,0.09,4.6-2.41,6.31-4.52a15.55,15.55,0,0,1,6.51-5c10-3.94,20,3.33,20.95,13.63l0-1.84v1.39l0-3.16c-0.75,8.38-7.19,15-15.87,14.64-3.62-.13-7.37-3.07-10.86-2.35-4.22.87-6.3,7.5-8.15,10.8C8747.81,3158.89,8749.22,3161.34,8748.52,3162.6Z" transform="translate(-8620.47 -3035.83)"/><path class="cls-1" d="M8731.75,3187.4a6.75,6.75,0,1,1,2.55,9.16A6.79,6.79,0,0,1,8731.75,3187.4Z" transform="translate(-8620.47 -3035.83)"/><path class="cls-1" d="M8649.75,3164c-0.77-2.73-1.56-5.46-2.32-8.19-1.08-3.89.14-6.27,3.93-7.65,8.12-3,12.54-11.18,10.2-18.95a15.62,15.62,0,0,0-16.24-11.19,15.37,15.37,0,0,0-13.82,13.29,24.66,24.66,0,0,0,.42,6.51,5.62,5.62,0,0,1-2.73,6,5.28,5.28,0,0,1-6.46-1.1,6.59,6.59,0,0,1-1.34-2.51,26.28,26.28,0,0,1,16-31.33c12.08-4.75,26.24.56,32.5,12.18a26.22,26.22,0,0,1-9.51,34.69,1.8,1.8,0,0,0-1,2.51c1.19,3.84,2.25,7.71,3.31,11.59a5.31,5.31,0,0,1-1.57,5.71,5.11,5.11,0,0,1-5.24,1.09,5.44,5.44,0,0,1-3.63-4C8651.37,3169.8,8650.57,3166.91,8649.75,3164Z" transform="translate(-8620.47 -3035.83)"/><path class="cls-1" d="M8649.75,3161.53c-1-3.42-2.38-7-2.7-10.57v4.91c0.37-5.14,6.36-5.48,9.64-8.32a15.77,15.77,0,0,0,5.46-10.72c0.47-5.84,0-12-4.25-16.43a15.45,15.45,0,0,0-23.93,1.9c-4,5.94-2.26,12.84-2,19.45v-4.91c-0.6,3.33-3.27,6.07-6.92,4.92-3.28-1-4.39-5.12-4.43-8.21-0.08-5.77,3.53-12.07,7.45-16a26.34,26.34,0,0,1,35.25-1.83,25.52,25.52,0,0,1,9.3,16.14c0.71,5.92-2.67,12.53-6.56,16.78-1.68,1.84-5.75,3.62-6.72,5.72a8.06,8.06,0,0,0-.19,3.22c0,5.55,2.75,10.69,3.72,16.11v-4.91c-0.1,4.36-4.73,7.46-8.56,4.63-3.12-2.3-3.59-8.37-4.57-11.84,0.43,1.53-.44,3.45,0,5,1.09,3.86,1.54,11.18,6.09,12.64,4.12,1.32,6.86-2,7.06-5.73,0.35-6.65-2.72-12.27-3.71-18.73v5c0.72-1.71,3.07-2.61,4.49-3.8a25.43,25.43,0,0,0,4.46-4.87,26.7,26.7,0,0,0,4.74-13.34c0.38-5.07.32-10.56-1.36-15.39-6.66-19.15-32.58-23.53-45.24-7.78-4.56,5.68-5.84,12.33-5.8,19.41,0,2.88-.07,6.06.92,8.79,1.73,4.75,8.54,6.09,10.34.5,0.56-1.74.3-3.88,0.27-5.67-0.08-4.48-.24-7.61,2.8-11.38a15.48,15.48,0,0,1,23.56-.31c3.29,3.8,4.42,7.67,2,12.14a16.44,16.44,0,0,1-5.29,5.78c-2,1.37-5,1.83-6.68,3.63-4.09,4.35.11,14.83,1.33,19.11C8649.31,3165,8650.19,3163.08,8649.75,3161.53Z" transform="translate(-8620.47 -3035.83)"/><path class="cls-1" d="M8657.19,3195.19a6.75,6.75,0,1,1,8.28,4.67A6.79,6.79,0,0,1,8657.19,3195.19Z" transform="translate(-8620.47 -3035.83)"/><circle class="cls-1" cx="81.09" cy="161.62" r="20.26"/><line class="cls-2" x1="81.09" y1="174.74" x2="81.09" y2="223.62"/></svg>