<svg id="Logo" xmlns="http://www.w3.org/2000/svg" viewBox="0 0 179.73 168.02"><defs><style>.cls-1{fill:#fff;}</style></defs><title>virus-cleaning</title><path class="cls-1" d="M8620.61,5924.25c1.39-8.19,3.31-16.17,7.57-23.47a55.62,55.62,0,0,1,23.28-22.16c2.19-1.11,3-2.29,2.86-4.78-1-24.91,11.48-45.09,34.2-55.37,2.46-1.11,5.28-2.78,7,.64,1.58,3.15-1.2,4.51-3.43,5.87a35.57,35.57,0,0,0-15.82,41.59,9.94,9.94,0,0,0,.64,1.32q33.65-23.47,67,.22c6.37-14.85.19-33.62-13.91-42.48-1-.62-2.37-1-2.9-1.89a23.51,23.51,0,0,1-1.7-4.79c1.62-.49,3.54-1.79,4.82-1.33a53.23,53.23,0,0,1,22.1,15,55.71,55.71,0,0,1,14.33,41.63,3.69,3.69,0,0,0,2.29,4.07c20.28,10.77,30.57,27.82,31.4,50.65a68.71,68.71,0,0,1-.67,8.74c-0.21,2.26-1.34,3.93-3.74,3.79s-3.37-1.8-3.35-4.13c0.11-9.63-2.8-18.2-9.28-25.4a34.86,34.86,0,0,0-20.68-11.24c2.31,27.23-9,46.39-33.5,57.82,6.85,10.11,21.79,15.59,34.95,12.46,3.92-.93,7.63-2.82,11.35-4.47,2.13-.95,4.11-1.53,5.54.77s0.21,3.88-1.62,5.38c-18.2,14.93-45.56,16.56-65.26,3.64-2.66-1.75-4.37-1.74-7,0-19.47,12.74-46,11.41-64.42-3-2-1.55-4.29-3.11-2.46-6s4.21-1.46,6.43-.25c11.41,6.23,23,6.67,34.55.61,4.05-2.14,7.5-5.42,11.76-8.58-25.43-11.6-36.9-30.71-34.93-58.17a30.69,30.69,0,0,0-16.28,7.31c-8.29,6.88-12.56,15.81-13.09,26.55-0.05,1.05.27,2.31-.2,3.11-0.79,1.35-2.24,3.47-3.12,3.34-1.41-.21-2.95-1.79-3.75-3.19s-0.64-3.12-.91-4.71v-9.13Zm79.07,17.63c3.2-16.92-7.42-35-23.27-39.52C8671.1,5916.93,8684,5938.81,8699.68,5941.88Zm33.71-58.77c-14.1-13.46-37.05-10.17-45.83.16C8700.7,5894.47,8721.79,5894.4,8733.39,5883.12Zm10.9,19.36c-15.91,4.8-27.46,24.94-22.73,39.28C8737.44,5937.29,8748.54,5918.28,8744.29,5902.48Z" transform="translate(-8620.61 -5817.06)"/></svg>