<svg id="Logo" xmlns="http://www.w3.org/2000/svg" viewBox="0 0 111.62 159.57"><defs><style>.cls-1{fill:#fff;}</style></defs><title>water-damage</title><path class="cls-1" d="M9820.4,3038.36a22.37,22.37,0,0,1,3,2.64c16.29,20.4,31.28,41.65,42.23,65.49,4.69,10.21,8.62,20.73,9.17,32.11,1,21.37-7.37,38.44-25.15,50.06-33.07,21.61-76.48,3.62-85.15-34.9-2.51-11.15-1-22.07,2.5-32.8a159.85,159.85,0,0,1,18.63-38.55c8.94-13.6,18.65-26.69,28.11-39.95a33,33,0,0,1,4.17-4.1h2.49Zm-3.61,140.35a45.28,45.28,0,0,0,6.78-.83c1.72-.46,4.48-1.5,4.61-2.55,0.34-2.78-2.62-2.11-4.34-2.68a1.91,1.91,0,0,0-.3-0.07c-21.53-3.33-38.27-22-36.59-43.66,0.08-1-1.19-2.06-1.82-3.09-0.93.66-2.35,1.12-2.72,2-3,7.21-4.5,14.68-2.74,22.48C9783.37,3166.86,9798.95,3178.7,9816.79,3178.7Z" transform="translate(-9763.27 -3038.36)"/><path class="cls-1" d="M9820.4,3038.36a22.37,22.37,0,0,1,3,2.64c16.29,20.4,31.28,41.65,42.23,65.49,4.69,10.21,8.62,20.73,9.17,32.11,1,21.37-7.37,38.44-25.15,50.06-33.07,21.61-76.48,3.62-85.15-34.9-2.51-11.15-1-22.07,2.5-32.8a159.85,159.85,0,0,1,18.63-38.55c8.94-13.6,18.65-26.69,28.11-39.95a33,33,0,0,1,4.17-4.1h2.49Zm-3.61,140.35a45.28,45.28,0,0,0,6.78-.83c1.72-.46,4.48-1.5,4.61-2.55,0.34-2.78-2.62-2.11-4.34-2.68a1.91,1.91,0,0,0-.3-0.07c-21.53-3.33-38.27-22-36.59-43.66,0.08-1-1.19-2.06-1.82-3.09-0.93.66-2.35,1.12-2.72,2-3,7.21-4.5,14.68-2.74,22.48C9783.37,3166.86,9798.95,3178.7,9816.79,3178.7Z" transform="translate(-9763.27 -3038.36)"/></svg>